<?xml version="1.0" encoding="UTF-8"?>
<svg xmlns="http://www.w3.org/2000/svg" id="Layer_1" data-name="Layer 1" viewBox="0 0 961 614.55">
  <defs>
    <style>.cls-1{fill:#273daa;}.cls-2{fill:#fff;}</style>
  </defs>
  <rect class="cls-1" x="16.87" y="22.49" width="927.26" height="569.56" rx="59.46"></rect>
  <path class="cls-2" d="M672.77,211.89H435.61l-22,48.33L392,212.44H296v19.74c-4.48-8.42-7.57-14.25-10.74-20.22H203.43c-26.19,63.2-52.4,126.42-78.89,190.36h95.37c3.79-9.93,7.41-19.44,11-28.76h27.23L269,402.28H375.35V386.09l1.44-.36c2.38,5.68,4.75,11.36,7,16.79h54.32l6.72-18.35c2.6,7.17-.63,13.21,3,18.5H664.65L691.94,373l24.41,29.34H828.09l-70.42-95,78.79-95.43H724.85L697.49,241.4C689,231.28,680.89,221.57,672.77,211.89Z"></path>
  <path class="cls-1" d="M508.77,375H476.46V275l-2.3-.55q-22,50.25-44.11,100.69H402.73L358.12,273.26l-1.63.18V374.89H293.71l-11-28.87H217.1c-3.63,9.71-7.21,19.27-10.87,29H171.06c19.21-45.74,38.09-90.66,57-135.6h46.49c16.52,40.76,33.22,81.93,49.92,123.11l1.42-.1V239.79h52.51c13.19,29.79,26.49,59.82,40.69,91.91,13.17-31.77,25.64-61.84,38.15-92h51.56ZM228.28,315.11h43.33c-7.18-17.89-14-34.83-21.73-54.12Z"></path>
  <path class="cls-1" d="M537.54,239.47H662.06c12.48,14.12,25.1,28.4,38.11,43.14l40.76-43.12h37.88l-59.44,67.78L776,375H735.45l-35.29-45.71-40.77,45.82H537.54Zm108.71,27.68H567c-.23,8.14-1.49,15.7,1.16,24.15h66.48c-.11,9.34,1,17.66-.88,27.14H567.27v26.67h76l35-40.57Z"></path>
</svg>
