<?xml version="1.0" encoding="UTF-8" standalone="no"?>
<svg xmlns="http://www.w3.org/2000/svg" xmlns:xlink="http://www.w3.org/1999/xlink" xmlns:serif="http://www.serif.com/" width="100%" height="100%" viewBox="0 0 475 536" version="1.1" xml:space="preserve" style="fill-rule:evenodd;clip-rule:evenodd;stroke-linejoin:round;stroke-miterlimit:2;">
    <g transform="matrix(1,0,0,1,-60.2818,-27.1404)">
        <path d="M60.313,308.365C65.301,254.982 81.23,199.86 120.313,152.906C136.627,133.31 157.303,120.717 183.079,114.258C220.891,104.786 264.189,141.586 260.44,180.699C259.748,188.199 256.771,193.742 249.466,196.18C242.516,198.509 236.804,195.342 232.17,190.528C224.607,182.671 220.328,172.92 215.71,163.371C203.514,138.185 179.974,132.952 157.416,150.498C152.814,154.085 148.132,158.06 144.914,162.765C113.458,208.758 94.617,258.321 102.292,314.436C106.62,346.066 131.286,355.429 158.333,336.703C175.131,325.073 187.021,308.893 200.698,294.375C206.731,287.963 212.717,281.612 220.295,276.86C225.734,273.445 231.639,272.45 237.19,275.494C242.854,278.599 245.122,284.577 243.964,290.4C237.013,325.135 229.998,359.839 222.178,394.403C219.282,407.213 211.575,418.082 201.551,427.119C197.592,430.706 193.151,435.302 187.311,432.18C181.374,429.013 185.444,423.377 186.297,419.169C191.108,395.225 196.917,371.423 197.56,346.874C197.673,342.743 199.314,337.371 194.729,334.948C189.547,332.231 187.15,338.008 183.9,340.367C174.375,347.277 165.123,354.544 155.823,361.749C135.791,377.276 113.796,381.174 90.481,370.242C66.266,358.923 59.766,337.929 60.313,308.365" style="fill:rgb(238,36,36);fill-rule:nonzero;"></path>
        <path d="M191.775,517.508C197.817,499.478 203.832,481.476 209.875,463.474C238.863,414.003 277.223,371.21 314.094,327.374C358.496,274.692 359.459,268.184 326.647,209.248C307.467,174.764 287.207,140.874 267.881,106.475C264.465,100.39 255.358,94.135 263.853,86.107C270.83,79.542 280.084,78.923 289.28,80.81C303.672,83.74 312.313,94.277 320.078,104.869C339.813,131.858 358.496,159.608 378.26,186.597C397.819,213.276 398.549,213.276 416.911,184.597C445.317,140.197 472.874,95.29 501.367,50.947C507.731,41.059 516.196,23.17 526.414,27.931C540.223,34.383 534.063,52.497 530.501,66.076C522.386,96.897 505.717,123.716 488.055,150.086C468.525,179.328 447.622,207.698 431.42,238.941C423.684,253.844 423.188,267.479 429.318,283.622C449.433,336.586 475.881,387.493 487.851,443.134C494.594,474.546 493.28,505.535 475.356,533.989C465.635,549.4 452.177,565.655 433.025,559.88C411.277,553.344 402.344,531.567 406.723,510.831C418.487,455.473 397.061,404.848 386.113,352.729C384.653,345.798 382.201,335.15 373.385,334.981C368.422,334.867 362.262,342.953 358.292,348.446C330.792,386.873 305.511,426.597 282.682,469.39C292.9,472.236 303.496,461.671 308.314,473.644C311.758,482.265 304.46,488.209 299.76,494.267C281.689,517.536 258.277,535.342 233.725,551.682C225.317,557.287 216.94,566.5 204.708,559.964C192.651,553.513 191.22,542.469 192.067,530.552C192.358,526.242 191.892,521.847 191.775,517.508" style="fill:rgb(238,36,36);fill-rule:nonzero;"></path>
        <path d="M484.44,335.946L482.712,335.112C483.28,333.829 483.59,332.541 483.643,331.25C483.698,329.957 483.523,328.779 483.121,327.716C482.626,326.404 481.829,325.276 480.729,324.335C479.631,323.392 478.408,322.802 477.058,322.562C475.709,322.324 474.536,322.393 473.54,322.77C472.274,323.249 471.203,324.044 470.323,325.151C469.447,326.258 468.912,327.533 468.719,328.972C468.528,330.411 468.699,331.84 469.235,333.258C469.885,334.977 470.924,336.25 472.351,337.078C473.776,337.905 475.304,338.137 476.934,337.78L474.91,332.429L476.526,331.816L479.259,339.033C476.66,339.999 474.31,340.011 472.212,339.07C470.113,338.126 468.579,336.372 467.609,333.809C466.436,330.717 466.565,327.867 467.992,325.258C469.091,323.246 470.709,321.836 472.845,321.029C474.434,320.426 476.003,320.287 477.548,320.611C479.092,320.936 480.517,321.649 481.825,322.751C483.129,323.85 484.113,325.28 484.78,327.037C485.316,328.454 485.562,329.886 485.519,331.335C485.477,332.782 485.117,334.318 484.44,335.946" style="fill:white;fill-rule:nonzero;"></path>
        <path d="M492.772,349.436L493.379,351.131L478.122,356.593L480.442,363.083L478.812,363.666L475.884,355.479L492.771,349.436L492.772,349.436Z" style="fill:white;fill-rule:nonzero;"></path>
        <path d="M501.511,379.766C501.113,378.504 500.409,377.41 499.394,376.484C498.377,375.555 497.213,374.953 495.894,374.674C494.576,374.397 493.233,374.473 491.865,374.906C489.835,375.544 488.41,376.764 487.591,378.565C486.772,380.366 486.674,382.258 487.3,384.243C487.717,385.566 488.426,386.691 489.428,387.618C490.43,388.544 491.585,389.148 492.896,389.429C494.204,389.708 495.406,389.678 496.499,389.333C497.851,388.907 498.979,388.205 499.881,387.228C500.782,386.251 501.379,385.086 501.678,383.732C501.973,382.379 501.918,381.056 501.511,379.766M503.174,379.165C503.989,381.75 503.806,384.184 502.623,386.472C501.441,388.758 499.584,390.3 497.056,391.098C494.554,391.885 492.227,391.663 490.074,390.431C487.918,389.2 486.447,387.333 485.66,384.834C484.86,382.296 485.053,379.881 486.238,377.59C487.422,375.297 489.11,373.807 491.3,373.117C492.941,372.6 494.585,372.517 496.243,372.866C497.9,373.215 499.345,373.951 500.574,375.078C501.802,376.203 502.67,377.566 503.174,379.165" style="fill:white;fill-rule:nonzero;"></path>
        <path d="M508.523,405.009L502.944,406.381L503.704,409.47C503.999,410.673 504.33,411.535 504.698,412.045C505.063,412.557 505.529,412.921 506.091,413.134C506.655,413.35 507.234,413.384 507.83,413.238C508.628,413.041 509.187,412.608 509.506,411.944C509.819,411.275 509.83,410.334 509.533,409.12L508.523,405.009ZM501.194,406.81L494.511,408.451L495.555,412.703C495.867,413.972 496.222,414.872 496.615,415.401C497.011,415.931 497.517,416.311 498.128,416.543C498.745,416.773 499.365,416.811 499.991,416.658C500.756,416.47 501.369,416.051 501.824,415.405C502.279,414.756 502.502,413.966 502.499,413.029C502.493,412.399 502.309,411.352 501.95,409.889L501.194,406.81ZM509.809,402.887L511.165,408.419C511.506,409.797 511.602,410.899 511.454,411.724C511.309,412.547 510.948,413.258 510.37,413.852C509.794,414.446 509.096,414.844 508.273,415.047C507.501,415.236 506.747,415.22 506.021,414.996C505.294,414.773 504.64,414.34 504.07,413.699C503.982,414.694 503.792,415.482 503.501,416.07C503.208,416.656 502.803,417.158 502.283,417.577C501.765,417.996 501.157,418.291 500.468,418.459C499.068,418.803 497.756,418.581 496.538,417.793C495.32,417.004 494.499,415.752 494.076,414.039L492.389,407.167L509.809,402.887Z" style="fill:white;fill-rule:nonzero;"></path>
        <path d="M513.346,438.106L506.452,436.008L507.363,442.085L513.346,438.106ZM517.137,437.76L500.637,448.68L500.353,446.793L505.782,443.129L504.635,435.473L498.373,433.587L498.076,431.602L517.07,437.33L517.137,437.76Z" style="fill:white;fill-rule:nonzero;"></path>
        <path d="M519.139,461.975L519.113,463.776L502.908,463.532L502.804,470.423L501.075,470.399L501.206,461.704L519.139,461.975Z" style="fill:white;fill-rule:nonzero;"></path>
        <path d="M522.639,508.396C522.661,508.126 522.963,507.949 522.858,507.635C522.355,507.539 522.103,507.884 521.827,508.228C521.156,508 520.742,508.46 520.25,508.833C520.146,508.868 519.99,508.87 519.869,508.957C519.643,509.444 519.825,509.719 520.356,509.712C520.512,509.71 520.648,509.661 520.779,509.582C520.926,509.494 521.078,509.417 521.256,509.447C521.503,509.611 521.368,509.938 521.574,510.157C522.147,509.725 522.687,509.275 523.163,508.716C522.966,508.596 522.805,508.498 522.639,508.396M512.169,512.18C511.778,512.395 511.258,512.626 511.669,513.276C511.74,513.284 511.813,513.298 511.886,513.299C513.053,513.321 514.211,513.234 515.354,513C515.873,512.893 516.41,512.831 516.872,512.529C517.107,512.376 517.263,512.127 517.119,511.912C516.883,511.555 516.75,511.142 516.484,510.808C516.263,510.533 516.027,510.509 515.733,510.707C515.609,510.79 515.482,510.866 515.394,510.92C514.936,510.973 514.891,510.467 514.532,510.397C514.17,510.552 513.823,510.425 513.476,510.271C513.21,510.152 512.66,510.208 512.523,510.417C512.263,510.811 511.969,511.203 511.974,511.687C512.026,511.856 512.187,511.941 512.169,512.18M499.491,497.954C499.413,498.376 499.469,498.491 499.777,498.627C499.935,498.699 500.099,498.706 500.275,498.708C500.999,498.716 501.528,499.043 501.355,499.901C501.327,500.037 501.319,500.176 501.287,500.311C501.223,500.596 501.32,500.763 501.617,500.815C501.811,500.849 501.992,500.92 502.07,501.128C502.263,501.643 502.643,502.013 503.091,502.283C503.701,502.648 503.915,503.278 504.271,503.817C504.353,503.942 504.489,503.989 504.626,503.992C504.895,503.998 505.149,504.069 505.341,504.24C505.8,504.648 506.362,504.825 506.924,505.012C507.142,505.085 507.37,505.167 507.575,505.04C507.983,504.786 508.368,504.501 508.542,504.014C508.722,503.512 508.868,502.999 509.121,502.523C509.253,502.273 509.44,502.132 509.687,501.996C510.393,501.605 510.625,501.57 510.502,500.618C510.46,500.292 510.568,500.01 510.856,499.817C511.388,499.461 511.533,498.709 511.164,498.196C511.065,498.056 510.994,497.923 511.092,497.755C511.398,497.231 511.817,496.813 512.303,496.432C512.601,496.59 512.857,496.855 513.236,496.759C513.313,496.558 513.285,496.365 513.186,496.175C513.027,495.873 512.87,495.569 512.685,495.281C512.333,494.733 511.86,494.504 511.213,494.625C510.955,494.673 510.743,494.628 510.57,494.443C510.375,494.237 510.126,494.154 509.865,494.087C509.773,494.064 509.66,494.052 509.598,493.992C509.34,493.738 509.068,493.791 508.806,493.95C508.212,494.311 507.561,494.509 506.891,494.662C506.566,494.735 506.36,494.929 506.18,495.208C505.898,495.646 505.651,496.105 505.381,496.55C505.244,496.776 505.057,496.933 504.765,497.01C504.361,497.117 503.952,497.045 503.557,497.132C502.897,497.277 502.235,497.25 501.569,497.219C501.401,497.211 501.224,497.129 501.065,497.226C500.564,497.528 500.065,497.831 499.491,497.954M523.952,492.224C524.296,491.942 524.384,491.395 524.117,490.983C523.947,490.719 523.826,490.437 523.697,490.157C523.486,489.704 523.167,489.333 522.806,488.994C522.715,488.909 522.589,488.824 522.494,488.855C522.201,488.95 521.927,488.807 521.65,488.821C520.909,488.859 520.317,488.456 519.708,488.156C519.212,487.912 518.735,487.623 518.222,487.412C517.739,487.212 517.097,487.355 516.783,487.753C516.301,488.362 515.682,488.641 514.925,488.763C514.221,488.877 513.61,489.208 513.346,489.956C513.283,490.135 513.238,490.347 513.073,490.456C512.452,490.867 512.273,491.563 511.937,492.158C511.801,492.399 511.71,492.651 511.678,492.994C512.137,492.834 512.392,492.506 512.636,492.189C512.953,491.778 513.287,491.398 513.775,491.186C514.118,491.038 514.458,490.884 514.802,490.741C515.391,490.494 516.003,490.766 516.229,491.365C516.274,491.485 516.334,491.597 516.391,491.712C516.761,492.461 516.307,493.372 515.5,493.497C515.01,493.573 514.924,493.673 514.917,494.192C515.063,494.22 515.225,494.126 515.354,494.207C515.801,494.486 516.392,494.538 516.754,494.892C517.276,495.402 517.892,495.754 518.472,496.167C518.76,496.372 518.98,496.613 519.159,496.908C519.201,496.98 519.26,497.053 519.329,497.097C519.664,497.305 519.732,497.627 519.729,497.985C519.727,498.188 519.73,498.391 519.734,498.594C519.739,498.842 519.856,499.007 520.075,499.131C520.315,499.267 520.567,499.253 520.823,499.256C521.108,499.258 521.314,499.406 521.246,499.686C521.108,500.257 521.508,500.487 521.849,500.796C522.206,500.658 522.511,500.843 522.831,500.952C522.991,501.005 523.144,501.078 523.326,500.992C523.888,500.725 524.042,500.374 523.869,499.773C523.71,499.222 523.421,498.737 523.157,498.3C523.103,497.869 523.496,497.51 523.167,497.116C522.899,496.793 522.597,496.571 522.178,496.638C521.827,496.075 521.94,494.825 522.36,494.338C522.699,494.316 522.841,494.44 522.873,494.786C522.901,495.079 522.825,495.379 522.914,495.659C523.074,495.756 523.257,495.663 523.404,495.787C523.47,495.902 523.466,496.044 523.451,496.18C523.421,496.465 523.493,496.695 523.71,496.897C523.906,497.079 524.036,497.31 524.14,497.565C524.272,497.891 524.456,498.205 524.724,498.434C525.028,498.693 525.432,498.842 525.536,499.374C525.827,498.963 525.963,498.597 526.078,498.223C526.181,497.891 526.132,497.592 525.874,497.338C525.704,497.172 525.545,496.984 525.492,496.754C525.403,496.376 525.138,496.184 524.826,496.027C524.693,495.959 524.555,495.903 524.428,495.846C524.391,495.724 524.36,495.624 524.343,495.568C524.21,495.372 524.003,495.415 523.863,495.312C523.853,494.998 524.145,494.933 524.31,494.761C524.317,494.549 524.159,494.44 524.035,494.314C523.821,494.092 523.824,493.87 523.979,493.664C524.116,493.586 524.231,493.687 524.365,493.574C524.467,493.079 523.855,492.761 523.952,492.224M496.977,498.569C496.916,490.197 503.848,483.175 512.44,483.197C520.812,483.217 527.515,489.933 527.814,497.999C528.149,507.007 520.984,513.744 513.055,514.048C504.014,514.394 496.882,507.045 496.977,498.569" style="fill:white;fill-rule:nonzero;"></path>
    </g>
</svg>
