<?xml version="1.0" encoding="UTF-8" standalone="no"?>
<svg xmlns="http://www.w3.org/2000/svg" xmlns:xlink="http://www.w3.org/1999/xlink" xmlns:serif="http://www.serif.com/" width="100%" height="100%" viewBox="0 0 46 66" version="1.1" xml:space="preserve" style="fill-rule:evenodd;clip-rule:evenodd;stroke-linejoin:round;stroke-miterlimit:2;">
  <g>
    <path d="M16.335,33.794c-0.603,0 -1.093,0.49 -1.093,1.093l-0,4.151c-0,0.604 0.49,1.094 1.093,1.094l11.613,-0c0.603,-0 1.093,-0.49 1.093,-1.094c0,-0.603 -0.49,-1.093 -1.093,-1.093l-10.52,0l0,-1.964l10.52,-0c0.603,-0 1.093,-0.49 1.093,-1.094l0,-4.151c0,-0.603 -0.49,-1.093 -1.093,-1.093l-11.613,-0c-0.603,-0 -1.093,0.49 -1.093,1.093c-0,0.604 0.49,1.093 1.093,1.093l10.519,0l0,1.965l-10.519,0Z" style="fill:#ec2127;fill-rule:nonzero;"></path>
    <path d="M21.349,46.247l-3.921,-0l0,-1.964l6.741,-0c0.603,-0 1.093,-0.49 1.093,-1.093c0,-0.604 -0.49,-1.094 -1.093,-1.094l-7.834,0c-0.603,0 -1.093,0.49 -1.093,1.094l-0,4.15c-0,0.604 0.49,1.093 1.093,1.093l5.014,0c0.604,0 1.094,-0.489 1.094,-1.093c-0,-0.603 -0.49,-1.093 -1.094,-1.093Z" style="fill:#ec2127;fill-rule:nonzero;"></path>
    <path d="M45.382,44.307c-1.563,-0.922 -3.202,-1.556 -4.869,-1.885c-1.148,-0.227 -2.324,-0.363 -3.497,-0.404c-0.494,-0.017 -0.999,-0.011 -1.501,0.016c-0.493,0.028 -0.993,0.079 -1.49,0.151c-0.281,0.042 -0.563,0.093 -0.844,0.15l0,-13.674c0,-1.747 -1.419,-3.169 -3.163,-3.169l-3.031,0l-0,-2.99c-0,-0.603 -0.49,-1.093 -1.093,-1.093l-7.505,-0c-0.603,-0 -1.093,0.49 -1.093,1.093l0,2.99l-3.031,0c-1.744,0 -3.163,1.422 -3.163,3.169l-0,29.056c-0,1.747 1.419,3.169 3.163,3.169l5.456,0c0.603,0 1.093,-0.49 1.093,-1.093c0,-0.603 -0.49,-1.093 -1.093,-1.093l-5.456,-0c-0.538,-0 -0.977,-0.441 -0.977,-0.983l0,-29.056c0,-0.542 0.439,-0.982 0.977,-0.982l15.753,-0c0.538,-0 0.977,0.44 0.977,0.982l-0,14.274c-1.172,0.413 -2.269,0.995 -3.259,1.742c-1,0.753 -1.874,1.655 -2.598,2.681c-0.723,1.024 -1.28,2.15 -1.655,3.346c-0.591,1.893 -0.544,3.961 0.132,5.824l0.598,1.651c0.022,0.063 0.052,0.12 0.084,0.175c-0.825,1.917 -1.367,3.955 -1.596,6.03c-0.067,0.6 0.366,1.14 0.967,1.206c0.041,0.004 0.081,0.007 0.121,0.007c0.55,-0 1.024,-0.415 1.085,-0.974c0.327,-2.972 1.373,-5.86 3.025,-8.352c0.951,-1.437 2.094,-2.736 3.395,-3.86c0.457,-0.395 0.508,-1.085 0.113,-1.542c-0.395,-0.457 -1.085,-0.507 -1.542,-0.113c-1.453,1.255 -2.728,2.704 -3.789,4.307c-0.147,0.221 -0.281,0.449 -0.42,0.676c-0.497,-1.405 -0.529,-2.959 -0.086,-4.382c0.307,-0.978 0.762,-1.899 1.354,-2.738c0.594,-0.84 1.31,-1.578 2.129,-2.196c0.838,-0.631 1.768,-1.124 2.765,-1.463c0.409,-0.139 0.831,-0.261 1.252,-0.363c0.421,-0.102 0.851,-0.185 1.276,-0.248c0.43,-0.063 0.865,-0.107 1.293,-0.131c0.434,-0.024 0.872,-0.029 1.301,-0.014c1.057,0.037 2.116,0.159 3.15,0.363c1.056,0.209 2.101,0.563 3.122,1.056c-1.443,2.13 -2.505,4.472 -3.163,6.975l-0.162,0.619c-0.482,1.837 -1.532,3.396 -2.957,4.388c-0.122,0.085 -0.246,0.167 -0.376,0.246c-0.116,0.072 -0.227,0.135 -0.33,0.186c-0.919,0.459 -1.899,0.77 -2.913,0.925c-0.501,0.077 -1.013,0.111 -1.523,0.114c-0.678,-0.002 -1.418,-0.101 -2.263,-0.302c-0.589,-0.14 -1.177,0.223 -1.316,0.81c-0.14,0.587 0.222,1.177 0.809,1.316c1.011,0.242 1.915,0.36 2.764,0.362l0.034,-0c0.611,-0 1.225,-0.047 1.826,-0.14c1.238,-0.189 2.435,-0.569 3.555,-1.128c0.155,-0.077 0.325,-0.172 0.499,-0.28c0.165,-0.101 0.327,-0.206 0.484,-0.316c1.849,-1.289 3.206,-3.288 3.82,-5.627l0.162,-0.618c0.693,-2.636 1.881,-5.073 3.533,-7.242c0.189,-0.248 0.263,-0.566 0.203,-0.873c-0.059,-0.306 -0.248,-0.573 -0.516,-0.731Zm-25.899,-20.712l5.317,0l0,1.897l-5.317,0l-0,-1.897Z" style="fill:#ec2127;fill-rule:nonzero;"></path>
    <path d="M16.335,52.584l3.567,0c0.604,0 1.094,-0.49 1.094,-1.093c-0,-0.604 -0.49,-1.094 -1.094,-1.094l-3.567,0c-0.603,0 -1.093,0.49 -1.093,1.094c-0,0.603 0.49,1.093 1.093,1.093Z" style="fill:#ec2127;fill-rule:nonzero;"></path>
    <path d="M20.198,54.549l-3.863,-0c-0.603,-0 -1.093,0.489 -1.093,1.093c-0,0.603 0.49,1.093 1.093,1.093l3.863,0c0.603,0 1.093,-0.49 1.093,-1.093c-0,-0.604 -0.49,-1.093 -1.093,-1.093Z" style="fill:#ec2127;fill-rule:nonzero;"></path>
    <path d="M2.187,22.195c-0,-5.345 2.076,-10.37 5.845,-14.149c3.769,-3.778 8.78,-5.859 14.109,-5.859c5.33,-0 10.341,2.081 14.11,5.859c3.769,3.779 5.845,8.803 5.845,14.149c0,5.346 -2.076,10.37 -5.845,14.149c-0.427,0.426 -0.426,1.119 0.001,1.545c0.214,0.214 0.493,0.32 0.773,0.32c0.28,-0 0.56,-0.108 0.774,-0.322c4.181,-4.191 6.484,-9.764 6.484,-15.693c-0,-5.928 -2.303,-11.501 -6.484,-15.692c-4.183,-4.193 -9.744,-6.502 -15.658,-6.502c-5.914,-0 -11.475,2.309 -15.657,6.502c-4.181,4.192 -6.484,9.765 -6.484,15.693c0,5.928 2.302,11.501 6.484,15.693c0.427,0.427 1.119,0.428 1.547,0.002c0.427,-0.426 0.428,-1.119 0.001,-1.546c-3.769,-3.779 -5.845,-8.804 -5.845,-14.149Z" style="fill:#ec2127;fill-rule:nonzero;"></path>
    <path d="M11.812,21.956c0,-5.696 4.634,-10.33 10.329,-10.33c5.696,0 10.33,4.634 10.33,10.33c-0,0.603 0.489,1.093 1.093,1.093c0.603,-0 1.093,-0.49 1.093,-1.093c0,-6.902 -5.614,-12.516 -12.516,-12.516c-6.901,-0 -12.515,5.614 -12.515,12.516c-0,0.603 0.489,1.093 1.093,1.093c0.603,-0 1.093,-0.489 1.093,-1.093Z" style="fill:#ec2127;fill-rule:nonzero;"></path>
    <path d="M21.048,5.102l0,1.558c0,0.603 0.49,1.093 1.093,1.093c0.604,-0 1.094,-0.49 1.094,-1.093l-0,-1.558c-0,-0.604 -0.49,-1.094 -1.094,-1.094c-0.603,0 -1.093,0.49 -1.093,1.094Z" style="fill:#ec2127;fill-rule:nonzero;"></path>
    <path d="M27.802,6.022l-0.606,1.436c-0.235,0.557 0.025,1.198 0.581,1.433c0.139,0.058 0.283,0.086 0.425,0.086c0.426,0 0.831,-0.251 1.007,-0.668l0.607,-1.436c0.235,-0.556 -0.025,-1.197 -0.581,-1.432c-0.556,-0.236 -1.198,0.024 -1.433,0.581Z" style="fill:#ec2127;fill-rule:nonzero;"></path>
    <path d="M33.481,9.346l-1.102,1.102c-0.427,0.427 -0.427,1.119 0,1.546c0.214,0.214 0.493,0.321 0.773,0.321c0.28,-0 0.56,-0.107 0.773,-0.321l1.102,-1.102c0.427,-0.427 0.427,-1.119 0,-1.546c-0.426,-0.427 -1.119,-0.427 -1.546,0Z" style="fill:#ec2127;fill-rule:nonzero;"></path>
    <path d="M37.501,14.557l-1.436,0.606c-0.557,0.236 -0.817,0.877 -0.582,1.433c0.176,0.417 0.581,0.668 1.008,0.668c0.141,0 0.285,-0.028 0.424,-0.086l1.436,-0.606c0.556,-0.235 0.816,-0.877 0.581,-1.433c-0.235,-0.556 -0.875,-0.818 -1.431,-0.582Z" style="fill:#ec2127;fill-rule:nonzero;"></path>
    <path d="M36.621,22.232c-0,0.604 0.489,1.093 1.093,1.093l1.558,0c0.603,0 1.093,-0.489 1.093,-1.093c0,-0.603 -0.49,-1.093 -1.093,-1.093l-1.558,-0c-0.604,-0 -1.093,0.489 -1.093,1.093Z" style="fill:#ec2127;fill-rule:nonzero;"></path>
    <path d="M36.065,29.301l1.436,0.606c0.139,0.059 0.283,0.087 0.424,0.087c0.427,-0 0.832,-0.251 1.008,-0.669c0.235,-0.556 -0.026,-1.197 -0.582,-1.432l-1.435,-0.607c-0.556,-0.233 -1.198,0.026 -1.433,0.582c-0.235,0.556 0.025,1.198 0.582,1.433Z" style="fill:#ec2127;fill-rule:nonzero;"></path>
    <path d="M15.048,5.441c-0.556,0.235 -0.817,0.876 -0.581,1.432l0.606,1.436c0.176,0.417 0.582,0.668 1.008,0.668c0.141,0 0.286,-0.028 0.425,-0.086c0.556,-0.235 0.816,-0.877 0.581,-1.433l-0.607,-1.436c-0.235,-0.557 -0.876,-0.817 -1.432,-0.581Z" style="fill:#ec2127;fill-rule:nonzero;"></path>
    <path d="M11.13,12.314c0.28,0 0.56,-0.107 0.773,-0.32c0.427,-0.427 0.427,-1.119 -0,-1.546l-1.102,-1.102c-0.426,-0.427 -1.12,-0.427 -1.546,-0c-0.427,0.427 -0.427,1.119 0,1.546l1.102,1.102c0.213,0.213 0.493,0.32 0.773,0.32Z" style="fill:#ec2127;fill-rule:nonzero;"></path>
    <path d="M8.218,15.163l-1.435,-0.606c-0.557,-0.236 -1.198,0.026 -1.433,0.581c-0.235,0.557 0.026,1.198 0.582,1.433l1.435,0.606c0.139,0.058 0.283,0.087 0.425,0.087c0.426,-0 0.831,-0.251 1.007,-0.669c0.236,-0.555 -0.025,-1.196 -0.581,-1.432Z" style="fill:#ec2127;fill-rule:nonzero;"></path>
    <path d="M5.011,23.325l1.558,0c0.603,0 1.093,-0.489 1.093,-1.093c0,-0.603 -0.49,-1.093 -1.093,-1.093l-1.558,-0c-0.603,-0 -1.093,0.49 -1.093,1.093c-0,0.604 0.489,1.093 1.093,1.093Z" style="fill:#ec2127;fill-rule:nonzero;"></path>
    <path d="M7.367,27.286l-1.435,0.607c-0.557,0.235 -0.817,0.876 -0.582,1.432c0.176,0.418 0.581,0.669 1.007,0.669c0.142,-0 0.286,-0.028 0.425,-0.087l1.436,-0.606c0.556,-0.235 0.816,-0.877 0.581,-1.433c-0.235,-0.555 -0.876,-0.815 -1.432,-0.582Z" style="fill:#ec2127;fill-rule:nonzero;"></path>
  </g>
</svg>
