<?xml version="1.0" encoding="UTF-8" standalone="no"?>
<svg xmlns="http://www.w3.org/2000/svg" xmlns:xlink="http://www.w3.org/1999/xlink" xmlns:serif="http://www.serif.com/" width="100%" height="100%" viewBox="0 0 53 72" version="1.1" xml:space="preserve" style="fill-rule:evenodd;clip-rule:evenodd;stroke-linejoin:round;stroke-miterlimit:2;">
  <g>
    <path d="M32.209,8.648l-1.342,-8.647l5.167,7.062l1.089,-4.472l1.087,4.472l5.168,-7.063l-1.342,8.648l3.932,-2.393l-2.392,3.932l8.647,-1.341l-7.063,5.168l4.473,1.089l-4.473,1.087l7.064,5.167l-8.648,-1.342l2.393,3.933l-3.933,-2.394l1.342,8.648l-5.168,-7.063l-1.089,4.473l-1.087,-4.473l-5.167,7.064l1.342,-8.649l-3.933,2.395l2.393,-3.934l-8.648,1.342l7.064,-5.167l-4.473,-1.089l4.473,-1.087l-7.064,-5.168l8.648,1.341l-2.394,-3.931l3.934,2.392Zm6.167,21.555l-0,21.383c-0,3.556 -2.908,6.462 -6.464,6.462l-3.815,0l1.064,-2.506l2.751,-0c2.172,-0 3.957,-1.784 3.957,-3.956l-0,-21.383l2.507,0Zm-16.951,12.79l-7.346,17.304l7.346,0l-0,11.069l7.345,-17.304l-7.345,-0l-0,-11.069Zm-14.167,-19.867l0,-4.019c0,-1.648 2.508,-1.648 2.508,0l-0,4.019l1.688,0l-0,6.464c-0,1.846 -1.974,3.355 -4.388,3.355l-0.085,0l-0,18.627c-0,2.177 1.776,3.97 3.956,3.97l4.143,-0l-1.066,2.506l-3.077,0c-3.551,0 -6.464,-2.928 -6.464,-6.476l0,-18.627l-0.085,0c-2.414,0 -4.388,-1.509 -4.388,-3.355l-0,-6.464l1.688,0l-0,-4.019c-0,-1.648 2.507,-1.648 2.507,0l0,4.019l3.063,0Zm29.864,-12.567c2.51,-0 4.543,2.033 4.543,4.543c0,2.509 -2.033,4.543 -4.543,4.543c-2.509,-0 -4.543,-2.034 -4.543,-4.543c0,-2.51 2.034,-4.543 4.543,-4.543Zm-2.186,-0.736c2.915,-1.208 6.257,0.176 7.465,3.092c1.208,2.915 -0.176,6.258 -3.092,7.466c-2.915,1.207 -6.258,-0.178 -7.466,-3.093c-1.207,-2.915 0.177,-6.258 3.093,-7.465Z" style="fill:#ec2127;"></path>
  </g>
</svg>
