<?xml version="1.0" encoding="UTF-8" standalone="no"?>
<svg xmlns="http://www.w3.org/2000/svg" xmlns:xlink="http://www.w3.org/1999/xlink" xmlns:serif="http://www.serif.com/" width="100%" height="100%" viewBox="0 0 2305 2305" version="1.1" xml:space="preserve" style="fill-rule:evenodd;clip-rule:evenodd;stroke-linejoin:round;stroke-miterlimit:2;">
  <g>
    <path d="M2304.58,981.368l-0,1233.31c-13.864,46.152 -44.171,75.859 -90.023,90.023l-117.029,-0c-72.199,-22.926 -97.585,-75.499 -89.843,-146.977l-1711.69,-0c-0,18.724 2.28,36.249 -0.42,52.933c-8.282,50.653 -42.071,78.62 -88.523,93.984l-117.029,-0c-45.792,-14.224 -76.159,-43.871 -90.023,-90.023l0,-1233.31c16.564,-48.072 46.512,-82.641 99.325,-88.042c32.648,-3.361 66.077,-2.881 98.785,-0c37.27,3.241 66.677,23.166 83.961,56.654c7.022,13.624 14.884,17.405 29.228,17.345c95.184,-0.54 190.428,-0.18 285.612,-0.3c5.461,-0 10.923,-1.201 17.945,-2.041c-2.641,-5.461 -4.022,-8.882 -5.822,-12.063c-79.34,-135.394 -107.907,-281.051 -77.3,-434.69c47.052,-236.28 186.588,-397.54 412.125,-481.382c50.593,-18.784 105.867,-24.846 158.98,-36.789l99.025,-0c30.188,5.101 60.675,8.702 90.443,15.544c413.865,94.944 618.156,560.902 407.923,929.575c-3.541,6.182 -6.602,12.543 -10.323,19.745c4.682,1.08 6.782,1.981 8.883,1.981c100.465,0.06 200.93,0.3 301.336,-0.541c6.662,-0.06 15.904,-6.841 19.445,-13.023c18.544,-32.768 45.191,-55.634 82.581,-59.115c35.589,-3.301 72.078,-3.661 107.547,0.18c51.073,5.642 78.56,41.231 94.884,87.022Zm-1153.13,-906.709c-308.238,0.84 -557.601,251.343 -556.821,559.401c0.781,306.438 251.644,555.801 558.502,555.141c309.198,-0.66 557.541,-251.044 556.82,-561.382c-0.72,-304.217 -252.903,-554 -558.501,-553.16Zm855.337,1859.93l-1708.21,0l-0,145.297l1708.21,0l-0,-145.297Zm-1708.93,-523.512l1708.09,-0l0,-144.817l-1708.09,0l0,144.817Zm1708.33,222.836l0,-145.777l-1707.73,0l0,145.777l1707.73,0Zm-1708.33,223.317l1708.27,-0l0,-145.237l-1708.27,0l0,145.237Zm-223.616,-258.366l-0,542.358c-0,17.224 -0.6,34.568 0.54,51.733c1.5,23.286 13.923,35.649 37.209,36.789c18.725,0.96 37.51,0.3 56.235,0.3c45.251,0 54.973,-9.842 54.973,-55.994l0,-1149.95c0,-7.502 0.18,-15.064 -0.78,-22.446c-2.82,-22.265 -14.583,-33.668 -36.969,-34.328c-24.726,-0.721 -49.513,-0.661 -74.239,-0.06c-21.065,0.54 -33.248,12.183 -35.889,33.008c-1.2,9.602 -0.96,19.445 -0.96,29.227c-0.12,189.828 -0.12,379.596 -0.12,569.364Zm2007.15,-0.84l0,573.865c0,7.502 -0.36,15.064 0.421,22.506c2.34,21.846 14.583,34.149 36.489,35.349c18.725,1.02 37.509,0.36 56.234,0.36c46.092,0 55.574,-9.302 55.574,-55.094c0.06,-384.097 0.12,-768.134 0.12,-1152.23c0,-8.222 0.36,-16.685 -1.5,-24.607c-1.621,-7.021 -4.741,-14.463 -9.423,-19.745c-14.763,-16.564 -113.068,-18.304 -125.791,-0.24c-8.223,11.643 -11.583,28.988 -11.643,43.811c-0.721,191.989 -0.481,383.978 -0.481,576.026Zm-1236.25,-409.964c-59.715,-38.349 -114.269,-80.18 -160.121,-132.573c-9.902,-11.283 -19.985,-15.484 -34.809,-15.364c-109.467,0.54 -218.995,0.3 -328.463,0.3l-23.165,0l-0,147.637l546.558,0Zm1160.99,-146.076c-3.961,-0.601 -6.781,-1.381 -9.602,-1.381c-116.97,-0.12 -233.999,-0.36 -350.969,0.36c-7.502,0.06 -16.204,6.002 -22.265,11.523c-23.706,21.786 -45.192,46.212 -70.038,66.437c-29.888,24.306 -62.356,45.371 -94.824,68.597l547.698,0l0,-145.536Z" style="fill:#ed272d;fill-rule:nonzero;"></path>
    <path d="M1349.74,150.338c-24.666,86.662 -48.732,171.343 -73.518,258.485l157.48,0c-117.69,252.304 -233.88,501.367 -350.069,750.37c-1.44,-0.3 -2.941,-0.6 -4.381,-0.9l-0,-450.834l-196.73,-0c15.484,-67.637 30.128,-132.394 45.132,-197.15c26.466,-114.449 53.173,-228.838 79.34,-343.287c2.58,-11.343 4.561,-18.664 19.145,-18.604c104.966,0.66 209.933,0.36 314.899,0.48c2.221,-0.06 4.381,0.66 8.702,1.44Zm-373.834,482.222l177.585,-0l-0,193.729c1.08,0.12 2.22,0.24 3.301,0.3c52.933,-113.549 105.806,-227.037 160.54,-344.427l-139.415,-0c24.726,-87.202 48.732,-171.643 73.579,-259.086c-39.791,0 -76.4,-0.36 -113.009,0.12c-22.266,0.301 -50.353,-5.881 -65.056,5.162c-13.564,10.202 -13.324,39.43 -18.185,60.495c-26.287,113.009 -52.213,226.017 -79.34,343.707Z" style="fill:#ed272d;fill-rule:nonzero;"></path>
  </g>
</svg>
