<?xml version="1.0" encoding="UTF-8" standalone="no"?>
<svg xmlns="http://www.w3.org/2000/svg" xmlns:xlink="http://www.w3.org/1999/xlink" xmlns:serif="http://www.serif.com/" width="100%" height="100%" viewBox="0 0 304 86" version="1.1" xml:space="preserve" style="fill-rule:evenodd;clip-rule:evenodd;stroke-linejoin:round;stroke-miterlimit:2;">
    <g transform="matrix(1,0,0,1,-9579.75,31.441)">
        <g transform="matrix(0.609715,0,0,0.686958,9443.37,-283.141)">
            <g>
                <g>
                    <g transform="matrix(1.60261,0,0,1.42241,253.143,472.477)">
                        <path d="M0,-66.636C-4.864,-65.255 -8.545,-62.595 -11.154,-58.483C-17.412,-48.623 -18.876,-37.091 -18.243,-25.938C-17.456,-19.768 -15.547,-15.394 -10.45,-13.061C-5.54,-10.814 -1.339,-11.657 2.125,-14.927C3.735,-16.445 5.33,-17.974 6.995,-19.431C7.56,-19.926 7.859,-21.138 8.955,-20.575C9.93,-20.076 9.771,-18.952 9.874,-18.088C10.489,-12.963 10.066,-7.99 9.847,-2.98C9.807,-2.101 9.176,-0.919 10.435,-0.265C11.675,0.379 12.411,-0.587 13.082,-1.342C14.777,-3.243 15.959,-5.521 16.141,-8.204C16.635,-15.427 16.966,-22.685 17.281,-29.944C17.333,-31.164 16.705,-32.405 15.499,-33.048C14.317,-33.676 13.188,-33.459 12.222,-32.74C10.875,-31.734 9.892,-30.402 8.9,-29.055C6.655,-26.006 4.81,-22.611 1.862,-20.158C-2.882,-16.212 -8.01,-18.136 -9.815,-24.728C-13.019,-36.434 -10.816,-46.808 -6.028,-56.456C-5.537,-57.444 -4.739,-58.277 -3.941,-59.032C-0.042,-62.728 4.738,-61.669 7.893,-56.428C9.092,-54.439 10.224,-52.409 11.943,-50.781C13,-49.782 14.218,-49.131 15.512,-49.624C16.875,-50.146 17.289,-51.308 17.204,-52.872C16.802,-60.161 9.109,-67.015 2.384,-66.968C1.57,-66.962 0.772,-66.856 0,-66.636" style="fill:rgb(236,33,39);fill-rule:nonzero;"></path>
                    </g>
                    <g transform="matrix(1.60261,0,0,1.42241,711.575,451.089)">
                        <path d="M0,-56.785C-2.348,-51.66 -4.584,-46.474 -6.92,-41.342C-8.429,-38.029 -8.509,-38.029 -11.069,-41.082C-13.658,-44.173 -16.14,-47.348 -18.729,-50.442C-19.746,-51.656 -20.854,-52.861 -22.459,-53.188C-23.486,-53.397 -24.48,-53.32 -25.123,-52.558C-25.912,-51.629 -24.821,-50.913 -24.352,-50.219C-21.686,-46.275 -18.929,-42.387 -16.275,-38.434C-11.743,-31.68 -11.74,-30.928 -15.667,-24.83C-18.933,-19.762 -22.366,-14.805 -24.684,-9.095C-25.039,-7.017 -25.388,-4.939 -25.743,-2.86C-25.656,-2.36 -25.535,-1.855 -25.496,-1.36C-25.389,0.009 -25.047,1.283 -23.635,2.016C-22.204,2.757 -21.449,1.69 -20.629,1.04C-18.248,-0.861 -16.011,-2.924 -14.44,-5.618C-14.035,-6.317 -13.343,-7.011 -13.861,-7.998C-14.311,-8.858 -14.863,-8.699 -15.495,-8.537C-15.87,-8.44 -16.273,-8.346 -16.705,-8.465C-14.946,-13.408 -12.872,-18 -10.535,-22.441C-10.201,-23.078 -9.665,-24.013 -9.128,-24.005C-8.17,-23.99 -7.726,-22.766 -7.455,-21.97C-5.399,-15.977 -2.238,-10.17 -2.589,-3.792C-2.72,-1.406 -1.389,1.097 1.072,1.831C3.246,2.484 4.428,0.6 5.223,-1.182C6.692,-4.469 6.317,-8.04 5.063,-11.643C2.841,-18.04 -0.868,-23.875 -3.926,-29.954C-4.861,-31.808 -5.033,-33.379 -4.443,-35.099C-3.209,-38.708 -1.418,-41.989 0.209,-45.366C1.678,-48.414 3.037,-51.512 3.4,-55.068C3.561,-56.632 3.927,-58.721 2.323,-59.452C2.19,-59.514 2.063,-59.542 1.942,-59.541C1.001,-59.535 0.462,-57.799 0,-56.785" style="fill:rgb(236,33,39);fill-rule:nonzero;"></path>
                    </g>
                    <g transform="matrix(1.60261,0,0,1.42241,653.746,407.424)">
                        <path d="M0,-10.745C-2.927,-9.669 -4.867,-7.531 -5.702,-4.423C-6.031,-3.194 -6.116,-1.819 -5.042,-0.762C-3.957,0.312 -2.596,0.107 -1.397,-0.217C1.784,-1.076 3.689,-4.765 3.213,-9.007C3.029,-10.592 2.279,-11.057 1.41,-11.051C0.953,-11.048 0.461,-10.915 0,-10.745" style="fill:rgb(35,31,32);fill-rule:nonzero;"></path>
                    </g>
                    <g transform="matrix(1.60257,-0.0101169,-0.0113985,-1.42238,641.755,391.855)">
                        <clipPath id="_clip1">
                            <path d="M8.893,0.042C8.436,0.043 7.942,-0.087 7.481,-0.253C4.546,-1.309 2.59,-3.433 1.734,-6.535C1.396,-7.761 1.301,-9.136 2.368,-10.2C3.445,-11.282 4.808,-11.087 6.009,-10.771C9.195,-9.935 11.128,-6.259 10.681,-2.014C10.509,-0.438 9.772,0.035 8.91,0.041C8.904,0.042 8.899,0.042 8.893,0.042Z" clip-rule="nonzero"></path>
                        </clipPath>
                        <g clip-path="url(#_clip1)">
                            <path d="M0.04,0.043L10.444,0.043L12.001,-11.282L1.597,-11.282L0.04,0.043Z" style="fill:rgb(35,31,32);fill-rule:nonzero;"></path>
                        </g>
                    </g>
                    <g transform="matrix(1.60261,0,0,1.42241,372.667,487.427)">
                        <path d="M0,-73.48C-2.499,-68.969 -4.735,-64.162 -5.146,-58.806C-5.486,-54.409 -7.314,-51.724 -10.251,-49.081C-15.653,-44.218 -20.773,-39.017 -25.17,-33.136C-25.916,-32.137 -26.671,-30.785 -28.401,-31.548C-30.108,-32.3 -30.36,-33.866 -30.505,-35.425C-30.587,-36.325 -30.691,-37.231 -30.885,-38.129C-31.522,-41.077 -32.726,-41.686 -34.94,-40.086C-37.573,-38.19 -39.672,-35.713 -41.945,-33.424C-43.068,-32.293 -44.037,-30.9 -46.239,-30.586C-44.669,-34.54 -42.104,-37.265 -39.656,-40.067C-37.41,-42.64 -34.958,-45.038 -33.316,-48.121C-32.698,-49.279 -31.889,-50.734 -33.071,-51.937C-34.374,-53.264 -35.623,-52.02 -36.661,-51.376C-43.595,-47.075 -48.658,-40.8 -53.886,-34.703C-54.366,-34.14 -54.501,-33.488 -53.991,-32.815C-52.47,-30.805 -52.469,-28.991 -53.414,-27.003C-54.154,-25.44 -53.722,-23.607 -52.157,-22.321C-50.584,-21.033 -48.939,-21.294 -47.479,-22.143C-45.459,-23.316 -43.814,-24.928 -42.227,-26.603C-40.433,-28.496 -38.641,-30.393 -36.722,-32.422C-34.943,-29.054 -34.376,-24.964 -29.778,-24.905C-26.166,-24.857 -24.613,-27.931 -22.262,-29.98C-21.686,-28.543 -22.167,-27.654 -22.33,-26.73C-22.662,-24.824 -22.828,-22.905 -20.855,-21.506C-18.67,-19.955 -16.931,-20.815 -15.36,-22.201C-12.557,-24.669 -10.664,-27.893 -8.572,-30.953C-7.531,-32.481 -6.464,-35.433 -5.487,-35.266C-3.538,-34.927 -3.071,-32.003 -1.904,-30.206C1.094,-25.589 6.327,-24.796 9.186,-28.611C10.068,-29.793 10.961,-30.962 12.011,-32.352C14.254,-29.263 15.395,-25.681 18.195,-23.36C20.509,-21.442 20.145,-20.109 19.023,-18.099C17.034,-14.53 14.219,-11.458 13.345,-7.193C12.795,-4.522 13.012,-1.788 15.207,0.485C17.123,2.471 19.601,3.008 21.917,2.43C28.288,0.834 32.024,-3.495 33.596,-9.853C34.288,-12.643 33.703,-15.637 31.573,-17.866C27.641,-21.981 28.14,-25.341 30.982,-28.695C31.395,-29.182 31.677,-29.795 32.001,-30.359C32.906,-31.945 33.677,-32.124 35.166,-30.222C38.495,-25.973 41.75,-25.007 46.304,-26.456C48.898,-27.285 50.883,-28.841 52.196,-31.212C52.069,-32.543 51.911,-33.863 50.228,-34.333C48.894,-33.691 47.576,-33.019 46.222,-32.417C44.143,-31.496 42.201,-32.098 40.571,-34.022C38.86,-36.045 40.673,-37.097 41.398,-38.355C43.211,-41.5 45.42,-44.401 46.458,-48.025C47.151,-50.436 46.634,-52.874 44.414,-54.635C42.514,-56.144 40.391,-55.781 39.088,-54.322C36.192,-51.083 33.236,-47.609 33.178,-42.771C33.095,-36.16 28.746,-32.454 25.676,-27.835C25.159,-27.061 24.558,-26.84 23.48,-27.563C19.097,-30.517 17.341,-36.847 19.974,-40.668C21.34,-42.654 22.83,-44.547 24.188,-46.54C25.492,-48.452 26.952,-50.268 27.639,-52.596C28.172,-54.414 27.377,-56.03 25.915,-57.211C24.535,-58.325 23.508,-57.21 22.609,-56.49C20.075,-54.451 18.233,-51.764 16.221,-49.226C13.029,-45.199 13.209,-39.172 9.406,-35.48C8.177,-34.284 7.582,-32.174 5.419,-32.547C2.966,-32.971 2.151,-35.283 1.307,-37.314C-0.684,-42.113 -0.083,-46.577 1.048,-51.024C2.746,-57.698 4.737,-64.28 5.034,-71.421C5.108,-73.173 5.551,-75.531 3.601,-76.325C3.321,-76.438 3.064,-76.488 2.827,-76.486C1.424,-76.477 0.669,-74.683 0,-73.48M39.995,-47.061C40.247,-47.471 40.71,-47.672 41.228,-47.32C41.773,-46.953 41.649,-46.452 41.517,-45.99C40.983,-44.151 39.873,-42.775 38.237,-41.065C37.932,-43.901 39.016,-45.465 39.995,-47.061M-6.27,-45.549C-7.302,-38.891 -10.594,-33.693 -15.499,-29.569C-13.752,-35.751 -10.784,-41.132 -6.27,-45.549M17.965,-4.688C18.727,-9.349 21.236,-13.06 23.617,-16.807C24.201,-17.725 25,-17.044 25.544,-16.338C26.593,-14.98 27.395,-13.518 27.514,-12.299C28.099,-8.195 24.368,-2.811 20.914,-2.178C20.6,-2.119 20.3,-2.089 20.021,-2.087C18.563,-2.077 17.666,-2.851 17.965,-4.688" style="fill:rgb(236,33,39);fill-rule:nonzero;"></path>
                    </g>
                    <g transform="matrix(1.60261,0,0,1.42241,476.199,454.691)">
                        <path d="M0,-43.374C-0.119,-43.12 -0.265,-42.862 -0.29,-42.578C-0.595,-39.126 -2.993,-38.463 -5.949,-38.602C-8.304,-38.714 -10.687,-39.069 -13.02,-39.045C-15.645,-39.02 -15.263,-36.884 -15.197,-34.941C-15.129,-32.918 -14.123,-32.237 -12.326,-32.209C-10.175,-32.175 -7.974,-31.874 -5.871,-32.043C-3.33,-32.247 -3.311,-31.208 -3.917,-29.386C-4.912,-26.396 -6.205,-23.588 -7.887,-21.018C-10.015,-17.759 -12.208,-14.548 -14.374,-11.318C-13.717,-10.277 -13.063,-9.236 -12.406,-8.197C-9.718,-11.285 -7.028,-14.371 -4.363,-17.431C-4.121,-16.408 -4.173,-15.261 -4.202,-14.081C-4.297,-10.055 -5.292,-6.156 -4.444,-1.988C-3.713,1.609 -0.58,3.018 1.975,0.934C2.61,0.418 3.089,-0.291 3.609,-0.936C8.142,-6.54 12.639,-12.172 17.221,-17.731C17.86,-18.507 18.417,-19.878 19.927,-19.182C21.377,-18.513 22.054,-17.147 22.262,-15.676C22.401,-14.685 22.433,-13.672 22.335,-12.715C22.006,-9.418 21.408,-6.178 21.277,-2.854C21.159,0.112 22.681,1.1 25.23,-0.051C27.542,-1.094 29.416,-2.75 31.29,-4.377C33.969,-6.709 36.58,-9.12 39.608,-11.851C39.651,-10.225 39.681,-9.153 39.709,-8.082C39.846,-2.978 43.866,0.37 48.654,-0.59C51.379,-1.133 53.404,-2.633 55.153,-4.605C55.531,-5.031 55.611,-6.284 56.82,-5.353C59.017,-3.666 60.548,-4.798 61.982,-6.014C63.959,-7.692 65.571,-9.724 67.067,-11.852C67.974,-13.139 68.748,-14.547 70.091,-15.429C70.509,-15.707 70.921,-16.21 71.626,-15.731C72.347,-15.243 72.085,-14.707 71.972,-14.143C71.478,-11.592 70.89,-9.066 70.558,-6.472C70.259,-4.136 69.278,-1.105 71.937,0.397C74.51,1.847 75.931,-0.934 77.367,-2.513C80.154,-5.588 82.626,-8.954 85.615,-11.849C86.903,-13.097 87.983,-13.058 89.249,-11.417C90.415,-9.909 91.551,-8.371 92.822,-6.954C95.18,-4.312 97.207,-4 99.454,-6.07C101.07,-7.562 102.423,-9.339 103.899,-10.982C105.099,-12.316 106.279,-12.703 107.589,-10.522C108.507,-8.992 109.526,-7.516 110.546,-6.041C112.342,-3.44 115.072,-2.256 117.633,-3.2C118.918,-3.674 119.971,-4.648 121.127,-5.392C122.448,-7.17 123.035,-9.177 122.186,-11.626C121.35,-11.773 121.081,-11.05 120.602,-10.673C117.599,-8.318 116.4,-8.718 114.821,-12.667C113.932,-14.884 113.246,-17.175 112.182,-19.317C110.638,-22.439 108.471,-22.884 106.432,-20.595C104.225,-18.119 101.998,-15.652 100.194,-12.815C98.974,-10.891 97.931,-11.011 96.494,-13.266C95.649,-14.592 95.007,-16.035 94.234,-17.404C92.123,-21.154 89.539,-21.979 86.367,-19.938C84.376,-18.663 83.219,-16.605 81.741,-14.837C80.557,-13.426 79.869,-11.501 77.608,-10.439C77.92,-12.082 78.081,-13.302 78.389,-14.463C79.106,-17.138 79.8,-19.826 79.939,-22.682C80.025,-24.415 79.678,-26.245 77.943,-27.281C76.213,-28.314 74.639,-27.636 73.418,-26.58C72.381,-25.686 71.473,-24.618 70.651,-23.51C67.883,-19.798 65.195,-16.024 62.433,-12.306C62.04,-11.774 61.598,-10.843 60.632,-11.564C59.857,-12.139 60.369,-12.815 60.594,-13.425C60.825,-14.045 61.071,-14.669 61.182,-15.331C61.728,-18.603 61.588,-21.927 58.875,-24.707C56.278,-27.363 53.717,-26.13 51.264,-25.135C51.126,-25.078 50.889,-25.21 50.716,-25.249C50.486,-26.156 51.54,-27.184 50.202,-27.931C49.034,-28.581 48.114,-28.13 47.39,-27.276C46.852,-26.641 46.279,-26.042 45.725,-25.425C40.975,-20.139 36.25,-14.83 31.457,-9.588C30.537,-8.583 29.607,-7.399 27.724,-7.384C28.073,-9.912 28.492,-12.082 28.651,-14.306C29.007,-19.27 26.716,-23.342 22.761,-26.712C21.071,-28.152 19.167,-28.412 17.486,-27.504C15.905,-26.652 13.81,-25.873 14.238,-23.484C14.57,-21.637 13.938,-20.443 13.135,-19.207C10.552,-15.214 7.601,-11.546 3.97,-8.513C3.442,-8.074 3.093,-7.071 2.188,-7.457C1.101,-7.924 1.375,-9.033 1.304,-9.875C0.695,-16.931 1.771,-23.619 2.938,-30.285C3.081,-31.089 3.358,-31.768 4.292,-31.824C6.255,-31.946 6.125,-33.348 6.196,-34.949C6.306,-37.292 4.185,-39.287 4.666,-41.647C4.982,-43.196 5.553,-45.253 3.41,-46.148C3.003,-46.319 2.658,-46.392 2.358,-46.39C0.91,-46.379 0.576,-44.603 0,-43.374M45.983,-8.854C46.122,-12.947 47.748,-16.507 51.184,-18.909C52.316,-19.7 53.677,-19.554 55.044,-18.591C56.444,-17.603 56.474,-16.258 56.297,-15.04C55.67,-10.747 53.325,-7.771 49.558,-6.086C49.137,-5.897 48.74,-5.803 48.376,-5.8C47.132,-5.791 46.255,-6.85 45.983,-8.854" style="fill:rgb(35,31,32);fill-rule:nonzero;"></path>
                    </g>
                    <g transform="matrix(1.48264,0,0,1.31593,451.083,479.017)">
                        <path d="M0,-10.348L-1.401,-10.348C-1.752,-10.348 -2.044,-10.077 -2.071,-9.727L-2.481,-4.343C-2.504,-4.054 -2.565,-3.795 -2.67,-3.564C-2.765,-3.348 -2.891,-3.166 -3.059,-3.005C-3.216,-2.851 -3.405,-2.732 -3.63,-2.643C-4.089,-2.463 -4.746,-2.463 -5.171,-2.64C-5.364,-2.716 -5.518,-2.823 -5.644,-2.966C-5.768,-3.106 -5.857,-3.274 -5.913,-3.473C-5.978,-3.708 -5.999,-3.967 -5.978,-4.243L-5.566,-9.62C-5.552,-9.806 -5.617,-9.991 -5.743,-10.127C-5.871,-10.264 -6.049,-10.343 -6.236,-10.343L-7.642,-10.343C-7.994,-10.343 -8.286,-10.072 -8.312,-9.722L-8.723,-4.339C-8.77,-3.732 -8.709,-3.161 -8.541,-2.64C-8.368,-2.099 -8.088,-1.627 -7.712,-1.235C-7.334,-0.838 -6.868,-0.53 -6.329,-0.322C-5.799,-0.109 -5.187,0 -4.508,0C-3.842,0 -3.221,-0.107 -2.664,-0.317C-2.101,-0.525 -1.602,-0.824 -1.186,-1.203C-0.761,-1.585 -0.421,-2.043 -0.182,-2.559C0.063,-3.066 0.211,-3.631 0.259,-4.241L0.259,-4.243L0.669,-9.626C0.684,-9.811 0.619,-9.996 0.493,-10.133C0.365,-10.269 0.187,-10.348 0,-10.348" style="fill:rgb(35,31,32);fill-rule:nonzero;"></path>
                    </g>
                    <g transform="matrix(1.48264,0,0,1.31593,466.629,478.872)">
                        <path d="M0,-10.244L-1.231,-10.244C-1.583,-10.244 -1.875,-9.973 -1.901,-9.623L-2.273,-4.723L-6.047,-9.751C-6.189,-9.938 -6.331,-10.06 -6.505,-10.142C-6.654,-10.209 -6.827,-10.239 -7.051,-10.239L-7.777,-10.239C-8.128,-10.239 -8.42,-9.968 -8.446,-9.618L-9.125,-0.722C-9.139,-0.536 -9.074,-0.351 -8.948,-0.215C-8.821,-0.078 -8.642,0 -8.455,0L-7.221,0C-6.869,0 -6.577,-0.271 -6.551,-0.62L-6.177,-5.536L-2.389,-0.482C-2.261,-0.328 -2.126,-0.217 -1.965,-0.133C-1.794,-0.047 -1.607,-0.005 -1.392,-0.005L-0.678,-0.005C-0.327,-0.005 -0.035,-0.276 -0.009,-0.626L0.67,-9.522C0.684,-9.707 0.619,-9.892 0.493,-10.029C0.366,-10.165 0.187,-10.244 0,-10.244" style="fill:rgb(35,31,32);fill-rule:nonzero;"></path>
                    </g>
                    <g transform="matrix(1.48264,0,0,1.31593,477.825,468.614)">
                        <path d="M0,5.331L-3.303,5.332L-2.765,-1.732C-2.751,-1.919 -2.815,-2.103 -2.943,-2.239C-3.069,-2.377 -3.248,-2.455 -3.435,-2.455L-4.842,-2.453C-5.194,-2.453 -5.486,-2.182 -5.512,-1.832L-6.19,7.064C-6.205,7.249 -6.14,7.435 -6.014,7.571C-5.886,7.707 -5.708,7.786 -5.521,7.786L-0.086,7.783C0.266,7.783 0.556,7.512 0.584,7.164L0.67,6.055C0.684,5.868 0.619,5.684 0.493,5.546C0.365,5.41 0.187,5.331 0,5.331" style="fill:rgb(35,31,32);fill-rule:nonzero;"></path>
                    </g>
                    <g transform="matrix(1.48264,0,0,1.31593,483.941,478.853)">
                        <path d="M0,-10.241L-1.417,-10.239C-1.768,-10.239 -2.06,-9.968 -2.086,-9.618L-2.765,-0.722C-2.779,-0.537 -2.714,-0.351 -2.588,-0.215C-2.461,-0.079 -2.282,0 -2.095,0L-0.679,-0.002C-0.327,-0.002 -0.035,-0.273 -0.009,-0.623L0.669,-9.518C0.684,-9.704 0.619,-9.889 0.493,-10.026C0.365,-10.162 0.187,-10.241 0,-10.241" style="fill:rgb(35,31,32);fill-rule:nonzero;"></path>
                    </g>
                    <g transform="matrix(1.48264,0,0,1.31593,502.762,478.849)">
                        <path d="M0,-10.246L-1.044,-10.246C-1.254,-10.246 -1.418,-10.222 -1.532,-10.182C-1.757,-10.112 -1.95,-9.954 -2.097,-9.724L-5.353,-4.797L-7.889,-9.676C-7.943,-9.77 -8.105,-10.061 -8.417,-10.163C-8.6,-10.23 -8.784,-10.239 -8.941,-10.239L-9.985,-10.239C-10.337,-10.239 -10.629,-9.968 -10.655,-9.619L-11.333,-0.723C-11.348,-0.537 -11.283,-0.352 -11.157,-0.215C-11.029,-0.079 -10.851,0 -10.664,0L-9.429,0C-9.078,0 -8.786,-0.271 -8.759,-0.621L-8.413,-5.173L-6.745,-1.931C-6.547,-1.485 -6.146,-1.229 -5.648,-1.229L-5.445,-1.229C-4.982,-1.233 -4.592,-1.455 -4.359,-1.836L-2.247,-5.049L-2.576,-0.728C-2.59,-0.54 -2.525,-0.357 -2.397,-0.221C-2.271,-0.082 -2.093,-0.005 -1.906,-0.005L-1.904,-0.005L-0.677,-0.007C-0.327,-0.007 -0.035,-0.278 -0.009,-0.628L0.67,-9.524C0.684,-9.709 0.619,-9.895 0.493,-10.031C0.366,-10.167 0.187,-10.246 0,-10.246" style="fill:rgb(35,31,32);fill-rule:nonzero;"></path>
                    </g>
                    <g transform="matrix(1.48264,0,0,1.31593,508.878,478.835)">
                        <path d="M0,-10.239L-1.417,-10.239C-1.768,-10.239 -2.06,-9.968 -2.086,-9.618L-2.765,-0.722C-2.779,-0.537 -2.714,-0.351 -2.588,-0.215C-2.46,-0.078 -2.282,0 -2.095,0L-0.679,0C-0.327,0 -0.035,-0.271 -0.009,-0.621L0.67,-9.517C0.684,-9.702 0.619,-9.887 0.493,-10.024C0.366,-10.16 0.187,-10.239 0,-10.239" style="fill:rgb(35,31,32);fill-rule:nonzero;"></path>
                    </g>
                    <g transform="matrix(1.48264,0,0,1.31593,523.053,478.831)">
                        <path d="M0,-10.243L-7.446,-10.236C-7.798,-10.236 -8.09,-9.965 -8.116,-9.615L-8.2,-8.515C-8.214,-8.33 -8.149,-8.144 -8.023,-8.008C-7.896,-7.872 -7.717,-7.793 -7.53,-7.793L-5.224,-7.795L-5.764,-0.723C-5.778,-0.537 -5.713,-0.352 -5.587,-0.216C-5.459,-0.079 -5.281,0 -5.094,0L-3.695,0C-3.344,0 -3.052,-0.272 -3.025,-0.621L-2.478,-7.797L-0.086,-7.798C0.266,-7.798 0.556,-8.068 0.584,-8.417L0.67,-9.519C0.684,-9.706 0.619,-9.89 0.493,-10.028C0.365,-10.164 0.187,-10.243 0,-10.243" style="fill:rgb(35,31,32);fill-rule:nonzero;"></path>
                    </g>
                    <g transform="matrix(1.48264,0,0,1.31593,535.794,478.823)">
                        <path d="M0,-10.244L-5.885,-10.239C-6.236,-10.239 -6.528,-9.968 -6.554,-9.618L-7.233,-0.722C-7.247,-0.537 -7.182,-0.351 -7.056,-0.215C-6.929,-0.078 -6.75,0 -6.563,0L-0.68,-0.005C-0.331,-0.005 -0.04,-0.273 -0.01,-0.621L0.081,-1.693C0.096,-1.88 0.032,-2.065 -0.094,-2.203C-0.222,-2.342 -0.402,-2.42 -0.589,-2.42L-4.344,-2.417L-4.225,-3.973L-1.25,-3.975C-0.899,-3.975 -0.607,-4.246 -0.581,-4.596L-0.502,-5.631C-0.488,-5.818 -0.553,-6.002 -0.679,-6.138C-0.806,-6.276 -0.984,-6.353 -1.171,-6.353L-4.045,-6.349L-3.931,-7.826L-0.082,-7.829C0.27,-7.829 0.562,-8.1 0.587,-8.45L0.67,-9.522C0.684,-9.707 0.619,-9.892 0.493,-10.029C0.366,-10.165 0.187,-10.244 0,-10.244" style="fill:rgb(35,31,32);fill-rule:nonzero;"></path>
                    </g>
                    <g transform="matrix(1.48264,0,0,1.31593,548.465,472.152)">
                        <path d="M0,-0.114C-0.033,0.339 -0.129,0.745 -0.284,1.089C-0.285,1.091 -0.285,1.093 -0.287,1.094C-0.432,1.427 -0.63,1.712 -0.873,1.939C-1.116,2.17 -1.394,2.342 -1.723,2.462C-2.063,2.588 -2.447,2.651 -2.861,2.651L-4.295,2.653L-3.881,-2.768L-2.345,-2.77C-1.933,-2.77 -1.565,-2.709 -1.254,-2.588C-0.965,-2.476 -0.722,-2.312 -0.528,-2.097C-0.333,-1.882 -0.192,-1.619 -0.098,-1.294C0.001,-0.957 0.035,-0.56 0,-0.114M2.546,-2.092C2.328,-2.73 1.986,-3.288 1.534,-3.751C1.081,-4.209 0.523,-4.566 -0.123,-4.811C-0.754,-5.054 -1.475,-5.178 -2.265,-5.178L-5.837,-5.175C-6.189,-5.175 -6.481,-4.904 -6.507,-4.554L-7.186,4.342C-7.2,4.528 -7.135,4.713 -7.009,4.849C-6.881,4.986 -6.703,5.064 -6.516,5.064L-2.943,5.061C-2.167,5.061 -1.434,4.938 -0.763,4.697C-0.091,4.45 0.503,4.104 1.011,3.66C1.518,3.209 1.931,2.669 2.238,2.046C2.542,1.42 2.726,0.727 2.782,-0.014C2.836,-0.758 2.759,-1.455 2.548,-2.085C2.548,-2.088 2.548,-2.09 2.546,-2.092" style="fill:rgb(35,31,32);fill-rule:nonzero;"></path>
                    </g>
                    <g transform="matrix(1.48264,0,0,1.31593,569.472,478.801)">
                        <path d="M0,-10.243L-7.446,-10.238C-7.798,-10.238 -8.09,-9.967 -8.116,-9.617L-8.2,-8.515C-8.214,-8.328 -8.149,-8.144 -8.022,-8.008C-7.896,-7.869 -7.717,-7.793 -7.53,-7.793L-5.226,-7.796L-5.766,-0.722C-5.78,-0.537 -5.715,-0.352 -5.589,-0.215C-5.461,-0.079 -5.283,0 -5.096,0L-3.695,-0.002C-3.344,-0.002 -3.052,-0.273 -3.025,-0.623L-2.478,-7.796L-0.084,-7.8C0.268,-7.8 0.56,-8.071 0.585,-8.421L0.669,-9.52C0.684,-9.706 0.619,-9.891 0.493,-10.028C0.365,-10.164 0.187,-10.243 0,-10.243" style="fill:rgb(35,31,32);fill-rule:nonzero;"></path>
                    </g>
                    <g transform="matrix(1.48264,0,0,1.31593,582.212,478.792)">
                        <path d="M0,-10.243L-5.885,-10.24C-6.236,-10.24 -6.528,-9.969 -6.554,-9.618L-7.233,-0.722C-7.247,-0.537 -7.182,-0.352 -7.056,-0.216C-6.929,-0.079 -6.75,0 -6.563,0L-0.679,-0.004C-0.329,-0.004 -0.039,-0.271 -0.009,-0.619L0.081,-1.692C0.096,-1.879 0.031,-2.064 -0.096,-2.202C-0.222,-2.34 -0.402,-2.419 -0.589,-2.419L-4.342,-2.415L-4.223,-3.972L-1.25,-3.975C-0.899,-3.975 -0.608,-4.244 -0.581,-4.595L-0.5,-5.628C-0.486,-5.815 -0.549,-5.999 -0.677,-6.137C-0.805,-6.273 -0.983,-6.352 -1.17,-6.352L-4.043,-6.35L-3.93,-7.825L-0.082,-7.828C0.269,-7.828 0.562,-8.099 0.587,-8.449L0.67,-9.521C0.684,-9.706 0.619,-9.891 0.493,-10.028C0.365,-10.164 0.187,-10.243 0,-10.243" style="fill:rgb(35,31,32);fill-rule:nonzero;"></path>
                    </g>
                    <g transform="matrix(1.48264,0,0,1.31593,595.679,478.281)">
                        <path d="M0,-9.601C-1.18,-10.078 -2.891,-10.073 -4.188,-9.578C-4.854,-9.323 -5.444,-8.962 -5.94,-8.51C-6.442,-8.055 -6.852,-7.502 -7.158,-6.871C-7.464,-6.242 -7.647,-5.54 -7.705,-4.787C-7.763,-4.033 -7.691,-3.33 -7.494,-2.697C-7.289,-2.044 -6.971,-1.476 -6.544,-1.009C-6.117,-0.537 -5.579,-0.166 -4.942,0.098C-4.321,0.35 -3.615,0.477 -2.847,0.477C-1.976,0.477 -1.203,0.341 -0.551,0.073C0.105,-0.196 0.684,-0.582 1.168,-1.078C1.417,-1.331 1.425,-1.733 1.187,-1.997L0.675,-2.567C0.409,-2.859 0.061,-2.989 -0.439,-2.779C-0.486,-2.756 -0.65,-2.658 -0.691,-2.625C-0.829,-2.513 -0.971,-2.414 -1.105,-2.336C-1.24,-2.261 -1.378,-2.198 -1.518,-2.153C-1.673,-2.102 -1.836,-2.063 -2.021,-2.039C-2.511,-1.969 -3.172,-1.98 -3.653,-2.179C-3.94,-2.294 -4.172,-2.455 -4.368,-2.674C-4.568,-2.893 -4.718,-3.167 -4.818,-3.491L-4.818,-3.493C-4.924,-3.831 -4.959,-4.234 -4.926,-4.687C-4.893,-5.131 -4.795,-5.539 -4.636,-5.899C-4.485,-6.236 -4.286,-6.526 -4.045,-6.757C-3.802,-6.99 -3.525,-7.163 -3.198,-7.289C-2.604,-7.518 -1.768,-7.515 -1.318,-7.385C-1.104,-7.32 -0.93,-7.252 -0.792,-7.175C-0.652,-7.1 -0.544,-7.036 -0.442,-6.956C-0.028,-6.66 0.416,-6.649 0.77,-6.857C0.834,-6.895 1.011,-7.053 1.06,-7.112L1.57,-7.728C1.794,-7.999 1.771,-8.399 1.516,-8.643C1.098,-9.039 0.589,-9.361 0,-9.601" style="fill:rgb(35,31,32);fill-rule:nonzero;"></path>
                    </g>
                    <g transform="matrix(1.48264,0,0,1.31593,612.792,478.775)">
                        <path d="M0,-10.246L-1.412,-10.245C-1.763,-10.245 -2.055,-9.973 -2.081,-9.623L-2.333,-6.317L-5.939,-6.313L-5.694,-9.518C-5.68,-9.705 -5.745,-9.889 -5.873,-10.026C-5.999,-10.164 -6.177,-10.241 -6.364,-10.241L-7.78,-10.239C-8.132,-10.239 -8.424,-9.968 -8.45,-9.618L-9.129,-0.722C-9.143,-0.537 -9.078,-0.351 -8.952,-0.215C-8.824,-0.079 -8.646,0 -8.459,0L-7.042,0C-6.691,0 -6.399,-0.271 -6.373,-0.621L-6.114,-4.01L-2.508,-4.014L-2.76,-0.727C-2.774,-0.542 -2.709,-0.357 -2.583,-0.221C-2.456,-0.084 -2.277,-0.005 -2.09,-0.005L-0.679,-0.005C-0.327,-0.005 -0.035,-0.276 -0.009,-0.626L0.669,-9.524C0.684,-9.709 0.619,-9.894 0.493,-10.031C0.365,-10.167 0.187,-10.246 0,-10.246" style="fill:rgb(35,31,32);fill-rule:nonzero;"></path>
                    </g>
                    <g transform="matrix(1.48264,0,0,1.31593,628.338,478.764)">
                        <path d="M0,-10.244L-1.229,-10.244C-1.581,-10.244 -1.873,-9.973 -1.899,-9.623L-2.271,-4.722L-6.039,-9.739C-6.168,-9.919 -6.313,-10.05 -6.514,-10.148C-6.663,-10.211 -6.833,-10.239 -7.051,-10.239L-7.777,-10.239C-8.128,-10.239 -8.42,-9.968 -8.446,-9.618L-9.125,-0.722C-9.139,-0.537 -9.074,-0.351 -8.948,-0.215C-8.821,-0.078 -8.643,0 -8.455,0L-7.217,0C-6.866,0 -6.574,-0.271 -6.547,-0.621L-6.173,-5.533L-2.378,-0.471C-2.292,-0.372 -2.158,-0.233 -1.974,-0.138C-1.805,-0.051 -1.611,-0.005 -1.392,-0.005L-0.679,-0.005C-0.327,-0.005 -0.035,-0.276 -0.009,-0.626L0.67,-9.522C0.684,-9.707 0.619,-9.893 0.493,-10.029C0.366,-10.165 0.187,-10.244 0,-10.244" style="fill:rgb(35,31,32);fill-rule:nonzero;"></path>
                    </g>
                    <g transform="matrix(1.48264,0,0,1.31593,656.578,468.497)">
                        <path d="M0,5.329L-3.303,5.332L-2.763,-1.733C-2.749,-1.918 -2.813,-2.104 -2.939,-2.24C-3.067,-2.376 -3.246,-2.455 -3.433,-2.455L-4.846,-2.455C-5.197,-2.455 -5.489,-2.184 -5.516,-1.834L-6.192,7.062C-6.206,7.249 -6.142,7.433 -6.016,7.569C-5.888,7.705 -5.709,7.784 -5.522,7.784L-0.084,7.781C0.268,7.781 0.56,7.51 0.586,7.16L0.67,6.051C0.684,5.864 0.619,5.68 0.492,5.544C0.366,5.406 0.187,5.329 0,5.329" style="fill:rgb(35,31,32);fill-rule:nonzero;"></path>
                    </g>
                    <g transform="matrix(1.48264,0,0,1.31593,688.889,477.734)">
                        <path d="M0,-8.827C-0.262,-8.988 -0.552,-9.128 -0.86,-9.24C-1.168,-9.353 -1.502,-9.439 -1.869,-9.502C-2.924,-9.674 -4.284,-9.584 -5.304,-9.219C-5.996,-8.971 -6.61,-8.616 -7.133,-8.159C-7.651,-7.702 -8.07,-7.147 -8.376,-6.51C-8.681,-5.889 -8.864,-5.184 -8.924,-4.418C-8.981,-3.653 -8.897,-2.943 -8.677,-2.306C-8.448,-1.654 -8.091,-1.084 -7.614,-0.613C-7.137,-0.144 -6.547,0.221 -5.863,0.471C-5.187,0.721 -4.417,0.847 -3.578,0.847C-2.878,0.847 -2.212,0.758 -1.6,0.581C-0.988,0.404 -0.393,0.135 0.168,-0.222C0.345,-0.335 0.46,-0.526 0.476,-0.738L0.74,-4.207C0.754,-4.394 0.689,-4.577 0.562,-4.714C0.436,-4.852 0.257,-4.929 0.07,-4.929L-2.908,-4.926C-3.259,-4.926 -3.55,-4.655 -3.578,-4.306L-3.636,-3.553C-3.655,-3.278 -3.559,-3.023 -3.347,-2.82C-3.165,-2.656 -3.017,-2.561 -2.688,-2.574L-2.011,-2.574L-2.067,-1.836C-2.097,-1.824 -2.125,-1.813 -2.154,-1.803C-2.286,-1.75 -2.422,-1.708 -2.572,-1.673C-2.719,-1.636 -2.871,-1.612 -3.021,-1.591C-3.181,-1.572 -3.352,-1.561 -3.536,-1.561C-3.94,-1.519 -4.4,-1.624 -4.756,-1.753C-5.09,-1.878 -5.354,-2.045 -5.568,-2.273C-5.776,-2.49 -5.935,-2.769 -6.037,-3.102C-6.037,-3.103 -6.038,-3.107 -6.038,-3.109C-6.146,-3.446 -6.185,-3.854 -6.15,-4.317C-6.117,-4.756 -6.019,-5.155 -5.865,-5.501C-5.713,-5.833 -5.507,-6.123 -5.255,-6.361C-5,-6.601 -4.706,-6.779 -4.356,-6.909C-3.758,-7.129 -2.918,-7.148 -2.391,-7.045C-2.175,-7.003 -1.992,-6.954 -1.85,-6.904C-1.71,-6.848 -1.586,-6.793 -1.472,-6.72L-1.108,-6.505C-0.843,-6.342 -0.543,-6.291 -0.28,-6.36C-0.021,-6.423 0.203,-6.573 0.359,-6.788L0.808,-7.381C1.018,-7.659 0.981,-8.051 0.724,-8.284C0.502,-8.484 0.263,-8.668 0,-8.827" style="fill:rgb(35,31,32);fill-rule:nonzero;"></path>
                    </g>
                    <g transform="matrix(1.48264,0,0,1.31593,695.411,478.713)">
                        <path d="M0,-10.241L-1.417,-10.239C-1.768,-10.239 -2.06,-9.968 -2.086,-9.618L-2.765,-0.722C-2.779,-0.537 -2.714,-0.352 -2.588,-0.216C-2.46,-0.079 -2.282,0 -2.095,0L-0.679,-0.002C-0.327,-0.002 -0.035,-0.273 -0.009,-0.623L0.669,-9.519C0.684,-9.704 0.619,-9.889 0.493,-10.026C0.365,-10.162 0.187,-10.241 0,-10.241" style="fill:rgb(35,31,32);fill-rule:nonzero;"></path>
                    </g>
                    <g transform="matrix(1.48264,0,0,1.31593,708.151,478.708)">
                        <path d="M0,-10.244L-5.885,-10.239C-6.236,-10.239 -6.528,-9.968 -6.554,-9.618L-7.233,-0.722C-7.247,-0.537 -7.182,-0.351 -7.056,-0.215C-6.929,-0.078 -6.75,0 -6.563,0L-0.679,-0.005C-0.329,-0.005 -0.039,-0.273 -0.009,-0.621L0.081,-1.691C0.096,-1.878 0.031,-2.063 -0.096,-2.202C-0.222,-2.34 -0.402,-2.418 -0.589,-2.418L-4.342,-2.415L-4.223,-3.972L-1.25,-3.975C-0.899,-3.975 -0.607,-4.246 -0.581,-4.596L-0.502,-5.631C-0.488,-5.818 -0.553,-6.002 -0.679,-6.138C-0.806,-6.276 -0.984,-6.353 -1.172,-6.353L-4.043,-6.349L-3.93,-7.826L-0.082,-7.829C0.27,-7.829 0.562,-8.1 0.587,-8.45L0.67,-9.522C0.684,-9.707 0.619,-9.892 0.493,-10.029C0.366,-10.165 0.187,-10.244 0,-10.244" style="fill:rgb(35,31,32);fill-rule:nonzero;"></path>
                    </g>
                    <g transform="matrix(1.48264,0,0,1.31593,715.686,475.229)">
                        <path d="M0,-5.03C0.085,-5.1 0.199,-5.155 0.329,-5.197C0.629,-5.296 1.142,-5.29 1.408,-5.201C1.616,-5.133 1.742,-5.072 1.812,-5.03C1.936,-4.956 2.041,-4.893 2.128,-4.83C2.537,-4.544 3.011,-4.556 3.322,-4.762C3.475,-4.859 3.58,-4.983 3.686,-5.13L4.076,-5.756C4.244,-6.025 4.2,-6.373 3.973,-6.593C3.601,-6.952 3.147,-7.232 2.621,-7.426C2.116,-7.608 1.556,-7.7 0.958,-7.7C0.398,-7.767 -0.123,-7.62 -0.576,-7.452C-1.028,-7.287 -1.427,-7.064 -1.761,-6.782C-2.097,-6.497 -2.364,-6.163 -2.559,-5.791C-2.756,-5.415 -2.872,-5.018 -2.903,-4.607C-2.94,-4.103 -2.887,-3.68 -2.742,-3.305C-2.597,-2.944 -2.385,-2.634 -2.109,-2.381C-1.857,-2.155 -1.565,-1.969 -1.235,-1.826C-0.953,-1.707 -0.665,-1.602 -0.364,-1.509L0.453,-1.265C0.659,-1.203 0.848,-1.127 1.009,-1.039C1.126,-0.974 1.212,-0.901 1.264,-0.827C1.282,-0.801 1.297,-0.735 1.289,-0.621C1.278,-0.48 1.245,-0.355 1.191,-0.249C1.135,-0.14 1.062,-0.051 0.972,0.022C0.869,0.103 0.74,0.167 0.582,0.217C0.205,0.334 -0.362,0.316 -0.665,0.202C-0.869,0.124 -1.032,0.047 -1.16,-0.035C-1.307,-0.128 -1.429,-0.216 -1.53,-0.298C-1.95,-0.623 -2.443,-0.634 -2.763,-0.448C-2.895,-0.378 -3.012,-0.285 -3.148,-0.121L-3.599,0.514C-3.783,0.771 -3.76,1.124 -3.545,1.357C-3.342,1.579 -3.111,1.775 -2.866,1.937C-2.618,2.105 -2.343,2.25 -2.055,2.366C-1.768,2.483 -1.464,2.575 -1.133,2.64C-0.81,2.703 -0.474,2.737 -0.126,2.737C0.46,2.735 1,2.645 1.474,2.474C1.953,2.304 2.38,2.06 2.747,1.743C3.104,1.43 3.391,1.059 3.597,0.641C3.807,0.223 3.931,-0.233 3.968,-0.714C4.004,-1.184 3.943,-1.606 3.788,-1.963C3.637,-2.309 3.426,-2.604 3.153,-2.845C2.901,-3.066 2.612,-3.25 2.294,-3.389C2.011,-3.515 1.722,-3.626 1.423,-3.723L0.615,-3.979C0.398,-4.049 0.205,-4.124 0.033,-4.218C-0.084,-4.283 -0.17,-4.353 -0.224,-4.426C-0.226,-4.43 -0.247,-4.573 -0.249,-4.575C-0.242,-4.67 -0.219,-4.748 -0.179,-4.825C-0.137,-4.902 -0.079,-4.968 0,-5.03" style="fill:rgb(35,31,32);fill-rule:nonzero;"></path>
                    </g>
                    <g transform="matrix(1.48264,0,0,1.31593,670.463,472.05)">
                        <path d="M0,-0.097C-0.035,0.361 -0.129,0.767 -0.283,1.106C-0.285,1.108 -0.285,1.111 -0.287,1.113C-0.434,1.449 -0.629,1.736 -0.871,1.965C-1.114,2.195 -1.402,2.374 -1.728,2.496C-2.396,2.747 -3.323,2.75 -3.956,2.5C-4.241,2.39 -4.482,2.225 -4.683,2.007C-4.877,1.794 -5.022,1.521 -5.117,1.197C-5.217,0.861 -5.25,0.463 -5.215,0.01C-5.182,-0.438 -5.085,-0.844 -4.93,-1.192C-4.778,-1.536 -4.583,-1.816 -4.342,-2.047C-4.087,-2.286 -3.804,-2.463 -3.479,-2.585C-3.139,-2.713 -2.756,-2.778 -2.343,-2.78C-1.933,-2.78 -1.569,-2.717 -1.257,-2.591C-0.963,-2.473 -0.724,-2.311 -0.528,-2.091C-0.333,-1.874 -0.19,-1.61 -0.098,-1.283C0.002,-0.942 0.035,-0.543 0,-0.097M2.55,-2.089C2.333,-2.736 1.995,-3.303 1.546,-3.776C1.098,-4.245 0.542,-4.616 -0.103,-4.874C-0.733,-5.13 -1.452,-5.259 -2.238,-5.259C-3.059,-5.266 -3.771,-5.134 -4.44,-4.878C-5.119,-4.623 -5.717,-4.261 -6.213,-3.806C-6.717,-3.349 -7.13,-2.797 -7.437,-2.162C-7.745,-1.531 -7.931,-0.833 -7.988,-0.09C-8.046,0.664 -7.966,1.368 -7.75,2.005C-7.534,2.649 -7.198,3.215 -6.749,3.691C-6.303,4.161 -5.745,4.532 -5.091,4.791C-4.454,5.041 -3.739,5.169 -2.966,5.169L-2.948,5.169C-2.167,5.169 -1.432,5.043 -0.761,4.791C-0.091,4.537 0.505,4.179 1.013,3.72C1.518,3.26 1.931,2.708 2.238,2.075C2.539,1.452 2.723,0.757 2.782,0.003C2.836,-0.735 2.759,-1.436 2.553,-2.082C2.551,-2.083 2.55,-2.087 2.55,-2.089" style="fill:rgb(35,31,32);fill-rule:nonzero;"></path>
                    </g>
                    <g transform="matrix(1.48264,0,0,1.31593,642.227,472.076)">
                        <path d="M0,-0.103C-0.035,0.352 -0.129,0.757 -0.283,1.102C-0.285,1.104 -0.285,1.105 -0.287,1.107C-0.432,1.438 -0.629,1.726 -0.878,1.962C-1.116,2.191 -1.402,2.368 -1.731,2.49C-2.403,2.742 -3.333,2.742 -3.956,2.494C-4.244,2.382 -4.484,2.219 -4.683,2.001C-4.879,1.784 -5.024,1.513 -5.117,1.193C-5.217,0.855 -5.25,0.457 -5.215,0.003C-5.182,-0.444 -5.085,-0.85 -4.928,-1.2C-4.781,-1.535 -4.583,-1.824 -4.34,-2.055C-4.094,-2.289 -3.805,-2.469 -3.477,-2.592C-3.141,-2.719 -2.76,-2.784 -2.343,-2.786C-1.936,-2.786 -1.57,-2.723 -1.259,-2.597C-0.964,-2.479 -0.726,-2.317 -0.532,-2.097C-0.334,-1.878 -0.189,-1.607 -0.098,-1.289C0.001,-0.948 0.035,-0.549 0,-0.103M1.546,-3.783C1.098,-4.253 0.541,-4.622 -0.107,-4.881C-0.738,-5.136 -1.455,-5.266 -2.238,-5.266L-2.256,-5.266C-3.04,-5.266 -3.775,-5.136 -4.442,-4.884C-5.113,-4.632 -5.711,-4.27 -6.219,-3.811C-6.717,-3.354 -7.128,-2.803 -7.441,-2.168C-7.75,-1.535 -7.936,-0.837 -7.99,-0.096C-8.048,0.656 -7.967,1.36 -7.752,2.001C-7.532,2.646 -7.196,3.211 -6.75,3.687C-6.299,4.159 -5.743,4.527 -5.092,4.786C-4.454,5.037 -3.734,5.163 -2.95,5.163C-2.17,5.163 -1.436,5.037 -0.766,4.786C-0.096,4.535 0.502,4.174 1.013,3.714C1.521,3.248 1.934,2.695 2.237,2.069C2.539,1.441 2.721,0.743 2.779,-0.002C2.836,-0.747 2.758,-1.45 2.548,-2.091C2.334,-2.737 1.997,-3.305 1.546,-3.783" style="fill:rgb(35,31,32);fill-rule:nonzero;"></path>
                    </g>
                </g>
            </g>
        </g>
    </g>
</svg>
