<?xml version="1.0" encoding="UTF-8" standalone="no"?>
<svg xmlns="http://www.w3.org/2000/svg" xmlns:xlink="http://www.w3.org/1999/xlink" xmlns:serif="http://www.serif.com/" width="100%" height="100%" viewBox="0 0 164 199" version="1.1" xml:space="preserve" style="fill-rule:evenodd;clip-rule:evenodd;stroke-linejoin:round;stroke-miterlimit:2;">
    <g transform="matrix(1,0,0,1,-1645.19,-196.158)">
        <g transform="matrix(0.301174,0,0,0.301174,679.066,297.753)">
            <g transform="matrix(4.16667,0,0,4.16667,3207.89,-103.169)">
                <path d="M0,20.48C1.336,6.08 5.519,-8.77 15.724,-21.407C19.983,-26.682 25.38,-30.075 32.096,-31.793C41.933,-34.329 53.188,-24.368 52.184,-13.824C51.997,-11.801 51.215,-10.305 49.313,-9.651C47.504,-9.03 46.017,-9.886 44.815,-11.185C42.854,-13.316 41.746,-15.948 40.556,-18.522C37.387,-25.332 31.267,-26.752 25.386,-22.035C24.178,-21.071 22.964,-20.006 22.119,-18.737C13.903,-6.347 8.961,7.006 10.922,22.147C12.025,30.682 18.443,33.225 25.491,28.19C29.873,25.07 32.982,20.709 36.559,16.802C38.128,15.071 39.692,13.366 41.664,12.091C43.082,11.172 44.622,10.905 46.069,11.73C47.54,12.573 48.123,14.19 47.819,15.756C45.987,25.121 44.132,34.48 42.079,43.802C41.314,47.251 39.295,50.18 36.688,52.608C35.649,53.573 34.494,54.809 32.977,53.966C31.43,53.109 32.492,51.587 32.714,50.459C33.986,43.999 35.521,37.582 35.701,30.961C35.736,29.852 36.162,28.4 34.972,27.746C33.63,27.005 32.994,28.559 32.142,29.198C29.668,31.056 27.247,33.01 24.826,34.943C19.604,39.115 13.868,40.162 7.806,37.194C1.511,34.119 -0.164,28.457 0,20.48" style="fill:rgb(236,33,39);fill-rule:nonzero;"></path>
            </g>
            <g transform="matrix(4.16667,0,0,4.16667,3388.2,-298.773)">
                <path d="M0,146.301C7.953,143.18 13.764,136.2 18.962,129.301C20.316,127.507 22.411,125.75 21.43,123.182C20.059,119.625 17.02,122.752 14.09,121.902C20.666,109.207 27.936,97.432 35.842,86.038C36.991,84.415 38.759,82.018 40.183,82.05C42.703,82.113 43.409,85.277 43.812,87.332C46.915,102.822 53.013,117.869 49.605,134.298C48.333,140.454 50.871,146.928 57.103,148.882C62.587,150.613 66.455,145.793 69.256,141.222C74.408,132.789 74.816,123.588 72.908,114.254C69.519,97.724 61.975,82.583 56.251,66.844C54.512,62.045 54.658,57.993 56.887,53.58C61.555,44.309 67.558,35.902 73.183,27.234C78.265,19.416 83.061,11.458 85.418,2.315C86.444,-1.718 88.218,-7.088 84.269,-9.016C81.345,-10.437 78.906,-5.129 77.074,-2.2C68.871,10.945 60.941,24.266 52.768,37.429C47.487,45.933 47.277,45.933 41.688,37.994C36.052,29.961 30.713,21.712 25.077,13.684C22.86,10.532 20.397,7.401 16.272,6.512C13.641,5.947 10.98,6.126 8.985,8.066C6.535,10.443 9.143,12.308 10.123,14.121C15.637,24.355 21.413,34.425 26.886,44.684C36.244,62.21 35.964,64.137 23.192,79.754C12.597,92.747 1.569,105.422 -6.768,120.088C-6.768,120.088 -26.576,156.738 0,146.301" style="fill:rgb(236,33,39);fill-rule:nonzero;"></path>
            </g>
        </g>
    </g>
</svg>
