<?xml version="1.0" encoding="UTF-8" standalone="no"?>
<svg xmlns="http://www.w3.org/2000/svg" xmlns:xlink="http://www.w3.org/1999/xlink" xmlns:serif="http://www.serif.com/" width="100%" height="100%" viewBox="0 0 74 55" version="1.1" xml:space="preserve" style="fill-rule:evenodd;clip-rule:evenodd;stroke-linejoin:round;stroke-miterlimit:2;">
  <g>
    <path d="M65.919,10.044c-1.164,-2.415 -3.618,-3.957 -6.3,-3.957c-3.836,0 -6.993,3.157 -6.993,6.994c-0,3.836 3.157,6.993 6.993,6.993c1.051,0 2.088,-0.236 3.035,-0.692c3.453,-1.669 4.926,-5.88 3.265,-9.338Z" style="fill:#ec2127;fill-rule:nonzero;"></path>
    <path d="M55.45,2.325c-0.151,-0.318 -0.473,-0.523 -0.826,-0.523c-0.5,0 -0.912,0.412 -0.912,0.913c-0,0.139 0.032,0.277 0.093,0.403l1.01,2.096c0.152,0.315 0.473,0.516 0.822,0.516c0.501,0 0.913,-0.411 0.913,-0.912c0,-0.137 -0.031,-0.273 -0.09,-0.396l-1.01,-2.097Z" style="fill:#ec2127;fill-rule:nonzero;"></path>
    <path d="M63.202,20.521c-0.315,0.151 -0.516,0.472 -0.516,0.822c0,0.137 0.031,0.272 0.091,0.396l1.01,2.096c0.15,0.319 0.472,0.523 0.825,0.523c0.501,0 0.913,-0.411 0.913,-0.912c-0,-0.14 -0.033,-0.278 -0.094,-0.403l-1.01,-2.096c-0.152,-0.316 -0.472,-0.517 -0.822,-0.517c-0.137,0 -0.273,0.031 -0.397,0.091Z" style="fill:#ec2127;fill-rule:nonzero;"></path>
    <path d="M69.581,7.268l-2.097,1.01c-0.319,0.15 -0.523,0.472 -0.523,0.825c-0,0.501 0.412,0.913 0.912,0.913c0.14,-0 0.278,-0.033 0.403,-0.094l2.097,-1.01c0.315,-0.152 0.516,-0.472 0.516,-0.822c0,-0.501 -0.412,-0.913 -0.912,-0.913c-0.137,0 -0.273,0.031 -0.396,0.091Z" style="fill:#ec2127;fill-rule:nonzero;"></path>
    <path d="M49.26,18.984c0.137,-0.001 0.272,-0.031 0.395,-0.091l2.097,-1.01c0.315,-0.152 0.516,-0.472 0.516,-0.822c0,-0.501 -0.412,-0.913 -0.912,-0.913c-0.138,0 -0.273,0.031 -0.397,0.091l-2.096,1.01c-0.315,0.152 -0.517,0.472 -0.517,0.822c0,0.501 0.412,0.913 0.913,0.913l0.001,-0Z" style="fill:#ec2127;fill-rule:nonzero;"></path>
    <path d="M63.012,0.611l-1.232,3.524c-0.034,0.097 -0.051,0.198 -0.051,0.301c-0,0.501 0.412,0.913 0.912,0.913c0.387,-0 0.734,-0.246 0.862,-0.612l1.232,-3.523c0.034,-0.097 0.051,-0.199 0.051,-0.301c-0,-0.501 -0.412,-0.913 -0.913,-0.913c-0.387,-0 -0.734,0.246 -0.861,0.611Z" style="fill:#ec2127;fill-rule:nonzero;"></path>
    <path d="M55.734,21.422l-1.232,3.524c-0.034,0.097 -0.051,0.199 -0.051,0.301c-0,0.501 0.412,0.913 0.912,0.913c0.387,-0 0.734,-0.246 0.862,-0.612l1.231,-3.523c0.034,-0.097 0.052,-0.199 0.052,-0.301c-0,-0.501 -0.412,-0.913 -0.913,-0.913c-0.387,-0 -0.734,0.246 -0.862,0.611l0.001,0Z" style="fill:#ec2127;fill-rule:nonzero;"></path>
    <path d="M67.4,15.802c-0.034,0.097 -0.051,0.199 -0.051,0.301c-0,0.387 0.246,0.734 0.611,0.862l3.524,1.231c0.102,0.038 0.209,0.058 0.318,0.058c0.5,-0 0.912,-0.412 0.912,-0.913c0,-0.393 -0.254,-0.744 -0.628,-0.867l-3.523,-1.232c-0.473,-0.165 -0.997,0.088 -1.163,0.56Z" style="fill:#ec2127;fill-rule:nonzero;"></path>
    <path d="M47.15,9.686l3.523,1.232c0.097,0.034 0.199,0.051 0.301,0.051c0.501,0 0.913,-0.412 0.913,-0.912c0,-0.387 -0.246,-0.734 -0.611,-0.862l-3.524,-1.232c-0.097,-0.033 -0.198,-0.051 -0.301,-0.051c-0.501,0 -0.912,0.412 -0.912,0.913c-0,0.387 0.246,0.734 0.611,0.861Z" style="fill:#ec2127;fill-rule:nonzero;"></path>
    <path d="M72.802,42.166l-16.473,-8.26c-0.448,-0.225 -1.001,-0.041 -1.225,0.406l-1.343,2.679c-0.063,0.127 -0.096,0.267 -0.096,0.409c-0,0.344 0.195,0.661 0.503,0.815l7.643,3.833l0,10.337l-13.021,-0l-0,-9.422l7.005,3.513c0.127,0.064 0.267,0.097 0.409,0.097c0.345,-0 0.661,-0.196 0.816,-0.504l1.342,-2.677c0.064,-0.127 0.097,-0.268 0.097,-0.41c0,-0.344 -0.195,-0.661 -0.503,-0.815l-16.474,-8.261c-0.448,-0.224 -1,-0.041 -1.225,0.406l-1.343,2.679c-0.224,0.447 -0.04,1 0.407,1.224l7.643,3.833l0,10.337l-17.246,-0l-0,-15.635c-0,-0.501 0.412,-0.912 0.912,-0.912l2.703,-0l-14.547,-14.547l-14.547,14.546l2.703,0c0.501,0 0.913,0.412 0.913,0.913l-0,15.634l-6.942,0c-0.501,0 -0.913,0.412 -0.913,0.913c-0,0.5 0.412,0.912 0.913,0.912l67.747,0c0.5,0 0.912,-0.412 0.912,-0.912c0,-0.501 -0.412,-0.913 -0.912,-0.913l-5.024,0l0,-9.421l7.006,3.513c0.127,0.064 0.267,0.097 0.409,0.097c0.344,-0 0.661,-0.196 0.815,-0.504l1.343,-2.677c0.064,-0.127 0.097,-0.268 0.097,-0.41c-0,-0.345 -0.195,-0.661 -0.504,-0.816Zm-49.162,10.218l-1.825,0l-0,-8.359l-6.058,0l0,8.359l-1.825,0l0,-9.271c0,-0.501 0.412,-0.913 0.913,-0.913l7.882,0c0.501,0 0.913,0.412 0.913,0.913l-0,9.271Z" style="fill:#ec2127;fill-rule:nonzero;"></path>
    <rect x="27.975" y="22.951" width="1.722" height="1.82" style="fill:#ec2127;"></rect>
    <path d="M27.975,27.899l1.722,1.721l-0,-3.024l-1.722,0l-0,1.303Z" style="fill:#ec2127;fill-rule:nonzero;"></path>
  </g>
</svg>
