<?xml version="1.0" encoding="UTF-8" standalone="no"?>
<svg xmlns="http://www.w3.org/2000/svg" xmlns:xlink="http://www.w3.org/1999/xlink" xmlns:serif="http://www.serif.com/" width="100%" height="100%" viewBox="0 0 746 1600" version="1.1" xml:space="preserve" style="fill-rule:evenodd;clip-rule:evenodd;stroke-linejoin:round;stroke-miterlimit:2;">
  <g>
    <path d="M101.073,1600c-19.333,-9.5 -40.75,-16.292 -57.541,-29.125c-30.792,-23.542 -42.917,-57.333 -42.792,-96.042c0.333,-119.708 0.125,-239.416 0.125,-359.125c-0,-166.541 1.917,-333.125 -0.833,-499.625c-1.334,-79.75 39.666,-129.083 104.541,-142.291c0,-12.125 -0.458,-24.584 0.084,-37c1,-23 10.75,-41.959 31.833,-51.667c11.208,-5.167 11.917,-11.875 11.875,-21.708c-0.208,-83.792 -0.125,-167.584 -0.125,-251.375c-0,-65.917 14.667,-87.917 74.708,-112.042l31.25,0c37,10.625 64.042,31.667 72.959,71c1.708,7.5 2.166,15.417 2.166,23.167c0.167,90.083 0.292,180.125 -0.041,270.208c-0.042,9.875 2.125,15.625 11.791,20.333c20.917,10.209 31.25,28.292 32,51.5c0.375,11.875 0.084,23.792 0.084,36.834l59.333,-0c2.875,-28.042 11.333,-54 32.083,-74.167c33.292,-32.375 72.75,-42.125 116.417,-26.667c43.25,15.292 66.875,48.084 72.583,93.125c1.167,9.167 3.917,13.042 12.334,16.167c48.958,18.167 78.916,60.125 78.958,112.417c0.25,295.166 0.292,590.375 -0,885.541c-0.042,58.375 -36.208,102.917 -93.167,117.542c-2.416,0.625 -4.583,1.958 -6.875,3c-181.208,-0 -362.458,-0 -543.75,-0Zm580.25,-561.958l0,-435.917c0,-41.625 -21.875,-64.25 -63.041,-64.292c-163.542,-0.125 -327.125,-0.125 -490.667,0c-41.125,0.042 -63,22.75 -63,64.334c0.042,288.541 0.042,577.083 0.042,865.625c-0,48.125 19.833,68 68.458,68c160.417,0.041 320.875,0.041 481.292,-0c46.375,-0 66.875,-20.5 66.875,-66.459c0.041,-143.791 0.041,-287.541 0.041,-431.291Zm-468.458,-660.959c14.792,0 28.167,-0.333 41.542,0.125c8.791,0.292 11.708,-3.125 11.708,-11.875c-0.25,-90.583 -0,-181.125 -0.292,-271.708c-0.083,-18.417 -11.625,-29.708 -27.583,-29.125c-15.458,0.583 -25.208,11.375 -25.292,29.5c-0.25,45.792 -0.083,91.625 -0.041,137.417c-0.042,47.333 -0.042,94.666 -0.042,145.666Zm-43.083,95.959l138.5,-0l-0,-31.125l-138.5,-0l-0,31.125Zm328.75,0.333l89.166,-0c1.292,-23.417 -16.583,-42.292 -41.125,-44.25c-24.583,-1.958 -46,16.958 -48.041,44.25Z" style="fill:#ed2128;fill-rule:nonzero;"></path>
    <path d="M372.365,868.75c-60.917,-0 -121.833,0.083 -182.75,-0.042c-43.208,-0.083 -69.667,-26.75 -69.792,-70.291c-0.125,-42.167 -0.166,-84.334 0,-126.5c0.167,-42.459 26.709,-68.917 69.542,-68.959c122.375,-0.125 244.708,-0.125 367.083,0c43.334,0.042 69.709,26.75 69.834,70.292c0.125,42.167 0.125,84.333 -0,126.5c-0.125,42.167 -27.084,68.917 -69.584,69c-61.458,0.083 -122.916,-0 -184.333,-0Zm188.917,-65.292l-0,-135.416l-376.167,-0l-0,135.416l376.167,0Z" style="fill:#ed2128;fill-rule:nonzero;"></path>
    <path d="M372.782,985.375c-71.334,-0 -142.667,0.333 -214,-0.375c-9.667,-0.083 -20.792,-3.208 -28.625,-8.708c-10.417,-7.292 -12.875,-19.792 -8.667,-32.375c4.167,-12.417 13.167,-19.667 26.042,-21.834c3.041,-0.5 6.25,-0.25 9.375,-0.25c144.25,0 288.5,-0.041 432.708,0.042c28.542,-0 44.917,23.458 32.875,46.667c-7.208,13.875 -19.583,17 -34.125,16.958c-71.875,-0.25 -143.708,-0.125 -215.583,-0.125Z" style="fill:#ed2128;fill-rule:nonzero;"></path>
    <path d="M372.24,1094c-72.375,-0 -144.75,-0.083 -217.167,0.042c-15.666,0.041 -27.416,-5.959 -33.125,-20.917c-5.25,-13.667 -2,-26.417 9.459,-34.958c6.166,-4.584 15.125,-7.584 22.875,-7.584c145.791,-0.416 291.625,-0.416 437.416,-0.208c21.042,0.042 34.584,13.417 34.417,32.125c-0.167,18.625 -14.042,31.375 -35.167,31.417c-72.875,0.166 -145.791,0.083 -218.708,0.083Z" style="fill:#ed2128;fill-rule:nonzero;"></path>
    <path d="M559.99,1416.08c11.417,0 22.875,-0.5 34.25,0.125c18.75,1.042 31.708,14.25 31.917,31.667c0.208,17.417 -12.25,31.417 -31.167,32.25c-23.292,1.042 -46.708,1 -70.042,0.042c-19.416,-0.792 -33.041,-15.792 -32.208,-33.125c0.875,-17.792 14.708,-30.334 34.542,-30.917c10.875,-0.333 21.791,-0.042 32.708,-0.042c-0,-0.083 -0,-0.041 -0,0Z" style="fill:#ed2128;fill-rule:nonzero;"></path>
    <path d="M187.24,1416.04c10.875,-0.042 21.792,-0.417 32.667,0.041c19.291,0.834 33.375,14.584 33.375,32.125c-0,16.917 -13.125,31.042 -31.959,31.834c-23.291,1 -46.708,0.958 -70,0.041c-18.875,-0.75 -31.5,-14.583 -31.458,-32c-0,-18 13.333,-31.125 33.167,-32c11.375,-0.458 22.791,-0.041 34.208,-0.041Z" style="fill:#ed2128;fill-rule:nonzero;"></path>
    <path d="M373.74,1416.08c11.417,0 22.833,-0.5 34.208,0.125c18.625,1 31.25,14.25 31.375,31.959c0.125,16.833 -11.833,30.958 -29.791,31.791c-24.334,1.167 -48.75,1.125 -73.084,0c-18,-0.833 -29.958,-14.875 -29.833,-31.75c0.125,-17.708 12.75,-31.041 31.333,-32.041c11.917,-0.584 23.875,-0.084 35.792,-0.084Z" style="fill:#ed2128;fill-rule:nonzero;"></path>
    <path d="M559.157,1222.08c-11.417,0 -22.834,0.334 -34.209,-0.083c-18.5,-0.708 -31.791,-14 -31.916,-31.333c-0.167,-17.584 12.708,-31.292 31.291,-31.75c23.834,-0.584 47.709,-0.584 71.542,-0c17.417,0.458 30.208,14.25 30.292,31.125c0.083,17.125 -12.125,30.791 -29.625,31.833c-12.417,0.75 -24.875,0.125 -37.334,0.125c-0.041,-0 -0.041,0.042 -0.041,0.083Z" style="fill:#ed2128;fill-rule:nonzero;"></path>
    <path d="M186.032,1222.08c-11.459,0 -22.917,0.334 -34.375,-0.083c-18.584,-0.708 -31.709,-14.083 -31.792,-31.667c-0.083,-17.458 13.208,-31.125 31.792,-31.5c22.916,-0.458 45.833,-0.5 68.75,0c19.625,0.417 33.166,14.292 32.708,32.292c-0.458,17.292 -14,30.333 -32.667,30.917c-11.5,0.333 -22.958,0.041 -34.416,0.041Z" style="fill:#ed2128;fill-rule:nonzero;"></path>
    <path d="M187.157,1287.42c11.416,-0 22.833,-0.375 34.25,0.083c18.375,0.75 31.875,14.5 31.75,31.708c-0.125,16.917 -12.5,30.709 -30.209,31.292c-24.333,0.833 -48.791,0.875 -73.125,0.083c-17.75,-0.583 -29.958,-14.333 -29.958,-31.375c-0,-17.416 13.333,-31.083 31.542,-31.75c11.875,-0.375 23.833,-0.041 35.75,-0.041Z" style="fill:#ed2128;fill-rule:nonzero;"></path>
    <path d="M560.282,1287.42c11.416,-0 22.833,-0.334 34.25,0.083c18.333,0.667 31.5,14.125 31.583,31.667c0.083,17.083 -12.042,30.833 -29.833,31.458c-24.334,0.833 -48.75,0.75 -73.125,-0.042c-17.792,-0.583 -30.167,-14.25 -30.334,-31.166c-0.208,-17 13.459,-30.75 31.667,-31.917c1.042,-0.083 2.083,-0.042 3.125,-0.042c10.875,-0.041 21.792,-0.041 32.667,-0.041Z" style="fill:#ed2128;fill-rule:nonzero;"></path>
    <path d="M372.323,1221.96c-11.958,0 -23.958,0.542 -35.875,-0.125c-17.125,-0.958 -29.291,-13.75 -29.75,-30.166c-0.5,-17.667 11,-31.792 28.75,-32.459c24.917,-0.916 49.959,-0.916 74.875,-0.041c17.792,0.666 29.375,14.625 28.959,32.25c-0.375,16.458 -12.459,29 -29.5,30.5c-1.042,0.083 -2.084,0.125 -3.125,0.125l-34.334,-0l0,-0.084Z" style="fill:#ed2128;fill-rule:nonzero;"></path>
    <path d="M374.032,1287.46c11.458,0.042 22.916,-0.458 34.333,0.125c18.125,0.917 30.458,13.542 30.875,30.75c0.458,18.125 -11.583,31.667 -30.625,32.292c-23.917,0.792 -47.875,0.792 -71.792,-0.042c-18.375,-0.666 -30.083,-13.666 -30.125,-31.208c-0.041,-18 12.5,-31 31.417,-31.833c11.958,-0.542 23.917,-0.125 35.917,-0.084Z" style="fill:#ed2128;fill-rule:nonzero;"></path>
  </g>
</svg>
