<?xml version="1.0" encoding="UTF-8" standalone="no"?>
<svg xmlns="http://www.w3.org/2000/svg" xmlns:xlink="http://www.w3.org/1999/xlink" xmlns:serif="http://www.serif.com/" width="100%" height="100%" viewBox="0 0 77 62" version="1.1" xml:space="preserve" style="fill-rule:evenodd;clip-rule:evenodd;stroke-linejoin:round;stroke-miterlimit:2;">
    <g transform="matrix(1,0,0,1,-3636.62,-5258.91)">
        <g transform="matrix(0.0982425,0,0,0.0982425,3633.06,5247.94)">
            <path d="M766.46,561.32L742.31,495.3L626.27,495.3L639.27,561.32L766.46,561.32ZM228.11,192.46C237.86,176.09 253.95,162.41 277.2,151.77C267.28,167.43 260.66,184.53 258.49,203.5C277.59,181.11 306.09,168.3 345.76,166.86C323.5,182.54 305.85,202.93 294.74,229.99C313.23,225.34 334.3,227.03 358.25,235.96C340.13,240.01 323.36,247.4 308.43,259.32C336.75,257.05 364.97,267.32 393.05,292.37L292.93,292.37C292.93,249.55 259.11,214.85 216.12,214.85C173.68,214.85 139.27,249.26 139.27,291.66C139.27,328.1 164.65,358.63 198.68,366.53L180.28,416.81C173.05,422.24 164.65,427.16 155.02,431.58C164.94,415.91 171.56,398.82 173.73,379.84C154.62,402.24 126.11,415.05 86.46,416.49C108.72,400.81 126.37,380.42 137.48,353.34C118.98,358.01 97.92,356.31 73.99,347.38C92.09,343.34 108.86,335.94 123.79,324.03C94.46,326.38 65.25,315.28 36.17,288.24C63.01,292.92 89.93,290.98 116.89,279.67C100.53,269.92 86.85,253.83 76.21,230.58C91.87,240.51 108.97,247.12 127.94,249.29C105.55,230.19 92.74,201.68 91.3,162.02C106.98,184.28 127.37,201.93 154.44,213.04C149.77,194.55 151.47,173.5 160.4,149.53C164.44,167.66 171.84,184.42 183.75,199.36C181.4,170.02 192.5,140.81 219.53,111.73C214.86,138.57 216.8,165.49 228.11,192.46ZM216.1,234.32C247.79,234.32 273.46,259.99 273.46,291.68L225.8,292.37L205.44,348.04C178.86,343.04 158.75,319.72 158.75,291.68C158.75,259.99 184.42,234.32 216.1,234.32ZM617.1,561.32L604.11,495.3L482.86,495.3L482.86,561.32L617.1,561.32ZM461.09,561.32L461.09,495.3L339.83,495.3L326.83,561.32L461.09,561.32ZM304.68,561.32L317.67,495.3L201.64,495.3L177.49,561.32L304.68,561.32ZM169.74,597.6L169.74,643.25L774.21,643.25L774.21,597.6L169.74,597.6ZM761.34,691.81L761.34,734.95L725.05,734.95L725.05,691.81L761.34,691.81ZM710.52,691.81L710.52,734.95L674.24,734.95L674.24,691.81L710.52,691.81ZM269.71,691.81L269.71,734.95L233.43,734.95L233.43,691.81L269.71,691.81ZM218.89,691.81L218.89,734.95L182.61,734.95L182.61,691.81L218.89,691.81ZM734.35,473.53L710.72,408.91L609.27,408.91L621.99,473.53L734.35,473.53ZM599.83,473.53L587.11,408.91L482.86,408.91L482.86,473.53L599.83,473.53ZM461.09,473.53L461.09,408.91L356.83,408.91L344.11,473.53L461.09,473.53ZM321.96,473.53L334.68,408.91L233.23,408.91L209.6,473.53L321.96,473.53ZM702.76,387.14L685.34,339.53L595.61,339.53L604.99,387.14L702.76,387.14ZM582.83,387.14L573.45,339.53L482.86,339.53L482.86,387.14L582.83,387.14ZM461.09,387.14L461.09,339.53L370.49,339.53L361.11,387.14L461.09,387.14ZM338.96,387.14L348.34,339.53L258.61,339.53L241.19,387.14L338.96,387.14ZM810.49,576.41L810.49,679.53L133.46,679.53L133.46,576.41L233.37,303.25L710.59,303.25L810.49,576.41Z" style="fill:rgb(236,33,39);fill-rule:nonzero;"></path>
        </g>
    </g>
</svg>
