<?xml version="1.0" encoding="UTF-8" standalone="no"?>
<svg xmlns="http://www.w3.org/2000/svg" xmlns:xlink="http://www.w3.org/1999/xlink" xmlns:serif="http://www.serif.com/" width="100%" height="100%" viewBox="0 0 2128 2536" version="1.1" xml:space="preserve" style="fill-rule:evenodd;clip-rule:evenodd;stroke-linejoin:round;stroke-miterlimit:2;">
  <g>
    <path d="M288.145,571.429c-0,-38.677 -0.136,-76.741 -0,-114.873c0.953,-221.983 148.783,-402.906 365.864,-447.984c245.271,-50.934 499.939,131.42 527.585,379.551c5.72,51.342 3.813,103.637 5.379,155.456c0.272,9.125 0.068,18.249 0.068,25.467c32.889,5.72 63.735,7.967 92.607,16.615c112.013,33.433 167.577,115.826 187.869,225.796c5.175,28.191 4.085,57.539 5.447,86.41c0.613,12.734 -0.817,25.603 0.409,38.269c4.426,46.031 13.754,83.686 72.314,93.832c41.401,7.218 80.01,32.004 118.891,51.002c13.891,6.809 23.628,9.397 36.498,-1.022c13.823,-11.235 29.28,-20.428 44.396,-29.893c20.428,-12.733 40.175,-12.461 57.88,5.312c56.04,55.904 111.945,111.877 167.917,167.849c17.704,17.704 21.449,40.175 5.243,57.334c-40.175,42.559 -38.132,81.712 -7.218,129.718c21.109,32.821 30.983,73.336 43.239,111.264c4.767,14.844 11.576,20.496 25.944,22.402c18.453,2.52 36.906,6.265 54.951,10.963c21.313,5.516 33.366,19.884 33.434,42.422c0.204,80.01 0.204,160.087 -0,240.097c-0.068,23.764 -12.938,42.149 -35.545,42.49c-59.922,1.021 -85.593,31.935 -98.258,87.908c-8.648,38.132 -32.276,72.723 -47.529,109.561c-3.473,8.308 -3.132,21.041 0.885,29.008c8.784,17.364 21.517,32.617 31.731,49.299c12.053,19.747 10.623,38.814 -6.196,55.633c-56.585,56.517 -113.171,113.102 -169.892,169.483c-16.138,16.07 -37.996,19.611 -53.045,5.039c-44.26,-42.694 -85.593,-36.498 -134.484,-6.673c-31.935,19.475 -70.68,28.599 -107.178,39.63c-15.73,4.767 -21.858,12.393 -24.037,27.442c-2.383,16.819 -6.741,33.297 -9.873,50.048c-4.767,25.467 -19.952,38.609 -45.895,38.677c-78.307,0.136 -156.614,0.068 -234.921,0.068c-25.876,-0 -45.01,-12.461 -45.691,-38.064c-1.43,-58.288 -31.39,-84.163 -86.342,-96.692c-37.315,-8.512 -71.974,-29.825 -106.838,-47.461c-13.278,-6.741 -22.607,-7.558 -34.387,1.634c-14.095,10.895 -29.348,20.428 -44.464,29.893c-21.177,13.346 -41.06,13.21 -59.854,-5.652c-55.224,-55.496 -110.719,-110.719 -166.283,-165.874c-18.658,-18.522 -22.471,-41.061 -5.175,-59.241c40.583,-42.354 39.221,-82.733 7.285,-129.65c-15.865,-23.287 -24.241,-52.431 -32.548,-80.009c-5.584,-18.657 -15.049,-22.471 -32.753,-22.334c-97.032,0.749 -194.133,2.451 -291.098,-0.613c-41.809,-1.362 -86.001,-6.673 -124.406,-21.926c-113.579,-45.282 -164.581,-140.34 -166.555,-255.554c-4.631,-263.86 -4.699,-527.925 -0.136,-791.718c2.451,-142.723 92.061,-273.053 272.576,-278.568c3.2,-0.341 6.401,-1.022 12.189,-1.771Zm1100.32,328.549c20.905,-141.837 -65.573,-244.998 -204.755,-245.271c-297.976,-0.476 -595.951,0.477 -893.926,-0.408c-141.361,-0.409 -203.326,93.9 -204.892,202.236c-3.677,260.524 -3.677,521.116 -0,781.64c1.498,106.498 61.828,203.122 205.164,201.896c60.467,-0.545 120.866,0 181.332,-0.136c6.469,-0 13.006,-1.09 20.905,-1.77c-0,-79.806 -0.136,-157.976 0.068,-236.215c0.068,-28.872 10.963,-42.014 38.745,-48.142c16.614,-3.677 33.161,-7.558 49.98,-9.942c15.866,-2.315 24.173,-8.784 29.212,-25.603c10.554,-35.749 19.679,-73.676 39.017,-104.727c30.574,-49.095 34.864,-90.564 -7.218,-134.552c-15.729,-16.478 -11.643,-38.2 5.176,-55.019c55.904,-56.04 112.081,-111.809 167.917,-167.917c17.772,-17.909 37.179,-18.998 57.675,-6.401c16.683,10.214 31.867,23.152 49.299,31.731c8.648,4.222 22.267,4.699 31.187,0.954c40.788,-16.888 79.26,-41.605 121.342,-52.432c45.418,-11.712 64.688,-34.047 69.591,-79.737c4.63,-43.443 17.364,-50.117 61.215,-50.185c61.216,0 122.296,0 182.966,0Zm375.942,1398.97c42.627,-42.49 84.027,-83.822 126.994,-126.721c-9.533,-14.095 -19.611,-29.688 -30.302,-44.873c-13.278,-18.794 -14.163,-37.247 -1.566,-56.926c42.218,-65.846 70.545,-137.48 87.364,-213.676c4.834,-21.994 16.682,-33.978 38.608,-37.928c19.747,-3.541 39.29,-8.58 58.016,-12.801l-0,-177.587c-19.747,-4.358 -37.792,-9.193 -56.177,-12.053c-22.539,-3.54 -34.183,-17.023 -39.017,-37.995c-17.568,-76.129 -47.393,-147.013 -89.951,-212.519c-12.734,-19.543 -11.44,-38.132 1.77,-56.858c11.167,-15.797 21.654,-32.003 30.438,-45.213c-43.171,-43.648 -84.299,-85.185 -126.449,-127.811c-15.185,10.214 -31.323,21.245 -47.529,32.004c-17.228,11.371 -34.864,12.665 -52.636,1.293c-67.344,-42.966 -140.272,-72.383 -218.102,-89.678c-19.883,-4.426 -30.574,-16.615 -34.387,-36.089c-3.881,-19.884 -8.307,-39.631 -12.665,-60.127l-178.2,0c-4.222,19.815 -8.92,37.928 -11.78,56.313c-3.609,23.22 -16.615,35.477 -39.222,40.72c-75.242,17.296 -145.446,46.984 -210.271,89.066c-19.611,12.733 -37.996,11.644 -56.79,-1.771c-15.865,-11.303 -32.344,-21.721 -46.167,-30.914c-43.034,43.103 -84.776,84.98 -127.266,127.538c9.806,14.504 20.701,30.71 31.596,46.916c11.643,17.228 12.665,34.864 1.43,52.636c-42.354,66.663 -72.043,138.638 -88.998,215.719c-4.562,20.769 -16.683,32.344 -37.519,36.158c-19.884,3.677 -39.562,8.443 -59.65,12.801l0,177.859c21.041,4.494 40.039,8.852 59.173,12.529c20.7,3.95 32.412,15.73 37.247,36.498c17.568,76.06 46.916,147.217 89.883,212.655c12.12,18.453 11.235,36.498 -1.362,54.61c-11.576,16.683 -22.539,33.775 -33.161,49.776c42.558,42.627 83.958,84.027 126.653,126.722c14.503,-9.67 30.301,-19.543 45.35,-30.37c19.474,-13.959 38.472,-15.048 59.104,-1.975c64.553,40.788 134.076,69.796 208.706,86.07c23.356,5.107 37.519,17.296 41.06,42.014c2.723,19.066 8.035,37.791 12.188,56.857l177.519,0c4.154,-19.27 8.988,-37.247 11.78,-55.564c3.677,-24.241 16.615,-37.042 40.584,-42.286c76.264,-16.546 147.693,-45.486 213.676,-87.363c17.84,-11.303 35.136,-10.759 52.499,0.749c16.343,10.827 32.549,21.654 47.529,31.595Zm-659.617,-1727.32c-0,-49.776 1.838,-96.624 -0.341,-143.336c-8.716,-186.167 -169.279,-343.462 -354.833,-345.368c-244.386,-2.452 -421.223,196.38 -375.873,488.431l159.61,0c-0,-42.081 -0.545,-82.733 0.068,-123.384c2.247,-140.613 130.466,-233.968 265.427,-193.521c84.503,25.263 140.816,98.735 142.723,187.597c0.885,43.034 0.136,86.137 0.136,129.649c55.972,-0.068 108.404,-0.068 163.083,-0.068Zm-249.153,0.476c8.784,-28.599 5.584,-145.038 -4.63,-170.709c-19.27,-48.346 -62.85,-75.243 -119.435,-73.677c-51.819,1.43 -100.233,31.732 -108.677,80.078c-9.329,53.453 -7.558,108.812 -10.622,164.24c85.525,0.068 164.444,0.068 243.364,0.068Z" style="fill:#ed2128;fill-rule:nonzero;"></path>
    <path d="M1311.11,1186.11c293.617,0.818 530.785,240.573 529.56,535.416c-1.226,290.485 -241.799,528.538 -532.829,527.177c-294.162,-1.362 -530.377,-240.369 -529.423,-535.552c0.953,-290.349 240.913,-527.79 532.692,-527.041Zm-317.042,846.806c55.905,-144.766 157.636,-232.47 315.952,-232.266c158.249,0.205 259.843,87.977 314.999,233.151c104.727,-90.291 170.845,-276.186 112.626,-454.453c-62.442,-191.478 -237.781,-314.726 -440.767,-311.322c-192.226,3.269 -363.889,135.914 -419.112,323.306c-52.296,177.723 18.521,360.757 116.302,441.584Zm293.005,134.075c101.799,-0.068 179.153,-21.517 246.973,-59.377c16.07,-8.988 18.658,-18.726 15.389,-34.728c-22.402,-109.221 -125.495,-191.886 -239.891,-191.818c-114.601,0.068 -217.966,83.006 -239.756,191.955c-3.2,16.138 -0.409,26.079 15.593,34.931c70,38.813 144.562,58.424 201.692,59.037Z" style="fill:#ed2128;fill-rule:nonzero;"></path>
    <path d="M1309.13,1758.29c-112.013,-0.068 -204.347,-93.151 -203.802,-205.436c0.544,-111.264 92.402,-203.054 203.394,-203.258c112.489,-0.204 205.028,91.925 205.096,204.143c0.136,112.285 -92.266,204.619 -204.688,204.551Zm1.362,-81.711c68.025,-0.477 122.431,-55.905 121.682,-124.134c-0.749,-68.025 -56.449,-122.091 -124.746,-121.001c-67.004,1.021 -120.593,55.7 -120.389,122.84c0.273,68.161 55.292,122.771 123.453,122.295Z" style="fill:#ed2128;fill-rule:nonzero;"></path>
  </g>
</svg>
