<?xml version="1.0" encoding="UTF-8" standalone="no"?>
<svg xmlns="http://www.w3.org/2000/svg" xmlns:xlink="http://www.w3.org/1999/xlink" xmlns:serif="http://www.serif.com/" width="100%" height="100%" viewBox="0 0 2759 2253" version="1.1" xml:space="preserve" style="fill-rule:evenodd;clip-rule:evenodd;stroke-linejoin:round;stroke-miterlimit:2;">
  <g>
    <path d="M1838.81,2068.39l-465.14,-0c14.171,65.037 0.536,121.111 -56.075,158.877c-56.993,38.072 -113.987,30.105 -168.376,-9.652c-54.389,39.68 -111.535,48.03 -168.375,9.652c-55.538,-37.46 -70.936,-92.232 -55.155,-159.873l-859.422,-0c-52.474,-0 -66.263,-13.712 -66.263,-66.033l0,-1663.61c0,-48.644 14.631,-63.352 62.969,-63.429c54.389,-0.076 108.854,0 166.307,0l0,-274.319l91.083,-0l-0,277.23c47.111,2.222 91.388,4.367 138.653,6.665l0,-237.703l92.002,0l-0,243.985c46.192,4.519 90.469,8.886 137.887,13.558l0,-211.733l91.082,-0l0,221.462c46.576,6.665 90.623,12.946 137.735,19.764l-0,-194.651l92.844,-0l-0,209.206c46.422,8.733 90.316,17.006 137.351,25.815l0,-189.135l92.308,-0l0,207.903c45.963,10.725 90.163,20.99 137.581,32.021l0,-193.962l93.457,0c0,63.045 1.073,125.938 -0.613,188.83c-0.612,21.908 4.827,32.556 27.118,37.459c36.234,7.967 71.778,19.151 111,29.876l-0,-164.853l92.231,0c0,53.317 1.839,106.633 -0.766,159.72c-1.379,27.195 7.507,38.915 33.17,45.273c34.165,8.503 67.258,20.99 105.484,33.246l-0,-32.173c-0,-110.157 -0.077,-220.314 -0,-330.394c-0,-44.967 15.55,-60.747 59.751,-60.9c50.788,-0.154 101.5,-0.077 152.289,-0c48.95,0.076 63.658,14.554 63.735,62.815c0.076,145.548 0.689,291.172 -0.613,436.72c-0.23,23.288 7.047,33.629 28.267,41.366c36.54,13.253 71.778,29.876 110.386,46.269l0,-171.516l91.849,-0c-0,63.505 0.919,126.473 -0.537,189.289c-0.459,19.534 6.052,28.496 23.365,36.004c37.459,16.316 73.846,35.314 114.599,55.154l0,-189.059l92.385,0l0,56.075c0,52.703 0.843,105.33 -0.46,157.957c-0.459,18.002 5.822,27.118 21.296,35.162c43.282,22.521 85.337,47.341 128.389,70.246c24.666,13.099 35.008,31.944 35.008,60.211c-0.46,389.762 -0.306,779.6 -0.383,1169.36c-0,42.515 -16.317,58.526 -59.368,58.602c-267.196,0.077 -534.314,0.077 -801.509,0c-42.363,0 -58.296,-16.393 -58.449,-59.445c-0.154,-39.987 -0.077,-80.128 -0.077,-123.332Zm289.104,-94.53l524.968,0c-38.378,-153.744 -76.297,-305.344 -114.217,-457.25l-296.458,-0c-37.919,151.676 -75.761,303.276 -114.293,457.25Zm-2034.53,-0.306l1743.2,-0l0,-88.631l-1743.2,-0l0,88.631Zm0.537,-916.263l-0,732.03l134.593,-0l0,-732.03l-134.593,0Zm363.869,732.872l0,-732.029l-134.516,0l-0,732.029l134.516,0Zm229.889,0l0,-732.029l-134.516,0l-0,732.029l134.516,0Zm95.756,-732.872l-0,732.03l134.517,-0l-0,-732.03l-134.517,0Zm363.793,733.026l-0,-733.026l-134.287,0l-0,733.026l134.287,-0Zm96.061,-733.179l0,733.025l134.287,0l0,-733.025l-134.287,0Zm363.717,733.102l-0,-732.029l-134.517,-0l-0,732.029l134.517,-0Zm229.889,-0.077l-0,-732.029l-134.517,0l0,732.029l134.517,0Zm183.773,367.93l0,-1100.8l-88.324,0l-0,1100.8l88.324,0Zm-1926.67,-1790.32l0,593.835l134.211,-0l-0,-593.835l-134.211,-0Zm229.813,2.451l-0,591.46l133.98,0l0,-585.562c-45.502,-1.991 -89.167,-3.906 -133.98,-5.898Zm365.095,26.122c-46.575,-4.596 -90.623,-8.886 -135.283,-13.253l0,578.668l135.283,0l0,-565.415Zm228.587,566.181l-0,-536.459c-45.58,-6.281 -89.474,-12.333 -134.594,-18.615l0,555.074l134.594,0Zm95.755,-520.372l0,519.683l133.751,-0l-0,-494.71c-44.967,-8.426 -88.018,-16.47 -133.751,-24.973Zm229.966,45.273l-0,474.256l135.895,0c0,-142.943 0.307,-283.588 -0.842,-424.157c-0.077,-7.43 -10.648,-19.151 -18.462,-21.372c-37.536,-10.801 -75.838,-18.998 -116.591,-28.727Zm873.364,569.858l-0,569.629c16.623,-53.317 30.565,-106.786 43.511,-160.562c7.201,-29.723 24.973,-43.741 55.385,-42.669c11.95,0.383 23.9,0.077 35.621,0.077l-0,-366.475l-134.517,0Zm-507.656,-94.376c-0,-123.333 0.153,-243.754 -0.536,-364.099c-0.077,-6.435 -6.435,-16.853 -12.027,-18.615c-40.6,-12.87 -81.813,-24.054 -123.639,-36.004l-0,418.718l136.202,0Zm737.851,94.07l0,365.249l133.904,-0l0,-365.249l-133.904,0Zm318.214,1012.4l-548.026,0l-0,88.478l548.026,0l-0,-88.478Zm-826.253,-1106.62c0,-98.743 0.23,-195.111 -0.459,-291.479c-0.077,-5.669 -5.975,-14.555 -11.184,-16.47c-40.907,-14.861 -82.273,-28.343 -124.635,-42.592l-0,350.541l136.278,-0Zm736.549,94.453l0,364.636c34.166,5.285 43.205,31.561 50.099,60.747c11.414,48.72 23.977,97.21 36.081,145.777c1.072,-0.306 2.221,-0.536 3.294,-0.842l-0,-570.395c-29.799,0.077 -58.143,0.077 -89.474,0.077Zm-554.69,-429.826l-0,-397.576l-89.704,0c0,118.89 -0.076,236.477 0.383,353.988c0,4.29 4.213,10.955 8.044,12.563c26.275,10.648 52.933,20.3 81.277,31.025Zm-87.865,65.497l-0,268.727l89.933,-0c-0,-74.076 0.383,-145.854 -0.613,-217.556c-0.076,-7.277 -6.664,-18.078 -13.023,-21.066c-23.977,-11.108 -49.256,-19.687 -76.297,-30.105Zm319.822,270.106c-0,-42.822 0.383,-82.809 -0.383,-122.72c-0.153,-6.435 -3.83,-16.24 -8.656,-18.462c-41.137,-19.227 -82.886,-36.999 -127.087,-56.38l0,197.562l136.126,-0Zm92.691,-0.613l139.42,-0c-3.065,-10.954 -2.758,-24.36 -8.197,-27.348c-42.056,-22.981 -85.26,-43.894 -131.146,-67.028c-0.077,34.854 -0.077,63.351 -0.077,94.376Zm-1287.79,1105.17c-24.667,-0.077 -45.81,20.913 -45.963,45.579c-0.153,24.514 21.066,45.81 45.733,45.963c24.59,0.153 45.886,-21.143 45.962,-45.656c0,-24.59 -21.066,-45.809 -45.732,-45.886Zm185.995,0.077c-24.59,-1.303 -46.652,18.614 -48.108,43.434c-1.379,24.284 18.921,46.652 43.588,48.031c24.437,1.379 46.728,-18.845 48.107,-43.435c1.303,-24.36 -18.998,-46.728 -43.587,-48.03Z" style="fill:#ed2128;fill-rule:nonzero;"></path>
  </g>
</svg>
