<?xml version="1.0" encoding="UTF-8" standalone="no"?>
<svg xmlns="http://www.w3.org/2000/svg" xmlns:xlink="http://www.w3.org/1999/xlink" xmlns:serif="http://www.serif.com/" width="100%" height="100%" viewBox="0 0 2792 2151" version="1.1" xml:space="preserve" style="fill-rule:evenodd;clip-rule:evenodd;stroke-linejoin:round;stroke-miterlimit:2;">
  <path d="M6.817,1253.8c11.141,-4.486 22.209,-12.877 33.349,-12.95c146.419,-0.94 292.837,-0.578 439.256,-1.085c19.894,-0.072 30.962,7.741 38.486,26.622c17.361,43.622 37.4,86.158 55.123,129.563c5.571,13.672 12.588,17.362 26.55,13.672c88.111,-23.076 176.367,-45.502 264.479,-68.651c24.524,-6.439 28.502,-18.086 22.281,-53.171c-28.936,-11.792 -58.09,-19.749 -83.048,-34.652c-58.379,-34.868 -89.413,-87.749 -91.077,-156.546c-0.434,-18.953 -2.46,-38.341 0.434,-56.86c4.63,-29.949 -9.26,-39.354 -36.026,-46.588c-128.84,-34.723 -257.245,-71.256 -385.578,-107.933c-109.67,-31.323 -177.67,-119.218 -181.215,-232.432c-1.157,-38.558 -0,-76.682 -24.017,-111.55c-9.839,-14.251 -13.456,-36.894 -11.286,-54.618c12.298,-101.133 23.728,-202.627 42.175,-302.747c14.83,-80.516 83.265,-129.78 165.011,-134.844c203.785,-12.732 407.57,-26.26 611.138,-41.669c51.434,-3.906 98.167,11.719 146.057,23.005c469.639,110.899 939.06,222.521 1408.56,333.999c78.128,18.519 155.967,38.341 234.457,55.051c52.665,11.213 87.605,39.209 102.797,91.15l0,54.256c-60.839,140.704 -121.316,281.48 -182.589,421.966c-17.579,40.367 -51.073,58.38 -93.827,54.69c-27.996,-2.459 -41.234,7.668 -51.651,33.277c-18.302,45.069 -42.392,87.822 -61.056,132.819c-9.766,23.51 -24.017,32.553 -48.469,33.928c-125.439,7.089 -250.734,15.263 -376.101,23.221c-77.55,4.919 -155.028,11.43 -232.722,14.179c-28.864,1.013 -58.813,-3.979 -86.954,-11.213c-69.665,-17.941 -138.606,-38.703 -211.96,-59.537l0,105.112c0,41.596 -2.025,83.265 0.651,124.716c1.881,28.575 -10.272,42.247 -34.289,53.46c-103.159,47.89 -205.739,97.082 -308.535,145.768c-162.406,76.826 -324.885,153.435 -487.001,230.84c-10.779,5.137 -20.762,14.324 -28.141,23.873c-58.596,76.899 -116.759,154.159 -174.125,231.926c-10.851,14.757 -22.788,20.4 -40.873,20.255c-107.571,-0.578 -215.142,0.145 -322.714,-0.651c-12.587,-0.072 -25.03,-6.872 -37.617,-10.562c0.072,-293.126 0.072,-586.108 0.072,-879.089Zm1896.06,-723.268c-9.838,-3.038 -16.566,-5.28 -23.366,-7.089c-528.669,-140.125 -1057.41,-279.816 -1585.86,-420.881c-39.498,-10.562 -72.124,-2.025 -95.346,26.188c-19.821,24.089 -37.473,54.69 -42.97,84.856c-15.409,84.205 -25.609,169.495 -34.941,254.713c-6.945,63.877 15.698,94.695 76.826,111.478c222.739,61.2 445.549,121.822 668.36,182.878c245.454,67.205 490.835,134.627 736.289,201.905c46.226,12.659 73.788,4.485 92.669,-31.541c69.375,-132.819 137.81,-266.071 208.342,-402.507Zm582.057,-106.413c0.29,-1.375 0.579,-2.677 0.796,-4.051c-9.187,-2.46 -18.302,-5.137 -27.562,-7.307c-469.494,-111.622 -938.988,-223.389 -1408.56,-334.723c-44.562,-10.561 -90.137,-27.417 -134.699,-25.898c-136.291,4.485 -272.292,16.422 -408.438,25.609c-29.805,2.026 -59.537,4.558 -89.269,6.872c9.042,7.524 18.23,10.707 27.562,13.239c223.244,59.103 446.489,118.133 669.734,177.236c265.131,70.171 530.189,140.342 795.174,211.091c16.711,4.485 27.924,2.243 40.801,-9.838c29.009,-27.273 64.383,-44.418 104.171,-47.167c52.158,-3.544 104.605,-4.412 156.98,-4.846c91.078,-0.724 182.228,-0.217 273.305,-0.217Zm-872.941,786.565c-6.8,-65.469 -12.804,-128.188 -20.4,-190.691c-0.723,-6.149 -9.694,-14.251 -16.349,-16.277c-41.379,-12.587 -83.265,-23.8 -125.005,-35.23c-360.983,-98.963 -721.965,-197.926 -1083.02,-296.744c-8.03,-2.17 -16.422,-3.11 -25.971,-4.919c-0.289,63.588 -1.591,123.053 31.83,176.802c10.128,16.277 21.92,25.826 41.018,31.179c305.714,85.218 611.21,171.376 916.78,257.173c92.741,26.115 185.482,51.941 281.117,78.707Zm24.669,-195.032c6.366,61.418 11.719,118.929 18.374,176.296c3.907,33.783 20.184,47.022 54.98,44.851c206.461,-12.659 412.923,-25.97 619.385,-38.558c16.494,-1.012 25.319,-7.378 32.264,-22.57c34.796,-76.392 71.184,-151.989 105.98,-228.381c5.353,-11.792 8.391,-25.898 7.957,-38.847c-3.472,-94.767 -7.957,-189.534 -12.515,-284.301c-2.459,-51.218 -5.498,-102.435 -8.464,-156.257l-29.225,0c-103.882,0 -207.837,1.519 -311.719,-0.434c-87.026,-1.592 -147.937,34.434 -187.074,112.418c-58.669,116.976 -120.593,232.36 -179.117,349.408c-23.293,46.66 -52.953,81.601 -110.826,86.375Zm-506.244,270.629l-195.755,-0c-0.651,6.076 -1.302,10.489 -1.519,14.83c-2.098,54.907 -15.771,72.485 -67.639,85.724c-140.704,35.881 -281.407,71.473 -422.111,107.354c-64.311,16.422 -128.623,33.205 -191.849,49.554l0,278.007c11.43,-4.34 20.69,-7.523 29.588,-11.358c171.738,-73.498 343.403,-147.069 515.069,-220.64c103.665,-44.418 207.402,-88.69 310.778,-133.904c9.187,-3.978 22.064,-13.817 22.353,-21.34c2.098,-48.541 1.085,-97.227 1.085,-148.227Zm-1078.53,768.335c52.085,-69.664 99.469,-132.239 145.695,-195.683c5.715,-7.885 7.523,-20.11 7.596,-30.383c0.506,-93.103 0.361,-186.134 0.144,-279.237c0,-8.898 -0.289,-18.302 -3.038,-26.621c-24.813,-74.439 -49.988,-148.734 -75.814,-222.811c-2.17,-6.149 -9.91,-13.962 -15.625,-14.541c-19.315,-1.808 -38.847,-0.723 -58.814,-0.723c-0.144,256.739 -0.144,509.282 -0.144,769.999Zm2449.26,-1586.44c-0,12.371 -0.362,21.341 0.072,30.239c5.787,122.763 11.068,245.526 17.868,368.217c2.388,42.898 3.328,84.711 -21.123,122.618c-1.085,1.664 0.289,4.847 0.578,7.234c40.367,3.545 52.375,-2.387 67.133,-35.737c54.473,-122.98 109.742,-245.598 161.61,-369.663c10.056,-24.09 10.634,-54.473 7.813,-81.094c-2.677,-25.03 -23.438,-41.018 -49.843,-41.452c-60.405,-1.085 -120.81,-0.362 -184.108,-0.362Zm-2151.64,1360.88c0.217,1.953 0.362,3.906 0.579,5.859c63.877,0 127.754,1.23 191.487,-0.651c21.702,-0.651 44.924,-5.208 64.528,-14.396c225.56,-105.69 450.614,-212.611 675.739,-319.314c9.188,-4.34 17.941,-9.404 26.911,-14.106c-38.847,-4.485 -75.886,-6.222 -112.635,-3.834c-23.656,1.519 -48.324,5.425 -70.026,14.396c-107.572,44.489 -214.347,90.932 -321.412,136.797c-151.7,65.107 -303.399,130.214 -455.171,195.249Zm183.819,53.098c-6.294,-1.809 -8.681,-3.111 -11.068,-3.111c-89.486,-0.144 -178.9,-0.723 -268.313,0.434c-9.405,0.145 -21.413,8.537 -27.635,16.639c-47.456,61.49 -93.754,123.848 -140.269,186.061c-3.4,4.558 -5.281,10.2 -9.115,17.724c96.141,-0 189.1,0.362 281.986,-0.651c7.74,-0.073 17.361,-8.102 22.715,-15.047c32.626,-42.103 64.311,-84.929 96.213,-127.61c18.23,-24.234 36.243,-48.541 55.486,-74.439Zm-291.752,-381.889c99.397,-25.32 196.045,-49.988 296.093,-75.524c-19.749,-45.937 -37.762,-89.052 -57.295,-131.444c-2.314,-4.919 -13.31,-8.247 -20.255,-8.319c-93.103,-0.507 -186.279,-0.29 -279.382,-0.073c-3.183,0 -6.293,1.736 -11.213,3.111c23.873,70.388 47.312,139.401 72.052,212.249Zm933.057,-61.779l219.338,-0l0,-153.942l-219.266,-0l0,123.486c-0.072,8.826 -0.072,17.723 -0.072,30.456Zm-1019.72,-825.124c-10.128,122.257 65.685,226.5 169.423,231.203c-29.516,-54.907 -26.405,-113.866 -28.069,-172.028c-0.434,-15.191 -4.847,-22.426 -19.894,-26.187c-39.932,-9.983 -79.575,-21.486 -121.46,-32.988Zm601.01,406.485c-0,23.077 -0.145,44.635 -0,66.192c0.868,90.499 65.975,154.304 156.474,153.581c82.179,-0.724 150.831,-62.792 149.529,-136.436c-12.226,-3.834 -24.813,-7.813 -38.919,-12.298c-2.46,8.392 -4.558,15.119 -6.366,21.847c-20.545,77.839 -110.827,108.729 -174.487,59.248c-35.448,-27.562 -43.694,-66.048 -42.465,-108.657c1.23,-38.775 0.362,-38.775 -43.766,-43.477Zm87.46,20.979c1.23,23.005 0.507,41.09 3.545,58.524c5.57,32.192 32.988,52.664 65.831,51.724c32.047,-0.94 59.102,-24.307 62.358,-56.064c0.651,-6.294 -5.281,-17.724 -10.562,-19.388c-38.269,-12.081 -77.188,-22.426 -121.172,-34.796Zm422.111,118.857l0,78.634l128.912,0l0,-42.753c-42.464,-11.864 -84.639,-23.583 -128.912,-35.881Zm-46.371,78.779c0,-25.392 -0.94,-48.613 0.29,-71.69c1.013,-18.809 -6.873,-26.115 -18.954,-25.609c-22.642,34.579 -43.332,66.192 -63.66,97.227c23.656,0.072 50.856,0.072 82.324,0.072Zm-71.907,-112.49c-12.153,-2.966 -24.596,-6.005 -33.277,-8.103c-15.915,35.014 -30.238,66.554 -44.417,97.878c47.022,-15.481 74.077,-46.009 77.694,-89.775Z" style="fill:#ed2128;fill-rule:nonzero;stroke:#ed272d;stroke-width:13.49px;"></path>
  <path d="M1891.38,903.664c6.728,-132.384 50.422,-239.883 154.593,-315.407c139.691,-101.423 303.399,-46.588 357.148,117.626c45.431,138.751 -10.127,318.374 -126.235,407.86c-150.759,116.252 -334.578,49.771 -375.523,-136.291c-5.787,-26.332 -7.306,-53.605 -9.983,-73.788Zm484.686,-96.503c-2.749,-19.749 -4.124,-45.213 -9.983,-69.664c-36.388,-151.483 -179.045,-202.194 -302.531,-108.223c-107.571,81.818 -155.968,247.913 -108.729,373.353c45.503,120.954 168.121,161.465 275.186,89.341c98.529,-66.337 138.895,-164.214 146.057,-284.807Z" style="fill:#ed2128;fill-rule:nonzero;stroke:#ed272d;stroke-width:13.49px;"></path>
  <path d="M2338.45,811.936c-7.451,99.903 -40.366,187.363 -126.09,246.321c-88.473,60.839 -186.062,26.405 -220.568,-75.741c-36.677,-108.367 6.438,-251.168 97.443,-322.931c103.81,-81.89 225.053,-30.6 244.73,103.665c2.388,16.06 3.039,32.409 4.485,48.686Zm-44.2,-8.103c-1.013,-10.778 -1.664,-21.557 -3.183,-32.264c-0.94,-7.089 -2.821,-14.106 -4.702,-21.051c-23.583,-87.171 -97.082,-112.346 -168.41,-57.656c-74.005,56.788 -113.793,178.972 -87.389,268.675c24.596,83.627 98.023,108.15 166.168,54.184c67.928,-53.822 93.899,-127.827 97.516,-211.888Z" style="fill:#ed2128;fill-rule:nonzero;stroke:#ed272d;stroke-width:13.49px;"></path>
  <path d="M2210.47,886.592c0.217,35.664 -27.273,66.843 -59.826,67.856c-29.515,0.94 -54.473,-25.537 -54.98,-58.163c-0.578,-37.183 28.069,-69.447 61.273,-69.013c30.456,0.434 53.316,25.753 53.533,59.32Zm-32.843,9.259c-12.877,-13.889 -17.073,-18.374 -21.196,-22.859c-5.57,6.944 -12.587,13.238 -15.987,21.051c-1.158,2.604 7.595,13.528 10.778,13.094c8.175,-1.013 15.771,-6.366 26.405,-11.286Z" style="fill:#ed2128;fill-rule:nonzero;stroke:#ed272d;stroke-width:13.49px;"></path>
</svg>
