<?xml version="1.0" encoding="UTF-8" standalone="no"?>
<svg xmlns="http://www.w3.org/2000/svg" xmlns:xlink="http://www.w3.org/1999/xlink" xmlns:serif="http://www.serif.com/" width="100%" height="100%" viewBox="0 0 1600 1528" version="1.1" xml:space="preserve" style="fill-rule:evenodd;clip-rule:evenodd;stroke-linejoin:round;stroke-miterlimit:2;">
  <g>
    <path d="M1599.75,879.822c-8,24 -18.458,46.875 -40.792,60.584c-12.166,7.458 -26.125,13.416 -40,16.25c-10.875,2.208 -13.916,6.666 -16.291,16.291c-24.959,101.459 -69.542,193.5 -133.792,275.917c-2.542,3.292 -5.083,6.625 -7.875,9.708c-9.875,10.75 -23.5,12.542 -33.333,4.542c-10.5,-8.542 -11.959,-21.125 -3.334,-33.458c16.709,-23.875 34.709,-46.875 50.292,-71.459c38.792,-61.083 65.625,-127.416 83.167,-197.625c2.291,-9.25 0.166,-13.708 -7.459,-19.041c-61.708,-43.25 -54.958,-132.25 12.75,-165.042c10.417,-5.042 12.959,-10.542 12.209,-21.292c-10.75,-150.916 -64.959,-284.208 -163.709,-398.541c-108.916,-126.084 -246.583,-202.667 -411.125,-228.875c-98.916,-15.75 -196.958,-9.417 -295.041,19.416c12.666,42.459 14.25,85 1.791,129.75c5.542,-1.166 9.334,-1.625 12.917,-2.75c167.75,-53.083 326.5,-33.5 475.833,59.667c9.167,5.708 15.542,7.667 26.125,1.958c36.292,-19.5 80.792,-12.458 109.834,15.584c29.916,28.875 38.666,73.375 19.875,110.5c-5.5,10.875 -3.459,17.5 2.625,26.333c62.958,91.833 95,193.542 96.625,304.875c0.166,12.208 -1.459,23 -14.209,28.5c-15.416,6.667 -30.541,-3.583 -32.375,-22.417c-2.75,-28.458 -3.416,-57.25 -7.875,-85.416c-11.25,-71.5 -38.583,-136.875 -78.791,-197c-4.209,-6.25 -7.125,-11.042 -17.125,-7.25c-38.834,14.666 -74.417,7.208 -103.334,-22.209c-29.083,-29.583 -34.166,-65.333 -19.916,-104.041c0.333,-0.959 0.375,-2 1.208,-7.209c-25.667,-13.5 -51.75,-29.583 -79.583,-41.375c-136.917,-58.083 -274,-57 -410.292,2.542c-7.833,3.417 -15.5,10.583 -19.833,17.958c-44,74.917 -87.292,150.292 -130.75,225.542c-20.042,34.708 -54.084,35.042 -74.375,0.708c-3.959,-6.708 -7.875,-13.416 -13.042,-22.208c-3.042,4.917 -5.667,8.375 -7.542,12.167c-65.291,132.5 -72.291,268.291 -22.5,407.166c2.334,6.5 3.917,12.25 13.667,10.834c42.917,-6.084 77.375,8.5 99.333,46.25c21.917,37.666 16.875,74.75 -9.416,110.541c94.75,98.792 209.625,152.75 347.291,161.917l0,-124.75c-18.083,-3.042 -36.5,-5.417 -54.625,-9.25c-181.541,-38.25 -309.041,-201.708 -302.25,-387.125c6.875,-187.625 147.125,-341.792 333.084,-366.167c208.375,-27.291 401.833,122.542 427.541,331.334c1.792,14.416 2.667,29.041 3.042,43.583c0.458,17.417 -8.208,27.5 -22.5,27.792c-14.125,0.291 -23.958,-9.667 -24.125,-26.709c-0.5,-43.75 -9.292,-85.625 -25.917,-126.041c-57.25,-138.875 -203.291,-222.75 -354,-203.167c-146.666,19.083 -265.916,136.667 -286.958,283.042c-26.542,184.5 99.125,354.375 282.583,381.75c7.625,1.125 15.375,1.375 24.292,2.166l-0,-125.125c-8.625,-1.875 -17.667,-3.541 -26.583,-5.75c-99.667,-24.916 -164.792,-116.833 -157.667,-222.416c6.375,-94.25 87.25,-178.625 181.125,-189c104.625,-11.542 198.542,48.833 228.25,146.791c5.292,17.459 0.292,30.334 -13.375,34.459c-14.375,4.375 -24.792,-2.459 -30.958,-20.292c-24.209,-69.833 -79.792,-112.458 -150.917,-115.667c-64.5,-2.916 -125.667,35.292 -153.583,95.959c-44.292,96.208 19.625,214.791 124.166,226.875c0.25,-5 0.667,-9.917 0.667,-14.834c0.042,-44.291 -0,-88.541 -0,-132.833c-0,-3.625 -0.125,-7.292 0.083,-10.917c0.792,-13.708 7.667,-23.208 21.417,-24.583c12.917,-1.292 21.208,6.083 25.25,18.625c14.083,43.5 28.458,86.958 42.708,130.417c1.917,5.875 4,11.708 6.625,19.333c34.792,-17.333 58.917,-43.042 75.125,-76.708c2.042,-4.209 3.625,-8.625 5.542,-12.917c6.875,-15.667 18.792,-21.75 32.042,-16.458c12.583,5 17.416,18.625 11.333,34.333c-18.292,47.417 -49.417,83.917 -93.583,109.167c-4.5,2.583 -9,5.125 -13.459,7.75c-0.375,0.25 -0.541,0.833 -1.666,2.666c48.208,147.584 96.75,296.167 146.75,449.209c40.625,-20.792 81.041,-38.625 118.5,-61.417c34.041,-20.75 65.083,-46.583 96.958,-70.792c15,-11.416 28.917,-12.5 38.417,-0.958c9.208,11.167 6.791,24 -7.625,36.417c-159.334,136.958 -343.709,198.208 -552.917,177.916c-307.667,-29.875 -560.042,-250.291 -634.125,-550.708c-2.375,-9.708 -5.958,-15.458 -17.125,-18.042c-35.292,-8.208 -57.667,-31.375 -69.333,-65.333c-1.125,-3.333 -2.5,-6.583 -3.792,-9.875l-0,-34.375c9.333,-29.708 24,-55.958 53.958,-68.583c13.5,-5.667 16.667,-13.542 17.5,-26.667c9.209,-140.792 56.125,-268.083 140.417,-380.958c13.5,-18.084 13.25,-29.334 2.417,-48.167c-66.542,-115.958 -12,-262.792 113.666,-308.125c50.292,-18.125 101.042,-17.042 151.167,1.75c14.75,5.542 21.083,18.042 16.667,30.708c-4.5,12.917 -16.917,18.25 -31.959,13.667c-3,-0.917 -5.875,-2.083 -8.833,-3.083c-27.75,-9.292 -56.25,-11.667 -84.75,-5.917c-116.25,23.458 -172.75,147.25 -114.292,250.583c34.084,60.25 69.125,119.917 103.75,179.834c13.417,23.208 26.875,46.333 41.5,71.541c51.292,-89.5 102.042,-176.083 150.459,-263.958c10.125,-18.417 14.125,-41.292 16.583,-62.625c4.25,-37.458 -7.292,-71.833 -27.333,-103.625c-8.334,-13.208 -5.417,-27.333 5.708,-34.333c11.042,-6.959 23.958,-4.584 32.292,8.208c5.416,8.292 11,7.333 18.333,5.208c105.208,-30.541 211.958,-36.25 319.75,-17.916c163.625,27.875 302.083,103.333 414.458,225.25c110.917,120.333 173.667,262.916 188.959,425.708c2.166,22.958 6.166,36.375 29.708,45.458c28.292,10.875 41,38.042 49.875,66c-0.25,11.459 -0.25,22.917 -0.25,34.375Zm-1483.04,-112.333c2.584,1.583 3.375,2.292 4.292,2.583c39.167,12.75 64.167,38.667 69.25,80.042c5.208,42.458 -11.875,75.333 -49.292,96.417c-9.291,5.25 -6.791,11.083 -5.041,18.208c21.958,88.542 59.958,169.625 115.083,242.167c110.75,145.791 256.75,234.458 437.208,265.583c27.375,4.708 55.334,6.083 83.292,9.042l-0,-126c-4.167,-0.459 -7.208,-0.834 -10.292,-1.084c-143.583,-10.958 -265.875,-67.625 -365.833,-171.416c-8.583,-8.917 -16,-7.834 -25.875,-5.917c-40.375,7.833 -79.458,-9.5 -100.5,-43.958c-20.708,-33.917 -18.083,-77.792 7.583,-109.584c5.709,-7.041 6.667,-12.25 3.542,-20.625c-62.25,-165.916 -50.375,-326.375 36.708,-480.875c4.75,-8.416 4.584,-14.5 -0.333,-22.625c-15.083,-24.916 -29.292,-50.375 -43.875,-75.625c-6.083,-10.541 -12.333,-21.041 -19.5,-33.291c-83.833,113.75 -129.333,238.083 -136.417,376.958Zm868.584,686.792c-54.75,-167.459 -108.667,-332.375 -162.584,-497.292c-0.708,0.292 -1.416,0.583 -2.125,0.875l0,522.375c56.459,-1.042 110.25,-10.583 164.709,-25.958Zm180.333,-1082.79c-26.042,-0.292 -48.833,22.333 -49.042,48.75c-0.25,26.167 22.125,49.208 48.209,49.708c25.75,0.5 49.375,-22.25 50,-48.083c0.583,-26.833 -22.084,-50.042 -49.167,-50.375Zm-765.833,712.083c-0.042,-26.833 -21.542,-48.708 -48.292,-49.041c-27.333,-0.375 -49.417,22 -49.125,49.666c0.292,26.584 22.458,48.459 49,48.375c26.375,-0.083 48.458,-22.416 48.417,-49Zm-304.084,-269.666c-26.708,-0.042 -48.833,21.708 -49.083,48.208c-0.25,27.333 22.083,49.458 49.625,49.208c26.167,-0.25 47.625,-21.458 48,-47.5c0.458,-28.083 -20.75,-49.875 -48.542,-49.916Zm1407.92,97.416c26.792,0.042 48.833,-21.541 49.167,-48.125c0.375,-27.041 -22.209,-49.5 -49.542,-49.291c-27.042,0.208 -47.958,21.416 -48.125,48.833c-0.125,26.75 21.625,48.542 48.5,48.583Z" style="fill:#ed2128;fill-rule:nonzero;"></path>
    <path d="M299.708,224.364c0.042,-56.792 45.25,-101.333 102.542,-101.042c54.542,0.25 99.708,45.917 99.917,101c0.208,55.084 -46.334,101.667 -101.375,101.459c-55.709,-0.167 -101.167,-45.792 -101.084,-101.417Zm46.834,-0.458c-0.25,30.166 23.833,54.625 54.041,54.958c29.5,0.333 54.5,-24.792 54.584,-54.792c0.083,-29 -24.292,-53.458 -53.667,-53.833c-30.375,-0.417 -54.708,23.333 -54.958,53.667Z" style="fill:#ed2128;fill-rule:nonzero;"></path>
  </g>
</svg>
