<?xml version="1.0" encoding="UTF-8" standalone="no"?>
<svg xmlns="http://www.w3.org/2000/svg" xmlns:xlink="http://www.w3.org/1999/xlink" xmlns:serif="http://www.serif.com/" width="100%" height="100%" viewBox="0 0 1570 1622" version="1.1" xml:space="preserve" style="fill-rule:evenodd;clip-rule:evenodd;stroke-linejoin:round;stroke-miterlimit:2;">
  <g>
    <path d="M325.488,10.755c12.292,8.834 14.292,21.292 14.292,35.542c-0.292,138.542 -0.167,277.042 -0.167,415.583l0,17.625c6.458,0 11.958,-0.083 17.417,0c21.291,0.292 29,7.792 29.333,29.334c0.292,18.75 0.083,37.5 0.083,56.25l0,221.166c5.834,0.459 10.334,1.084 14.834,1.167c25.5,0.542 31.958,7.083 32.083,33c0.083,19.792 0.042,39.583 0.042,59.375c-0,77.583 -0.25,155.208 0.041,232.792c0.209,53.208 43.084,87.75 90.959,72.875c27.75,-8.625 45.166,-28.084 48.166,-57.292c2.167,-21.167 1.334,-42.625 1.375,-63.958c0.125,-65.084 0,-130.209 0.125,-195.292c0,-6.208 0.167,-12.625 1.75,-18.542c3,-10.958 11.792,-17.583 22.209,-15.041c7.833,1.916 15.083,8.958 20.791,15.333c2.792,3.125 2,9.958 2,15.125c0.084,81.75 0.375,163.542 -0.041,245.292c-0.334,59.791 -30.25,102.458 -82.292,119.291c-69.833,22.584 -146.917,-26.916 -150.375,-100.083c-3.333,-70.167 -1.375,-140.542 -1.667,-210.833c-0.125,-27.5 0,-55 0,-83.75l-326.291,-0c-0.542,2.291 -1.584,4.708 -1.584,7.125c0.25,101.541 -5,203.5 2.209,304.541c13.083,183.209 108.375,314.834 277.958,383.625c258.375,104.834 539.5,-47.166 599.792,-319.958c8,-36.208 9.916,-74.333 10.083,-111.583c0.958,-194.75 0.667,-389.542 0.292,-584.292c-0.084,-39.5 9.791,-74.375 40.875,-100.375c35.666,-29.833 76.333,-37.792 119.666,-20.208c43.667,17.708 70.875,51.083 72.625,98.5c2.625,71.75 1.209,143.708 1.5,215.541c0.042,14.042 0.042,28.125 0,42.167c-0.083,25.708 -7.125,36.333 -23.916,36.083c-16.209,-0.25 -23,-10.583 -23,-35.333c-0.042,-80.208 -0.209,-160.417 0.125,-240.583c0.125,-28.584 -8.792,-52.042 -33.875,-67.667c-43.334,-27.042 -100.459,0.625 -105.834,51.375c-1.041,9.792 -0.958,19.75 -1,29.625c-0.041,195.292 -0.041,390.583 0,585.875c0.042,234.333 -151.25,430.792 -375.291,486.333c-26.084,6.459 -53,9.667 -79.5,14.375l-75,0c-3.459,-0.875 -6.875,-2.208 -10.375,-2.583c-87.334,-8.625 -167.292,-37.583 -237.917,-89.583c-126.458,-93.084 -198.042,-218.084 -204.708,-375.459c-4.584,-109.125 -1.459,-218.583 -1.792,-327.875c0,-0.5 0,-1.041 0.042,-1.541c1.041,-17.792 8.541,-25.292 26.25,-26.167c6.541,-0.333 13.083,-0.625 20.666,-1l0,-259.208c0,-44.834 0,-44.834 43.625,-48.292c0.5,-0.042 0.959,-0.417 3.167,-1.5l0,-15.875c0,-138.458 0.083,-276.917 -0.167,-415.375c-0.041,-14.167 1.875,-26.708 14.25,-35.5l18.75,-0c11.875,9 14.209,21.25 14.167,35.5c-0.292,134.25 -0.167,268.5 -0.167,402.75l0,29.208l46.959,0l-0,-18.333c-0,-137.875 0.125,-275.792 -0.25,-413.667c-0.042,-14.333 2.458,-26.458 14.291,-35.458l18.75,-0c12.5,9.375 14.292,22.375 14.25,37.042c-0.333,137.375 -0.208,274.75 -0.208,412.125l0,18.916l46.958,0l0,-29.833c0,-134.25 0.125,-268.5 -0.208,-402.75c-0.042,-14.25 2.25,-26.542 14.208,-35.458c6.167,-0.209 12.417,-0.209 18.667,-0.209Zm13.208,516.209l-232.416,-0l-0,165.708l232.416,-0l0,-165.708Zm-0.125,214.541l-232.125,0l0,44.917l232.125,-0l0,-44.917Z" style="fill:#ed2128;fill-rule:nonzero;stroke:#ed272d;stroke-width:21.51px;"></path>
    <path d="M1150.57,1610.76c-11.958,-8.875 -14.333,-20.958 -14.333,-35.333c0.333,-235.417 0.208,-470.792 0.292,-706.208c-0,-5.709 -0,-11.542 1.208,-17.084c2.333,-11.041 9.792,-16.916 21.042,-17.375c11.916,-0.5 20.375,5 23.166,16.625c1.667,6.959 1.459,14.459 1.459,21.709c0.083,222.916 0.041,445.791 0.041,668.708l0,21.083l327.167,0c0.333,-5.625 0.875,-11.125 0.875,-16.625c0.042,-345.291 0.292,-690.583 -0.042,-1035.88c-0.208,-215.375 -138.041,-391.083 -345,-441.25c-243.291,-58.958 -495.75,106.5 -537.625,353.334c-5.541,32.625 -7.166,66.208 -7.625,99.416c-1.083,77.042 -0.291,154.167 -0.416,231.209c-0,6.208 1.041,14.125 -2.209,18.166c-5.291,6.542 -13.166,13.167 -21,14.959c-10.5,2.333 -18.833,-4.5 -22,-15.459c-1.125,-3.958 -1.583,-8.208 -1.583,-12.333c0.333,-94.792 -4.125,-189.875 2.167,-284.25c12.708,-191.542 109.833,-329.833 280.583,-416.167c51.042,-25.791 106,-39.75 163.083,-44.75c3,-0.25 5.917,-1.625 8.875,-2.458l75,-0c4,0.917 7.959,1.917 11.959,2.75c33.541,6.917 67.958,10.958 100.416,21.167c191.625,60.041 343.125,242.708 342.584,474.833c-0.875,356.5 -0.25,713.042 -0.042,1069.58c0,14.417 -3.833,25.375 -17.417,31.709c-130.166,-0.084 -260.416,-0.084 -390.625,-0.084Z" style="fill:#ed2128;fill-rule:nonzero;stroke:#ed272d;stroke-width:21.51px;"></path>
  </g>
</svg>
