<?xml version="1.0" encoding="UTF-8" standalone="no"?>
<svg xmlns="http://www.w3.org/2000/svg" xmlns:xlink="http://www.w3.org/1999/xlink" xmlns:serif="http://www.serif.com/" width="100%" height="100%" viewBox="0 0 1549 1551" version="1.1" xml:space="preserve" style="fill-rule:evenodd;clip-rule:evenodd;stroke-linejoin:round;stroke-miterlimit:2;">
  <g>
    <path d="M600.125,1400.59c1.5,-21.375 3.083,-41.541 4.333,-61.666c9.833,-159 19.458,-318.042 29.667,-477c0.708,-11.292 -1.542,-18.542 -11.542,-24.209c-10.833,-6.125 -20.917,-13.583 -32.667,-21.375c-2.291,5.375 -4.333,9.875 -6.166,14.5c-33.459,85.292 -114.084,142.834 -202.667,144.5c-22.917,0.417 -32.125,-8.541 -32.208,-31.708c-0.084,-30.625 -0.042,-61.25 -0.042,-91.625c-64.792,-11.458 -100.083,-47.708 -100,-101.542c0.083,-53.916 34.792,-89.583 100,-101.5c-0,-30.375 -0.083,-61 0.042,-91.666c0.083,-23.125 9.25,-32.042 32.25,-31.625c87.541,1.541 168.416,58.791 202.125,143.083c1.875,4.708 3.708,9.458 6.291,16.125c18.584,-12.333 36.417,-23.583 53.5,-35.958c3.334,-2.417 4.917,-8.875 5.209,-13.584c8.625,-134.583 17,-269.166 25.375,-403.75c1.458,-23.541 9.291,-31.041 33.166,-31.166c12.5,-0.084 25,-0.125 37.5,-0.25c0.959,-0 1.875,-0.584 4.625,-1.5c0,-15.334 0.875,-31.375 -0.583,-47.209c-0.375,-4.208 -7.375,-8.583 -12.208,-11.458c-31.834,-19 -45.334,-57.5 -31.875,-92.125c13.166,-33.875 49.333,-53.75 84.375,-46.333c36.416,7.666 62.125,39.958 60.125,76.75c-1.542,28.083 -14.792,49.666 -39.959,62.625c-7.625,3.958 -10.5,8.166 -10.041,16.625c0.708,13.458 0.208,27 0.208,42.916c15.458,0 30.292,-0.125 45.167,0.042c19.916,0.25 28.708,8.458 29.958,27.917c3,45.708 5.625,91.458 9.333,137.125c0.5,6 4.959,13.166 9.792,17.041c12.167,9.625 25.625,17.667 39.625,27.084c2,-4.625 3.708,-8.209 5.125,-11.917c33.25,-86.875 114.792,-145.667 204.125,-147.083c22.792,-0.375 31.875,8.625 31.958,31.958c0.084,30.625 0.042,61.25 0.042,91.625c64.375,10.208 100.875,48.333 100,103.125c-0.833,52.917 -39.292,91.708 -100,98.917l-0,73.958c-0,7.292 0.167,14.583 -0.042,21.875c-0.541,18.958 -10.375,28.292 -29.5,28.292c-88.75,-0 -171.916,-58.667 -205.583,-144.917c-1.667,-4.25 -3.417,-8.417 -5.792,-14.25c-11.666,7.708 -23.041,14 -32.666,22.292c-3.584,3.125 -4.542,11.083 -4.209,16.708c3.084,55.083 6.667,110.167 10.125,165.25c6.959,110.667 13.959,221.333 20.875,332.042c6.5,103.916 12.875,207.833 19.334,311.75c0.208,3.083 0.833,6.083 1.458,10.416c5.292,0.334 10.25,0.875 15.25,0.875c35.417,0.084 70.833,-0.083 106.25,0.084c19.542,0.125 29.25,9.291 29.417,28.291c0.333,31.25 0.333,62.5 -0,93.75c-0.209,18.167 -10,27.834 -28.334,27.834c-197.916,0.125 -395.875,0.125 -593.791,-0c-18.167,-0 -27.667,-9.917 -27.834,-28.292c-0.291,-31.25 -0.333,-62.5 0,-93.75c0.209,-18.208 9.875,-27.625 28.334,-27.792c34.916,-0.25 69.791,-0.083 104.708,-0.083c5.542,-0.042 11.167,-0.042 18.042,-0.042Zm523.333,-1097.08c-73.125,6.792 -155.25,77.875 -149.25,183.583c4.625,81.084 80.042,161.917 149.25,159.084l-0,-342.667Zm-723.833,618.542c66.208,-4.417 149.25,-69.625 149.166,-171.584c-0.083,-103.916 -84.958,-167.583 -149.166,-171.583l-0,343.167Zm375.75,-53.875c-2.834,2.041 -3.959,2.416 -4.417,3.208c-29.292,48.5 -58.75,96.917 -87.333,145.875c-2.375,4.083 -0.584,12.875 2.416,17.417c20.334,30.791 41.5,61.041 62.459,91.458c8.125,11.75 16.416,23.417 25.708,36.625c31.333,-45.583 61.417,-89.125 91.125,-132.958c1.75,-2.625 1.792,-8.25 0.167,-11.042c-29.667,-50.042 -59.667,-99.875 -90.125,-150.583Zm-275.75,631.375l548.166,-0l0,-48.209l-548.166,0l-0,48.209Zm274.333,-731.125c23.083,-38.459 44.167,-74.209 66.083,-109.5c5.084,-8.167 4.834,-14.542 1.334,-22.875c-18.209,-43.042 -35.917,-86.292 -53.792,-129.459c-4.042,-9.791 -8.083,-19.625 -12.75,-30.875c-2.333,3.125 -3.458,4.167 -4,5.417c-22,53.25 -44.042,106.5 -65.708,159.917c-1.5,3.666 -1.667,9.5 0.25,12.708c22.041,37.542 44.583,74.75 68.583,114.667Zm-0,483c-34.542,50.333 -67.542,98.375 -101.708,148.125l203.375,-0c-34.084,-49.709 -66.917,-97.5 -101.667,-148.125Zm105,-145.625c-1.25,-0.5 -2.5,-0.959 -3.75,-1.459c-22.625,32.917 -45.375,65.75 -67.542,99c-1.583,2.417 0.375,8.625 2.542,11.875c14.958,22.542 30.292,44.834 45.625,67.125c11.333,16.5 22.833,32.875 34.25,49.334c0.958,-0.334 1.917,-0.709 2.875,-1.042c-4.667,-74.958 -9.333,-149.875 -14,-224.833Zm-224.083,225.75c2.75,-1.084 4,-1.167 4.458,-1.834c26.5,-38.458 53.208,-76.833 79.042,-115.708c2.333,-3.5 1.166,-11.708 -1.417,-15.75c-13.5,-20.917 -27.958,-41.25 -42.125,-61.75c-7.5,-10.833 -15.042,-21.583 -22.583,-32.375c-1.084,0.375 -2.167,0.708 -3.25,1.083c-4.709,75.167 -9.375,150.292 -14.125,226.334Zm25.791,-413.334c0.917,0.375 1.792,0.75 2.709,1.125c19.625,-32.708 39.333,-65.375 58.75,-98.208c1.125,-1.875 1.291,-5.5 0.25,-7.292c-15.584,-26.5 -31.459,-52.833 -47.25,-79.208c-1,0.375 -2,0.708 -3,1.083c-3.792,60.834 -7.625,121.667 -11.459,182.5Zm175.084,-182.416c-1.125,-0.209 -2.25,-0.459 -3.375,-0.667c-15.125,25.25 -30.417,50.458 -45.209,75.917c-1.75,3 -2.291,8.541 -0.666,11.291c19.041,32.5 38.583,64.667 58.041,96.959c0.875,-0.334 1.792,-0.667 2.667,-1c-3.833,-60.875 -7.625,-121.709 -11.458,-182.5Zm319.291,-309.709l0,98.709c29.375,-2.459 49.042,-22.667 48.959,-49.375c-0.084,-26.917 -19.584,-46.917 -48.959,-49.334Zm-827.041,275.125c-29.667,1.959 -49.542,22.542 -49.125,50.042c0.375,26.708 20.291,46.667 49.125,48.5l-0,-98.542Zm463.375,-450.333l-74.792,0c12.292,29.875 24.125,58.5 37.417,90.833c13.375,-32.541 24.958,-60.666 37.375,-90.833Zm25.25,243.167c1.333,-0.167 2.666,-0.292 4.041,-0.459c-3.166,-49.791 -6.333,-99.583 -9.5,-149.416c-1.375,0.041 -2.75,0.083 -4.125,0.125c-7.416,18.208 -15.125,36.333 -22.083,54.708c-1.667,4.417 -2.667,10.458 -1.042,14.625c10.417,26.958 21.709,53.625 32.709,80.417Zm-116.5,-151.417c-1.209,0.208 -2.417,0.417 -3.625,0.667c-3.042,50.125 -6.084,100.208 -9.125,150.333c14.916,-26.458 26.208,-53.542 37.25,-80.708c1.083,-2.667 1.416,-6.417 0.416,-8.959c-8.083,-20.583 -16.583,-40.916 -24.916,-61.333Zm-81.334,445.708c1.5,-27.458 2.875,-51.708 4.375,-78.75c-14.875,9.792 -26.666,17.209 -38.041,25.209c-8.667,6.083 -9.417,24.708 -1.042,30.75c10.375,7.5 21.417,14.125 34.708,22.791Zm134.542,-688.083c13.375,0.333 25.167,-10.875 25.5,-24.292c0.333,-13.375 -10.917,-25.125 -24.333,-25.458c-13.375,-0.333 -25.167,10.875 -25.5,24.292c-0.375,13.333 10.916,25.125 24.333,25.458Zm117.417,341.167c-1.042,0.875 -2.084,1.708 -3.167,2.583c1.417,20.625 2.875,41.208 4.292,61.833c1.375,0.334 2.75,0.625 4.125,0.959c8.958,-12 32.333,-11.542 28.041,-35.125c-3.5,-19.334 -23.291,-18.834 -33.291,-30.25Z" style="fill:#ed2128;fill-rule:nonzero;"></path>
    <path d="M1548.12,299.713l-48.5,0c-2.25,-68.25 -25.5,-127.458 -73.667,-175.666c-48.167,-48.25 -107.208,-71.959 -175.958,-74.084l-0,-48.041c151.791,-6 301,127.791 298.125,297.791Z" style="fill:#ed2128;fill-rule:nonzero;"></path>
    <path d="M47.583,574.63l-47.417,0c-5.583,-154.458 130.167,-301.25 297.625,-298.167l0,47.417c-142.166,4.458 -246.375,115.417 -250.208,250.75Z" style="fill:#ed2128;fill-rule:nonzero;"></path>
    <path d="M1448.46,299.838l-48.708,0c-2.25,-40.541 -15.584,-76.25 -44.542,-105.083c-28.917,-28.875 -64.292,-43 -105.375,-44.667c-0,-16.416 -0,-31.875 0.042,-47.333c86.833,-9.25 199.708,74.167 198.583,197.083Z" style="fill:#ed2128;fill-rule:nonzero;"></path>
    <path d="M298.208,376.213l-0,48.584c-40.667,2.333 -76.333,15.75 -105.208,44.666c-28.584,28.584 -42.459,63.542 -44.584,104.75l-47.458,0c-8.792,-88.708 76.833,-199.916 197.25,-198Z" style="fill:#ed2128;fill-rule:nonzero;"></path>
    <path d="M1348.21,299.588l-48.292,0c-4.208,-28.958 -20.333,-46 -50.166,-49.875l-0,-47.958c51.541,-3.792 99.833,44.167 98.458,97.833Z" style="fill:#ed2128;fill-rule:nonzero;"></path>
    <path d="M298,523.963c-33.959,9.042 -41.584,16.667 -51.042,51.5l-45.958,0c-7.042,-45.166 39.75,-101.5 96.958,-99.125c0.042,15.834 0.042,31.75 0.042,47.625Z" style="fill:#ed2128;fill-rule:nonzero;"></path>
  </g>
</svg>
