<?xml version="1.0" encoding="UTF-8" standalone="no"?>
<svg xmlns="http://www.w3.org/2000/svg" xmlns:xlink="http://www.w3.org/1999/xlink" xmlns:serif="http://www.serif.com/" width="100%" height="100%" viewBox="0 0 441 1226" version="1.1" xml:space="preserve" style="fill-rule:evenodd;clip-rule:evenodd;stroke-linejoin:round;">
    <g transform="matrix(1,0,0,1,-8071.75,-5205.57)">
        <g id="路径_24614" transform="matrix(11.233,0,0,11.233,8347.49,5986.93)">
            <path d="M6.61,0.777C5.964,0.194 5.097,-0.081 4.233,0.021C2.801,0.183 1.679,1.328 1.546,2.762C1.465,3.601 1.738,4.436 2.299,5.065C2.751,5.562 3.006,6.206 3.016,6.878L3.016,7.839C3.016,8.096 3.224,8.305 3.482,8.305L3.553,8.305C3.646,8.799 4.076,9.157 4.578,9.158C5.081,9.157 5.511,8.799 5.604,8.305L5.675,8.305C5.933,8.305 6.141,8.096 6.141,7.839L6.141,6.878C6.137,6.223 6.38,5.59 6.821,5.106C7.338,4.545 7.625,3.809 7.624,3.046C7.623,2.18 7.255,1.356 6.61,0.777ZM4.579,8.774C4.289,8.773 4.034,8.583 3.95,8.305L5.208,8.305C5.124,8.583 4.869,8.773 4.579,8.774ZM5.758,7.839C5.758,7.885 5.721,7.921 5.676,7.921L3.482,7.921C3.437,7.921 3.4,7.885 3.4,7.839L3.4,7.07L5.758,7.07L5.758,7.839ZM4.005,4.767L3.797,4.767C3.682,4.767 3.589,4.674 3.589,4.559L3.589,4.477C3.589,4.362 3.682,4.269 3.797,4.269C3.912,4.269 4.005,4.362 4.005,4.477L4.005,4.767ZM4.389,5.151L4.769,5.151L4.769,6.686L4.389,6.686L4.389,5.151ZM6.539,4.846C6.077,5.352 5.803,6.002 5.764,6.686L5.153,6.686L5.153,5.151L5.361,5.151C5.688,5.15 5.953,4.885 5.953,4.559L5.953,4.476C5.953,4.149 5.688,3.885 5.361,3.884C5.034,3.885 4.769,4.149 4.769,4.476L4.769,4.767L4.389,4.767L4.389,4.476C4.389,4.149 4.124,3.885 3.797,3.884C3.47,3.885 3.206,4.15 3.206,4.476L3.206,4.559C3.206,4.885 3.47,5.15 3.797,5.151L4.005,5.151L4.005,6.686L3.394,6.686C3.34,5.989 3.056,5.329 2.587,4.81C2.096,4.26 1.858,3.53 1.929,2.797C2.057,1.549 3.03,0.556 4.275,0.402C5.031,0.313 5.789,0.555 6.354,1.064C6.918,1.569 7.24,2.29 7.24,3.047C7.241,3.714 6.991,4.357 6.539,4.847L6.539,4.846ZM5.153,4.767L5.153,4.476C5.153,4.361 5.246,4.268 5.361,4.268C5.476,4.268 5.569,4.361 5.569,4.476L5.569,4.559C5.569,4.673 5.476,4.767 5.361,4.767L5.153,4.767Z" style="fill-rule:nonzero;"></path>
        </g>
        <g id="路径_24615" transform="matrix(11.233,0,0,11.233,8347.49,5986.93)">
            <path d="M1.014,2.469L0.192,2.469C0.086,2.469 0,2.555 0,2.661C0,2.767 0.086,2.853 0.192,2.853L1.014,2.853C1.12,2.853 1.206,2.767 1.206,2.661C1.206,2.555 1.12,2.469 1.014,2.469Z" style="fill-rule:nonzero;"></path>
        </g>
        <g id="路径_24616" transform="matrix(11.233,0,0,11.233,8347.49,5986.93)">
            <path d="M0.864,3.591L0.151,4.002C0.059,4.055 0.027,4.173 0.08,4.264C0.115,4.324 0.178,4.361 0.247,4.361C0.28,4.361 0.313,4.352 0.342,4.335L1.055,3.924C1.147,3.871 1.179,3.753 1.126,3.662C1.073,3.57 0.956,3.538 0.864,3.591Z" style="fill-rule:nonzero;"></path>
        </g>
        <g id="路径_24617" transform="matrix(11.233,0,0,11.233,8347.49,5986.93)">
            <path d="M0.151,1.319L0.864,1.73C0.893,1.747 0.926,1.756 0.96,1.756C1.028,1.756 1.092,1.72 1.126,1.66C1.179,1.568 1.148,1.451 1.056,1.398L0.343,0.987C0.251,0.934 0.134,0.965 0.081,1.057C0.028,1.149 0.06,1.266 0.151,1.319Z" style="fill-rule:nonzero;"></path>
        </g>
        <g id="路径_24618" transform="matrix(11.233,0,0,11.233,8347.49,5986.93)">
            <path d="M8.966,2.469L8.143,2.469C8.037,2.469 7.951,2.555 7.951,2.661C7.951,2.767 8.037,2.853 8.143,2.853L8.966,2.853C9.072,2.853 9.158,2.767 9.158,2.661C9.158,2.555 9.072,2.469 8.966,2.469Z" style="fill-rule:nonzero;"></path>
        </g>
        <g id="路径_24619" transform="matrix(11.233,0,0,11.233,8347.49,5986.93)">
            <path d="M9.007,4.002L8.294,3.591C8.202,3.538 8.085,3.57 8.032,3.662C7.979,3.753 8.01,3.871 8.102,3.924L8.815,4.335C8.844,4.352 8.877,4.361 8.911,4.361C8.979,4.361 9.043,4.324 9.077,4.264C9.13,4.173 9.099,4.055 9.007,4.002Z" style="fill-rule:nonzero;"></path>
        </g>
        <g id="路径_24620" transform="matrix(11.233,0,0,11.233,8347.49,5986.93)">
            <path d="M8.199,1.756C8.232,1.756 8.265,1.747 8.294,1.73L9.007,1.319C9.099,1.266 9.131,1.149 9.078,1.057C9.025,0.965 8.908,0.934 8.816,0.987L8.103,1.398C8.011,1.451 7.979,1.568 8.032,1.66C8.067,1.72 8.13,1.756 8.199,1.756Z" style="fill-rule:nonzero;"></path>
        </g>
        <g transform="matrix(2.07869,0,0,1.9216,7691.09,5097.88)">
            <g transform="matrix(14.0674,0,0,14.0674,256.791,143.81)">
            </g>
            <text x="181.861px" y="143.81px" style="font-family:'Gotham-Medium', 'Gotham';font-weight:350;font-size:14.067px;">Micr<tspan x="211.666px 220.552px " y="143.81px 143.81px ">ow</tspan>ave</text>
        </g>
        <g transform="matrix(2.07869,0,0,1.9216,7691.09,5373.1)">
            <g transform="matrix(14.0674,0,0,14.0674,255.743,143.81)">
            </g>
            <text x="182.909px" y="143.81px" style="font-family:'Gotham-Medium', 'Gotham';font-weight:350;font-size:14.067px;">Cr<tspan x="198.839px 208.076px " y="143.81px 143.81px ">oc</tspan>kpots</text>
        </g>
        <g transform="matrix(2.07869,0,0,1.9216,7952.32,5097.88)">
            <g transform="matrix(14.0674,0,0,14.0674,266.417,143.81)">
            </g>
            <text x="172.235px" y="143.81px" style="font-family:'Gotham-Medium', 'Gotham';font-weight:350;font-size:14.067px;">W<tspan x="186.945px 195.128px 200.68px 209.173px " y="143.81px 143.81px 143.81px 143.81px ">ater</tspan> Heat<tspan x="252.114px 260.607px " y="143.81px 143.81px ">er</tspan></text>
        </g>
        <g id="编组-15" transform="matrix(11.6992,0,0,11.0232,8363.36,5212.97)">
            <path id="矩形" d="M8.067,1.648L8.91,1.648L8.91,3.175L8.067,3.175C7.644,3.175 7.301,2.833 7.301,2.412C7.301,1.99 7.644,1.648 8.067,1.648Z" style="fill:none;stroke:black;stroke-width:0.32px;"></path>
            <path id="路径" d="M8.201,3.144L8.201,4.131C8.201,4.384 8,4.589 7.752,4.589C7.503,4.589 7.302,4.384 7.302,4.131L7.302,2.395" style="fill:none;stroke:black;stroke-width:0.32px;stroke-linejoin:miter;"></path>
            <path id="路径1" serif:id="路径" d="M7.752,4.589L7.752,8.486C7.752,8.992 7.349,9.402 6.852,9.402L5.186,9.402C4.524,9.402 3.987,8.855 3.987,8.181" style="fill:none;stroke:black;stroke-width:0.32px;stroke-linejoin:miter;"></path>
            <path id="矩形1" serif:id="矩形" d="M5.953,0.083C5.953,0.037 5.918,0 5.875,0L0.13,0C0.087,0 0.052,0.037 0.052,0.083L0.052,8.072C0.052,8.118 0.087,8.155 0.13,8.155L5.875,8.155C5.918,8.155 5.953,8.118 5.953,8.072L5.953,0.083Z" style="fill:none;stroke:black;stroke-width:0.32px;stroke-linejoin:miter;"></path>
            <path id="路径2" serif:id="路径" d="M0.943,6.995L0.943,5.273C0.943,4.936 1.212,4.663 1.543,4.663L4.494,4.663C4.825,4.663 5.093,4.936 5.093,5.273L5.093,6.995" style="fill:none;stroke:black;stroke-width:0.32px;stroke-linejoin:miter;"></path>
            <path id="椭圆形" d="M1.737,6.102C1.88,6.059 1.916,6.076 1.942,6.102C1.97,6.13 1.986,6.169 1.986,6.212C1.986,6.254 1.97,6.293 1.942,6.321C1.916,6.348 1.88,6.365 1.84,6.365C1.8,6.365 1.763,6.348 1.737,6.321C1.71,6.293 1.693,6.254 1.693,6.212C1.693,6.169 1.71,6.13 1.737,6.102Z" style="fill:rgb(216,216,216);fill-rule:nonzero;stroke:black;stroke-width:0.32px;stroke-linejoin:miter;"></path>
            <path id="椭圆形备份" d="M2.936,6.102C3.079,6.059 3.115,6.076 3.142,6.102C3.169,6.13 3.186,6.169 3.186,6.212C3.186,6.254 3.169,6.293 3.142,6.321C3.115,6.348 3.079,6.365 3.039,6.365C2.999,6.365 2.963,6.348 2.936,6.321C2.909,6.293 2.892,6.254 2.892,6.212C2.892,6.169 2.909,6.13 2.936,6.102Z" style="fill:rgb(216,216,216);fill-rule:nonzero;stroke:black;stroke-width:0.32px;stroke-linejoin:miter;"></path>
            <path id="椭圆形备份-3" d="M4.136,6.102C4.278,6.059 4.315,6.076 4.341,6.102C4.368,6.13 4.385,6.169 4.385,6.212C4.385,6.254 4.368,6.293 4.341,6.321C4.315,6.348 4.278,6.365 4.238,6.365C4.198,6.365 4.162,6.348 4.136,6.321C4.108,6.293 4.092,6.254 4.092,6.212C4.092,6.169 4.108,6.13 4.136,6.102Z" style="fill:rgb(216,216,216);fill-rule:nonzero;stroke:black;stroke-width:0.32px;stroke-linejoin:miter;"></path>
            <path id="路径-3" d="M0,7.028L5.974,7.028" style="fill:none;stroke:black;stroke-width:0.32px;stroke-linejoin:miter;"></path>
            <path id="路径-31" serif:id="路径-3" d="M0,7.028L5.974,7.028" style="fill:none;stroke:black;stroke-width:0.32px;stroke-linejoin:miter;"></path>
            <path id="路径-4" d="M1.98,8.254L1.98,9.402" style="fill:none;stroke:black;stroke-width:0.32px;stroke-linecap:round;"></path>
        </g>
        <g transform="matrix(2.07869,0,0,1.9216,7952.32,5373.1)">
            <g transform="matrix(14.0674,0,0,14.0674,254.102,143.81)">
            </g>
            <text x="184.55px" y="143.81px" style="font-family:'Gotham-Medium', 'Gotham';font-weight:350;font-size:14.067px;">T<tspan x="192.058px 200.55px 204.569px 212.709px 221.075px " y="143.81px 143.81px 143.81px 143.81px 143.81px ">elevi</tspan>sion</text>
        </g>
        <g transform="matrix(2.07869,0,0,1.9216,7673.34,5625.36)">
            <g transform="matrix(14.0674,0,0,14.0674,252.526,143.81)">
            </g>
            <text x="201.934px" y="143.81px" style="font-family:'Gotham-Medium', 'Gotham';font-weight:350;font-size:14.067px;">Lapt<tspan x="233.863px 243.101px " y="143.81px 143.81px ">op</tspan></text>
        </g>
        <g transform="matrix(2.07869,0,0,1.9216,7930.47,5625.36)">
            <g transform="matrix(14.0674,0,0,14.0674,280.433,143.81)">
            </g>
            <text x="174.027px" y="143.81px" style="font-family:'Gotham-Medium', 'Gotham';font-weight:350;font-size:14.067px;">Air c<tspan x="206.999px 216.237px " y="143.81px 143.81px ">on</tspan>ditioner</text>
        </g>
        <g transform="matrix(2.07869,0,0,1.9216,7684.78,5875.08)">
            <text x="185.786px" y="143.81px" style="font-family:'Gotham-Medium', 'Gotham';font-weight:350;font-size:14.067px;">Induction</text>
            <g transform="matrix(14.0674,0,0,14.0674,244.749,158.988)">
            </g>
            <text x="193.903px" y="158.988px" style="font-family:'Gotham-Medium', 'Gotham';font-weight:350;font-size:14.067px;">C<tspan x="204.14px 213.378px 222.615px 230.447px 238.939px " y="158.988px 158.988px 158.988px 158.988px 158.988px ">ooker</tspan></text>
        </g>
        <g transform="matrix(2.07869,0,0,1.9216,7678.78,6150.29)">
            <g transform="matrix(14.0674,0,0,14.0674,242.519,143.81)">
            </g>
            <text x="196.133px" y="143.81px" style="font-family:'Gotham-Medium', 'Gotham';font-weight:350;font-size:14.067px;">Fridge</text>
        </g>
        <g transform="matrix(2.07869,0,0,1.9216,7941.01,5875.08)">
            <g transform="matrix(14.0674,0,0,14.0674,241.154,143.81)">
            </g>
            <text x="197.497px" y="143.81px" style="font-family:'Gotham-Medium', 'Gotham';font-weight:350;font-size:14.067px;">Lights</text>
        </g>
        <g transform="matrix(2.07869,0,0,1.9216,7943.01,6150.29)">
            <g transform="matrix(14.0674,0,0,14.0674,246.395,143.81)">
            </g>
            <text x="192.257px" y="143.81px" style="font-family:'Gotham-Medium', 'Gotham';font-weight:350;font-size:14.067px;">Cus<tspan x="218.241px 223.793px 233.031px " y="143.81px 143.81px 143.81px ">tom</tspan></text>
        </g>
        <g id="编组-10" transform="matrix(11.6946,0,0,11.6946,8096.88,5990.09)">
            <path id="椭圆形1" serif:id="椭圆形" d="M0.955,7.913C1.117,7.913 1.248,7.783 1.248,7.622C1.248,7.461 1.117,7.331 0.955,7.331C0.793,7.331 0.662,7.461 0.662,7.622C0.662,7.783 0.793,7.913 0.955,7.913Z" style="fill-rule:nonzero;stroke:black;stroke-width:0.09px;stroke-miterlimit:2;"></path>
            <path id="椭圆形备份-18" d="M1.932,7.913C2.094,7.913 2.226,7.783 2.226,7.622C2.226,7.461 2.094,7.331 1.932,7.331C1.77,7.331 1.639,7.461 1.639,7.622C1.639,7.783 1.77,7.913 1.932,7.913Z" style="fill-rule:nonzero;stroke:black;stroke-width:0.09px;stroke-miterlimit:2;"></path>
            <path id="椭圆形备份-19" d="M2.91,7.913C3.072,7.913 3.203,7.783 3.203,7.622C3.203,7.461 3.072,7.331 2.91,7.331C2.748,7.331 2.617,7.461 2.617,7.622C2.617,7.783 2.748,7.913 2.91,7.913Z" style="fill-rule:nonzero;stroke:black;stroke-width:0.09px;stroke-miterlimit:2;"></path>
            <path id="椭圆形备份-20" d="M3.887,7.913C4.049,7.913 4.18,7.783 4.18,7.622C4.18,7.461 4.049,7.331 3.887,7.331C3.725,7.331 3.594,7.461 3.594,7.622C3.594,7.783 3.725,7.913 3.887,7.913Z" style="fill-rule:nonzero;stroke:black;stroke-width:0.09px;stroke-miterlimit:2;"></path>
            <path id="矩形2" serif:id="矩形" d="M6.331,7.433C6.331,7.424 6.324,7.417 6.315,7.417L4.782,7.417C4.774,7.417 4.767,7.424 4.767,7.433L4.767,7.789C4.767,7.798 4.774,7.805 4.782,7.805L6.315,7.805C6.324,7.805 6.331,7.798 6.331,7.789L6.331,7.433Z" style="stroke:black;stroke-width:0.09px;stroke-miterlimit:2;"></path>
            <path id="路径-2" d="M0,6.782L6.947,6.782" style="fill:none;stroke:black;stroke-width:0.33px;stroke-linejoin:miter;"></path>
            <path id="椭圆形2" serif:id="椭圆形" d="M3.508,4.844C4.371,4.844 5.072,4.15 5.072,3.294C5.072,2.438 4.371,1.744 3.508,1.744C2.644,1.744 1.944,2.438 1.944,3.294C1.944,4.15 2.644,4.844 3.508,4.844Z" style="fill:none;stroke:black;stroke-width:0.33px;stroke-linejoin:miter;"></path>
            <path id="椭圆形备份-16" d="M3.481,5.62C4.777,5.62 5.827,4.579 5.827,3.294C5.827,2.01 4.777,0.969 3.481,0.969C2.186,0.969 1.135,2.01 1.135,3.294C1.135,4.579 2.186,5.62 3.481,5.62Z" style="fill:none;stroke:black;stroke-width:0.33px;stroke-linejoin:miter;"></path>
            <path id="矩形3" serif:id="矩形" d="M6.947,0.062C6.947,0.028 6.919,0 6.885,0L0.062,0C0.028,0 0,0.028 0,0.062L0,8.464C0,8.498 0.028,8.526 0.062,8.526L6.885,8.526C6.919,8.526 6.947,8.498 6.947,8.464L6.947,0.062Z" style="fill:none;stroke:black;stroke-width:0.33px;stroke-linejoin:miter;"></path>
        </g>
        <g id="编组-37" transform="matrix(11.9314,0,0,11.9314,8084.45,5749.65)">
            <path id="Stroke-147" d="M0.685,6.302L0.685,0.485C0.685,0.217 0.894,0 1.152,0L9.082,0C9.34,0 9.549,0.217 9.549,0.485L9.549,6.302" style="fill:none;stroke:black;stroke-width:0.32px;stroke-linecap:round;"></path>
            <path id="Stroke-148" d="M10.106,7.579L0.157,7.579C0.07,7.579 0,7.506 0,7.416L0.685,6.394L9.561,6.394L10.263,7.416C10.263,7.506 10.193,7.579 10.106,7.579Z" style="fill:none;stroke:black;stroke-width:0.32px;stroke-linecap:round;"></path>
            <path id="路径-6" d="M4.984,0.791L5.41,0.791" style="fill:none;stroke:black;stroke-width:0.32px;stroke-linecap:round;"></path>
        </g>
        <g id="编组-42" transform="matrix(12.8229,0,0,12.8229,8335.78,5758.6)">
            <path id="Stroke-336" d="M1.735,4.853L1.858,5.07C1.926,5.189 1.883,5.343 1.763,5.414C1.643,5.485 1.6,5.639 1.668,5.758L1.791,5.974" style="fill:none;stroke:black;stroke-width:0.32px;stroke-linecap:round;"></path>
            <path id="Stroke-337" d="M3.547,5.974L3.424,5.758C3.356,5.639 3.399,5.484 3.519,5.414C3.639,5.343 3.682,5.189 3.614,5.07L3.491,4.853" style="fill:none;stroke:black;stroke-width:0.32px;stroke-linecap:round;"></path>
            <path id="Stroke-338" d="M5.303,5.974L5.18,5.758C5.112,5.639 5.154,5.484 5.275,5.414C5.395,5.343 5.438,5.189 5.37,5.07L5.247,4.853" style="fill:none;stroke:black;stroke-width:0.32px;stroke-linecap:round;"></path>
            <path id="Stroke-339" d="M7.058,5.974L6.936,5.758C6.868,5.639 6.91,5.484 7.031,5.414C7.151,5.343 7.194,5.189 7.126,5.07L7.003,4.853" style="fill:none;stroke:black;stroke-width:0.32px;stroke-linecap:round;"></path>
            <path id="Stroke-340" d="M8.814,5.974L8.691,5.758C8.624,5.639 8.666,5.484 8.786,5.414C8.907,5.343 8.949,5.189 8.882,5.07L8.759,4.853" style="fill:none;stroke:black;stroke-width:0.32px;stroke-linecap:round;"></path>
            <path id="Stroke-341" d="M9.952,4.091L0.503,4.091C0.225,4.091 0,3.862 0,3.58L0,0.511C0,0.229 0.225,0 0.503,0L9.952,0C10.23,0 10.455,0.229 10.455,0.511L10.455,3.58C10.455,3.862 10.23,4.091 9.952,4.091Z" style="fill:none;stroke:black;stroke-width:0.32px;stroke-linecap:round;"></path>
            <path id="Stroke-343" d="M0,2.877L10.455,2.877" style="fill:none;stroke:black;stroke-width:0.32px;stroke-linecap:round;"></path>
            <path id="Stroke-344" d="M0.558,1.951L1.531,1.951" style="fill:none;stroke:black;stroke-width:0.32px;stroke-linecap:round;"></path>
            <path id="Stroke-345" d="M2.202,1.951L2.715,1.951" style="fill:none;stroke:black;stroke-width:0.32px;stroke-linecap:round;"></path>
        </g>
        <g id="编组-9" transform="matrix(12.4107,0,0,12.4107,8346.63,5491.18)">
            <path id="路径3" serif:id="路径" d="M6.268,7.255L6.268,6.384L3.656,6.384L3.656,7.255" style="fill:none;stroke:black;stroke-width:0.32px;stroke-linecap:round;"></path>
            <path id="Stroke-301" d="M0.519,0L9.347,0C9.634,0 9.866,0.238 9.866,0.532L9.866,5.928C9.866,6.18 9.667,6.384 9.421,6.384L0.519,6.384C0.232,6.384 0,6.146 0,5.852L0,0.532C0,0.238 0.232,0 0.519,0Z" style="fill:none;stroke:black;stroke-width:0.32px;stroke-linejoin:miter;"></path>
            <path id="Stroke-302" d="M2.265,7.4L7.488,7.4" style="fill:none;stroke:black;stroke-width:0.32px;stroke-linecap:round;"></path>
        </g>
        <g id="编组-87备份-2" transform="matrix(11.0543,0,0,11.6631,8100.05,6258.38)">
            <g id="编组-26">
                <path id="矩形4" serif:id="矩形" d="M6.574,0.077C6.574,0.035 6.537,0 6.492,0L0.081,0C0.037,0 0,0.035 0,0.077L0,9.544C0,9.587 0.037,9.622 0.081,9.622L6.492,9.622C6.537,9.622 6.574,9.587 6.574,9.544L6.574,0.077Z" style="fill:none;stroke:black;stroke-width:0.32px;stroke-linejoin:miter;"></path>
                <path id="Stroke-53" d="M1.207,1.242L1.207,2.087" style="fill:none;stroke:black;stroke-width:0.32px;stroke-linecap:round;"></path>
                <path id="Stroke-55" d="M1.207,4.96L1.207,6.227" style="fill:none;stroke:black;stroke-width:0.32px;stroke-linecap:round;"></path>
                <path id="路径-5" d="M0.021,3.844L6.52,3.844" style="fill:none;stroke:black;stroke-width:0.32px;stroke-linejoin:miter;"></path>
            </g>
        </g>
        <g id="编组-40" transform="matrix(12.4239,0,0,12.4239,8088.16,5223.57)">
            <path id="Stroke-57" d="M9.666,6.094L0.49,6.094C0.355,6.094 0.232,6.039 0.143,5.95C0.055,5.862 0,5.739 0,5.604L0,0.49C0,0.337 0.07,0.2 0.181,0.11C0.265,0.041 0.373,0 0.49,0L9.666,0C9.79,0 9.903,0.046 9.989,0.121C10.092,0.211 10.156,0.343 10.156,0.49L10.156,5.604C10.156,5.745 10.097,5.872 10.001,5.961C9.914,6.044 9.796,6.094 9.666,6.094Z" style="fill:none;stroke:black;stroke-width:0.32px;stroke-linecap:round;"></path>
            <path id="Stroke-59" d="M7.411,0L7.411,6.094" style="fill:none;stroke:black;stroke-width:0.32px;stroke-linecap:round;"></path>
            <rect id="Stroke-61" x="0.961" y="0.871" width="5.514" height="4.353" style="fill:none;stroke:black;stroke-width:0.32px;stroke-linecap:round;"></rect>
            <path id="Stroke-63" d="M7.411,4.643L10.044,4.643" style="fill:none;stroke:black;stroke-width:0.32px;stroke-linecap:round;"></path>
            <path id="Stroke-64" d="M9.368,1.451C9.368,1.771 9.108,2.031 8.787,2.031C8.467,2.031 8.207,1.771 8.207,1.451C8.207,1.131 8.467,0.871 8.787,0.871C9.108,0.871 9.368,1.131 9.368,1.451Z" style="fill:none;stroke:black;stroke-width:0.32px;stroke-linecap:round;"></path>
            <path id="Stroke-65" d="M9.368,3.192C9.368,3.513 9.108,3.772 8.787,3.772C8.467,3.772 8.207,3.513 8.207,3.192C8.207,2.871 8.467,2.612 8.787,2.612C9.108,2.612 9.368,2.871 9.368,3.192Z" style="fill:none;stroke:black;stroke-width:0.32px;stroke-linecap:round;"></path>
        </g>
        <g id="编组-7" transform="matrix(11.7734,0,0,11.7734,8082.46,5491.18)">
            <g id="编组-6">
                <path id="Stroke-277备份" d="M6.308,5.132C6.252,5.132 6.197,5.135 6.141,5.131C6.039,5.131 5.956,5.05 5.954,4.949C5.952,4.847 6.034,4.764 6.136,4.762C6.251,4.757 6.366,4.757 6.48,4.762C6.582,4.763 6.664,4.847 6.662,4.948L6.662,4.949C6.66,5.05 6.577,5.131 6.474,5.131C6.419,5.135 6.363,5.132 6.308,5.132Z" style="fill-rule:nonzero;stroke:black;stroke-width:0.32px;stroke-linejoin:miter;"></path>
                <path id="Stroke-278备份" d="M4.744,5.134C4.646,5.128 4.569,5.048 4.569,4.951C4.567,4.853 4.644,4.771 4.742,4.766C4.864,4.76 4.985,4.76 5.106,4.766C5.201,4.773 5.275,4.85 5.277,4.943C5.28,5.041 5.206,5.124 5.108,5.133C5.046,5.139 4.983,5.134 4.921,5.134C4.862,5.135 4.803,5.139 4.744,5.134Z" style="fill-rule:nonzero;stroke:black;stroke-width:0.32px;stroke-linejoin:miter;"></path>
                <path id="矩形5" serif:id="矩形" d="M10.353,1.774L10.353,5.865C10.353,6.189 10.22,6.484 10.005,6.697C9.79,6.91 9.493,7.041 9.165,7.041L2.037,7.041C1.709,7.041 1.412,6.91 1.197,6.697C0.982,6.484 0.849,6.189 0.849,5.865L0.849,1.774L10.353,1.774Z" style="fill:none;stroke:black;stroke-width:0.32px;stroke-linejoin:miter;"></path>
                <path id="路径-32" serif:id="路径-3" d="M0.92,6.369L10.275,6.369" style="fill:none;stroke:black;stroke-width:0.32px;stroke-linejoin:miter;"></path>
                <path id="矩形6" serif:id="矩形" d="M7.638,3.4C7.638,3.369 7.612,3.343 7.581,3.343L3.621,3.343C3.59,3.343 3.564,3.369 3.564,3.4L3.564,5.639C3.564,5.671 3.59,5.696 3.621,5.696L7.581,5.696C7.612,5.696 7.638,5.671 7.638,5.639L7.638,3.4Z" style="fill:none;stroke:black;stroke-width:0.32px;stroke-linejoin:miter;"></path>
                <path id="路径4" serif:id="路径" d="M6.28,0.672C6.28,0.301 5.976,0 5.601,0C5.226,0 4.922,0.301 4.922,0.672" style="fill:none;stroke:black;stroke-width:0.32px;stroke-linejoin:miter;"></path>
                <path id="路径5" serif:id="路径" d="M1.018,3.095C0.456,3.095 0,3.07 0,3.04L0,2.815C0,2.784 0.456,2.759 1.018,2.759" style="fill:none;stroke:black;stroke-width:0.32px;stroke-linejoin:miter;"></path>
                <g id="路径备份" transform="matrix(-1,0,0,1,21.3856,0)">
                    <path d="M11.202,3.095C10.64,3.095 10.184,3.07 10.184,3.04L10.184,2.815C10.184,2.784 10.64,2.759 11.202,2.759" style="fill:none;stroke:black;stroke-width:0.32px;stroke-linejoin:miter;"></path>
                </g>
                <path id="矩形7" serif:id="矩形" d="M5.603,0.722C7.225,0.722 8.843,0.926 10.459,1.336C10.515,1.35 10.563,1.382 10.597,1.425C10.63,1.469 10.65,1.523 10.65,1.581L0.643,1.728C0.515,1.534 0.534,1.474 0.569,1.427C0.602,1.383 0.649,1.351 0.705,1.337C2.347,0.927 3.979,0.722 5.603,0.722Z" style="fill:none;stroke:black;stroke-width:0.32px;stroke-linejoin:miter;"></path>
            </g>
        </g>
        <g id="编组-12" transform="matrix(10.9109,0,0,10.9109,8361.71,6277.3)">
            <path id="椭圆_826" d="M1.263,7.44C1.407,7.44 1.524,7.325 1.524,7.183C1.524,7.041 1.407,6.926 1.263,6.926C1.119,6.926 1.002,7.041 1.002,7.183C1.002,7.325 1.119,7.44 1.263,7.44Z" style="fill-rule:nonzero;stroke:black;stroke-width:0.09px;stroke-miterlimit:2;"></path>
            <path id="路径_24875" d="M3.964,4.245L1.572,6.6C1.541,6.631 1.524,6.672 1.524,6.714C1.524,6.757 1.541,6.798 1.572,6.828C1.603,6.858 1.644,6.874 1.687,6.874C1.731,6.875 1.772,6.858 1.803,6.828L4.195,4.473C4.226,4.442 4.243,4.401 4.243,4.359C4.243,4.316 4.226,4.275 4.195,4.245C4.165,4.215 4.123,4.198 4.08,4.198C4.036,4.198 3.995,4.215 3.964,4.245Z" style="fill-rule:nonzero;stroke:black;stroke-width:0.09px;stroke-miterlimit:2;"></path>
            <path id="路径_24876-path" d="M5.498,0.055C5.933,-0.039 6.395,-0.014 6.831,0.144L5.763,1.222L5.85,2.497L7.138,2.581L8.21,1.526C8.398,1.958 8.424,2.411 8.329,2.838C8.234,3.266 8.017,3.667 7.692,3.989C7.359,4.314 6.945,4.528 6.506,4.62C6.029,4.72 5.521,4.677 5.051,4.476L1.703,8.072C1.523,8.267 1.269,8.38 1.004,8.385C0.722,8.385 0.471,8.285 0.286,8.101C0.097,7.917 -0.006,7.664 0,7.401C0.005,7.139 0.12,6.891 0.317,6.714L3.923,3.459C3.66,2.981 3.58,2.447 3.668,1.941C3.749,1.475 3.973,1.034 4.326,0.684C4.655,0.362 5.063,0.148 5.498,0.055Z" style="fill:none;stroke:black;stroke-width:0.36px;stroke-linejoin:miter;"></path>
        </g>
    </g>
</svg>
