<?xml version="1.0" encoding="UTF-8" standalone="no"?>
<svg xmlns="http://www.w3.org/2000/svg" xmlns:xlink="http://www.w3.org/1999/xlink" xmlns:serif="http://www.serif.com/" width="100%" height="100%" viewBox="0 0 185 51" version="1.1" xml:space="preserve" style="fill-rule:evenodd;clip-rule:evenodd;stroke-linejoin:round;stroke-miterlimit:2;">
    <g transform="matrix(1,0,0,1,-2992.89,-6542.21)">
        <g transform="matrix(1,0,0,1,34.4057,5370.01)">
            <g transform="matrix(-5.55556,0,0,5.55556,2978.33,1194.18)">
                <path d="M-2.83,-1.861L-1.521,-1.861L0,-0.677L-0.408,0L-2.83,-1.861Z" style="fill:rgb(1,1,1);fill-rule:nonzero;"></path>
            </g>
        </g>
        <g transform="matrix(1,0,0,1,34.4057,5370.01)">
            <g transform="matrix(5.55556,0,0,5.55556,2958.48,1195.3)">
                <path d="M0,1.888L1.266,1.888L2.797,0.695L2.408,0L0,1.888Z" style="fill:rgb(1,1,1);fill-rule:nonzero;"></path>
            </g>
        </g>
        <g transform="matrix(1,0,0,1,34.4057,5370.01)">
            <g transform="matrix(2.7368,4.83468,4.83468,-2.7368,2981.16,1181.21)">
                <path d="M-0.858,-2.478L3.681,-2.478L4.25,-1.472L-0.289,-1.472L-0.858,-2.478Z" style="fill:rgb(1,1,1);fill-rule:nonzero;"></path>
            </g>
        </g>
        <g transform="matrix(1,0,0,1,34.4057,5370.01)">
            <g transform="matrix(60.4842,-44.7889,44.7889,60.4842,3067.4,1210.26)">
                <path d="M0.714,-0.101L0.393,-0.015L0.511,0.072L0.009,0.214L0.699,0.148L0.582,0.061L0.867,0.013L0.714,-0.101Z" style="fill:url(#_Linear1);fill-rule:nonzero;"></path>
            </g>
        </g>
        <g transform="matrix(1,0,0,1,34.4057,5370.01)">
            <g transform="matrix(5.55556,0,0,5.55556,3142.88,1205.78)">
                <path d="M0,-3.95L-4.159,-3.95L-4.405,-3.221L-2.747,-3.221L-3.835,0L-2.993,0L-1.904,-3.221L-0.246,-3.221L0,-3.95Z" style="fill:rgb(35,31,32);fill-rule:nonzero;"></path>
            </g>
        </g>
        <g transform="matrix(1,0,0,1,34.4057,5370.01)">
            <g transform="matrix(-1.77761,5.26349,5.26349,1.77761,3001.65,1188.82)">
                <path d="M1.258,-1.738L2.14,-1.738L1.248,0.903L0.366,0.903L1.258,-1.738Z" style="fill:rgb(35,31,32);fill-rule:nonzero;"></path>
            </g>
        </g>
        <g transform="matrix(1,0,0,1,34.4057,5370.01)">
            <g transform="matrix(5.55556,0,0,5.55556,3084.34,1200.85)">
                <path d="M0,-2.175L-0.73,-0.014C-0.762,0.08 -0.867,0.159 -0.96,0.159L-3.639,0.159C-3.681,0.159 -3.714,0.143 -3.734,0.115C-3.755,0.085 -3.758,0.044 -3.743,-0L-3.013,-2.161C-2.981,-2.257 -2.877,-2.334 -2.783,-2.334L-0.104,-2.334C-0.062,-2.334 -0.029,-2.318 -0.009,-2.29C0.012,-2.26 0.015,-2.219 0,-2.175M0.706,-2.808C0.592,-2.972 0.4,-3.063 0.166,-3.063L-2.588,-3.063C-3.078,-3.063 -3.611,-2.664 -3.776,-2.175L-4.506,-0.014C-4.589,0.232 -4.569,0.461 -4.449,0.633C-4.335,0.797 -4.143,0.888 -3.909,0.888L-1.155,0.888C-0.665,0.888 -0.132,0.489 0.033,-0L0.763,-2.161C0.846,-2.407 0.826,-2.636 0.706,-2.808" style="fill:rgb(35,31,32);fill-rule:nonzero;"></path>
            </g>
        </g>
        <g transform="matrix(1,0,0,1,34.4057,5370.01)">
            <g transform="matrix(5.55556,0,0,5.55556,3041.52,1201.73)">
                <path d="M0,-2.492L2.679,-2.492C2.72,-2.492 2.754,-2.476 2.774,-2.448C2.794,-2.418 2.798,-2.377 2.783,-2.333L2.052,-0.172C2.02,-0.077 1.917,0.001 1.822,0.001L-0.856,0.001C-0.898,0.001 -0.932,-0.015 -0.951,-0.043C-0.972,-0.073 -0.976,-0.114 -0.96,-0.158L-0.23,-2.319C-0.198,-2.415 -0.095,-2.492 0,-2.492M3.489,-2.966C3.374,-3.13 3.182,-3.221 2.948,-3.221L0.195,-3.221C-0.295,-3.221 -0.828,-2.823 -0.994,-2.333L-1.724,-0.172C-1.807,0.073 -1.786,0.303 -1.666,0.475C-1.552,0.639 -1.36,0.729 -1.126,0.729L1.628,0.729C2.117,0.729 2.65,0.331 2.816,-0.158L3.546,-2.319C3.629,-2.565 3.609,-2.795 3.489,-2.966" style="fill:rgb(35,31,32);fill-rule:nonzero;"></path>
            </g>
        </g>
        <g transform="matrix(1,0,0,1,34.4057,5370.01)">
            <g transform="matrix(5.55556,0,0,5.55556,3032.56,1196.84)">
                <path d="M0,-0.729L0.24,-1.438C0.323,-1.684 0.302,-1.914 0.182,-2.086C0.068,-2.25 -0.124,-2.34 -0.358,-2.34L-3.69,-2.34L-3.937,-1.611L-0.628,-1.611C-0.586,-1.611 -0.553,-1.596 -0.533,-1.568C-0.512,-1.538 -0.509,-1.497 -0.524,-1.452L-0.768,-0.729L-3.136,-0.729L-3.383,-0L-1.014,-0L-1.254,0.709C-1.286,0.804 -1.389,0.882 -1.484,0.882L-4.011,0.882L-3.255,-1.356L-4.023,-1.356L-5.025,1.611L-1.679,1.611C-1.189,1.611 -0.656,1.212 -0.491,0.723L-0.027,-0.649L0,-0.729Z" style="fill:rgb(35,31,32);fill-rule:nonzero;"></path>
            </g>
        </g>
    </g>
    <defs>
        <linearGradient id="_Linear1" x1="0" y1="0" x2="1" y2="0" gradientUnits="userSpaceOnUse" gradientTransform="matrix(1,0,0,-1,0,0.113567)"><stop offset="0" style="stop-color:rgb(157,139,106);stop-opacity:1"></stop><stop offset="0.55" style="stop-color:rgb(157,139,106);stop-opacity:1"></stop><stop offset="0.81" style="stop-color:rgb(249,216,152);stop-opacity:1"></stop><stop offset="1" style="stop-color:rgb(247,230,171);stop-opacity:1"></stop></linearGradient>
    </defs>
</svg>
