<?xml version="1.0" encoding="UTF-8" standalone="no"?>
<svg xmlns="http://www.w3.org/2000/svg" xmlns:xlink="http://www.w3.org/1999/xlink" xmlns:serif="http://www.serif.com/" width="100%" height="100%" viewBox="0 0 164 185" version="1.1" xml:space="preserve" style="fill-rule:evenodd;clip-rule:evenodd;stroke-linejoin:round;stroke-miterlimit:2;">
    <g transform="matrix(1,0,0,1,-3911.15,-2221.35)">
        <g transform="matrix(1,0,0,1,2438.05,0)">
            <g transform="matrix(0.92697,0,0,0.92697,120.686,2120.3)">
                <g transform="matrix(4.16667,0,0,4.16667,1519.27,172.178)">
                    <path d="M0,6.387L0,8.868L-9.112,8.868L-9.112,-2.481L-0.211,-2.481L-0.211,-0.001L-5.934,-0.001L-5.934,1.912L-0.892,1.912L-0.892,4.312L-5.934,4.312L-5.934,6.387L0,6.387Z" style="fill:white;fill-rule:nonzero;"></path>
                </g>
                <g transform="matrix(4.16667,0,0,4.16667,1524.2,185.482)">
                    <path d="M0,0C0,-3.453 2.643,-5.901 6.242,-5.901C8.333,-5.901 10.019,-5.139 11.122,-3.761L9.079,-1.913C8.366,-2.772 7.49,-3.243 6.404,-3.243C4.54,-3.243 3.243,-1.946 3.243,0C3.243,1.946 4.54,3.243 6.404,3.243C7.49,3.243 8.366,2.772 9.079,1.913L11.122,3.761C10.019,5.139 8.333,5.901 6.242,5.901C2.643,5.901 0,3.453 0,0" style="fill:white;fill-rule:nonzero;"></path>
                </g>
                <g transform="matrix(4.16667,0,0,4.16667,1612.09,185.482)">
                    <path d="M0,0C0,-1.962 -1.346,-3.243 -3.064,-3.243C-4.783,-3.243 -6.128,-1.962 -6.128,0C-6.128,1.962 -4.783,3.243 -3.064,3.243C-1.346,3.243 0,1.962 0,0M-9.371,0C-9.371,-3.405 -6.696,-5.901 -3.064,-5.901C0.567,-5.901 3.243,-3.405 3.243,0C3.243,3.405 0.567,5.901 -3.064,5.901C-6.696,5.901 -9.371,3.405 -9.371,0" style="fill:white;fill-rule:nonzero;"></path>
                </g>
                <g transform="matrix(4.16667,0,0,4.16667,1495.66,239.336)">
                    <path d="M0,-4.967L-2.694,-4.967C-2.926,-4.967 -3.109,-4.9 -3.244,-4.765C-3.379,-4.63 -3.446,-4.446 -3.446,-4.215L-3.446,-0.672C-3.446,-0.423 -3.389,-0.25 -3.276,-0.15C-3.163,-0.05 -2.966,0 -2.686,0C-2.556,0 -2.43,-0.008 -2.305,-0.024C-2.181,-0.041 -2.09,-0.057 -2.03,-0.073L-2.03,-1.804L-0.615,-1.804C-0.464,-1.804 -0.344,-1.85 -0.255,-1.942C-0.166,-2.033 -0.121,-2.179 -0.121,-2.378C-0.121,-2.492 -0.138,-2.595 -0.17,-2.69C-0.202,-2.784 -0.237,-2.861 -0.275,-2.92L-2.047,-2.92L-2.047,-3.834L-0.348,-3.834C-0.197,-3.834 -0.077,-3.882 0.012,-3.976C0.101,-4.07 0.146,-4.217 0.146,-4.417C0.146,-4.53 0.131,-4.635 0.101,-4.732C0.071,-4.829 0.038,-4.908 0,-4.967" style="fill:white;fill-rule:nonzero;"></path>
                </g>
                <g transform="matrix(4.16667,0,0,4.16667,1505.03,234.55)">
                    <path d="M0,-2.791C0.059,-2.802 0.116,-2.81 0.17,-2.815C0.224,-2.821 0.286,-2.823 0.356,-2.823C0.642,-2.823 0.851,-2.771 0.983,-2.666C1.115,-2.56 1.181,-2.405 1.181,-2.2C1.181,-1.995 1.108,-1.84 0.963,-1.735C0.817,-1.63 0.631,-1.578 0.404,-1.578L0,-1.578L0,-2.791ZM2.253,-0.146C2.142,-0.291 2.025,-0.442 1.901,-0.599C1.847,-0.667 1.794,-0.736 1.741,-0.805C1.981,-0.943 2.179,-1.12 2.334,-1.335C2.52,-1.594 2.613,-1.888 2.613,-2.217C2.613,-2.745 2.424,-3.167 2.047,-3.483C1.669,-3.798 1.108,-3.956 0.364,-3.956C0.089,-3.956 -0.17,-3.941 -0.413,-3.911C-0.655,-3.882 -0.868,-3.835 -1.052,-3.77C-1.154,-3.732 -1.238,-3.682 -1.302,-3.62C-1.367,-3.558 -1.399,-3.471 -1.399,-3.357L-1.399,0.477C-1.399,0.725 -1.343,0.899 -1.23,0.999C-1.116,1.099 -0.92,1.149 -0.639,1.149C-0.51,1.149 -0.383,1.14 -0.259,1.124C-0.135,1.108 -0.043,1.092 0.016,1.076L0.016,-0.502L0.446,-0.502L1.133,0.607C1.235,0.774 1.347,0.909 1.468,1.011C1.59,1.113 1.766,1.165 1.998,1.165C2.176,1.165 2.336,1.113 2.479,1.011C2.622,0.909 2.721,0.766 2.775,0.582C2.721,0.491 2.648,0.383 2.556,0.259C2.464,0.135 2.363,0 2.253,-0.146" style="fill:white;fill-rule:nonzero;"></path>
                </g>
                <g transform="matrix(4.16667,0,0,4.16667,1524.88,238.759)">
                    <path d="M0,-4.78C-0.119,-4.872 -0.313,-4.918 -0.582,-4.918C-0.701,-4.918 -0.824,-4.908 -0.95,-4.889C-1.077,-4.87 -1.173,-4.855 -1.238,-4.845L-1.238,-0.533C-1.238,-0.285 -1.181,-0.111 -1.068,-0.011C-0.955,0.088 -0.758,0.138 -0.477,0.138C-0.348,0.138 -0.221,0.13 -0.097,0.114C0.027,0.098 0.119,0.082 0.178,0.066L0.178,-4.246C0.178,-4.51 0.119,-4.688 0,-4.78" style="fill:white;fill-rule:nonzero;"></path>
                </g>
                <g transform="matrix(4.16667,0,0,4.16667,1544.4,223.291)">
                    <path d="M0,2.694L-2.079,2.694L-2.079,1.845L-0.599,1.845C-0.448,1.845 -0.329,1.8 -0.243,1.711C-0.156,1.622 -0.113,1.478 -0.113,1.278C-0.113,1.165 -0.128,1.063 -0.158,0.971C-0.187,0.879 -0.221,0.804 -0.259,0.744L-2.079,0.744L-2.079,-0.008L-0.372,-0.008C-0.221,-0.008 -0.103,-0.054 -0.016,-0.145C0.07,-0.237 0.113,-0.383 0.113,-0.582C0.113,-0.695 0.098,-0.798 0.069,-0.89C0.039,-0.981 0.005,-1.057 -0.032,-1.116L-2.702,-1.116C-2.934,-1.116 -3.117,-1.049 -3.252,-0.914C-3.387,-0.779 -3.454,-0.596 -3.454,-0.364L-3.454,3.058C-3.454,3.29 -3.387,3.473 -3.252,3.608C-3.117,3.743 -2.934,3.81 -2.702,3.81L-0.34,3.81C-0.189,3.81 -0.07,3.766 0.016,3.677C0.102,3.588 0.146,3.444 0.146,3.244C0.146,3.131 0.131,3.026 0.101,2.929C0.071,2.832 0.038,2.753 0,2.694" style="fill:white;fill-rule:nonzero;"></path>
                </g>
                <g transform="matrix(4.16667,0,0,4.16667,1563.95,239.336)">
                    <path d="M0,-5.056C-0.124,-5.056 -0.245,-5.048 -0.364,-5.032C-0.483,-5.016 -0.572,-5.002 -0.631,-4.991L-0.631,-3.713C-0.631,-3.427 -0.63,-3.125 -0.627,-2.807C-0.625,-2.53 -0.611,-2.231 -0.586,-1.909L-0.623,-1.901C-0.671,-2.031 -0.719,-2.149 -0.764,-2.257C-0.81,-2.365 -0.856,-2.47 -0.902,-2.573C-0.948,-2.675 -0.998,-2.78 -1.052,-2.888L-1.861,-4.522C-1.968,-4.743 -2.113,-4.885 -2.293,-4.947C-2.474,-5.009 -2.664,-5.04 -2.864,-5.04C-3.042,-5.04 -3.209,-5.013 -3.365,-4.959C-3.522,-4.905 -3.638,-4.824 -3.713,-4.716L-3.713,-0.647C-3.713,-0.405 -3.659,-0.236 -3.551,-0.142C-3.443,-0.047 -3.255,0 -2.985,0C-2.861,0 -2.738,-0.008 -2.617,-0.024C-2.496,-0.041 -2.408,-0.054 -2.354,-0.065L-2.354,-1.946C-2.354,-2.148 -2.358,-2.362 -2.366,-2.589C-2.372,-2.762 -2.383,-2.942 -2.397,-3.128L-2.346,-3.139C-2.292,-3.009 -2.244,-2.891 -2.2,-2.783C-2.157,-2.675 -2.113,-2.571 -2.067,-2.471C-2.021,-2.372 -1.971,-2.265 -1.917,-2.152L-1.116,-0.518C-1.003,-0.291 -0.858,-0.148 -0.68,-0.089C-0.502,-0.03 -0.313,0 -0.113,0C0.086,0 0.257,-0.022 0.4,-0.065C0.543,-0.108 0.652,-0.165 0.728,-0.235L0.728,-4.409C0.728,-4.652 0.674,-4.82 0.566,-4.914C0.458,-5.009 0.27,-5.056 0,-5.056" style="fill:white;fill-rule:nonzero;"></path>
                </g>
                <g transform="matrix(4.16667,0,0,4.16667,1582.91,224.303)">
                    <path d="M0,2.176C-0.235,2.413 -0.535,2.532 -0.902,2.532C-0.972,2.532 -1.052,2.528 -1.141,2.52C-1.23,2.512 -1.304,2.502 -1.363,2.491L-1.363,-0.324C-1.282,-0.334 -1.203,-0.342 -1.124,-0.348C-1.046,-0.353 -0.969,-0.356 -0.894,-0.356C-0.64,-0.356 -0.421,-0.301 -0.235,-0.19C-0.049,-0.08 0.096,0.084 0.198,0.299C0.301,0.515 0.352,0.785 0.352,1.108C0.352,1.583 0.235,1.939 0,2.176M0.477,-1.217C0.059,-1.404 -0.43,-1.497 -0.991,-1.497C-1.196,-1.497 -1.428,-1.484 -1.687,-1.46C-1.945,-1.436 -2.191,-1.386 -2.423,-1.311C-2.525,-1.273 -2.609,-1.223 -2.674,-1.161C-2.738,-1.099 -2.771,-1.011 -2.771,-0.898L-2.771,2.88C-2.771,3.16 -2.622,3.357 -2.326,3.47C-2.11,3.551 -1.866,3.605 -1.594,3.632C-1.321,3.659 -1.093,3.673 -0.91,3.673C-0.365,3.673 0.11,3.577 0.518,3.385C0.925,3.194 1.242,2.907 1.468,2.524C1.695,2.141 1.808,1.661 1.808,1.084C1.808,0.496 1.691,0.012 1.456,-0.368C1.222,-0.748 0.895,-1.031 0.477,-1.217" style="fill:white;fill-rule:nonzero;"></path>
                </g>
                <g transform="matrix(4.16667,0,0,4.16667,1607.43,223.023)">
                    <path d="M0,2.734L-1.852,2.734L-1.852,-0.469C-1.852,-0.734 -1.912,-0.912 -2.03,-1.003C-2.149,-1.095 -2.343,-1.141 -2.613,-1.141C-2.732,-1.141 -2.854,-1.131 -2.981,-1.112C-3.108,-1.094 -3.203,-1.079 -3.268,-1.068L-3.268,3.122C-3.268,3.354 -3.201,3.538 -3.066,3.672C-2.931,3.807 -2.748,3.875 -2.516,3.875L-0.332,3.875C-0.181,3.875 -0.062,3.826 0.024,3.729C0.11,3.632 0.154,3.484 0.154,3.284C0.154,3.171 0.138,3.066 0.105,2.969C0.073,2.872 0.038,2.793 0,2.734" style="fill:white;fill-rule:nonzero;"></path>
                </g>
                <g transform="matrix(4.16667,0,0,4.16667,1624.77,238.709)">
                    <path d="M0,-4.691C-0.132,-4.791 -0.293,-4.841 -0.481,-4.841C-0.589,-4.841 -0.702,-4.827 -0.821,-4.8C-0.94,-4.773 -1.048,-4.735 -1.145,-4.687C-1.247,-4.433 -1.338,-4.206 -1.416,-4.003C-1.494,-3.801 -1.572,-3.606 -1.65,-3.417C-1.728,-3.228 -1.819,-3.021 -1.921,-2.794L-1.97,-2.794C-2.029,-2.913 -2.088,-3.031 -2.148,-3.15C-2.207,-3.269 -2.266,-3.389 -2.326,-3.51C-2.385,-3.631 -2.444,-3.751 -2.504,-3.87C-2.563,-3.989 -2.622,-4.107 -2.682,-4.226C-2.8,-4.463 -2.926,-4.625 -3.058,-4.711C-3.19,-4.797 -3.361,-4.841 -3.571,-4.841C-3.749,-4.841 -3.899,-4.8 -4.02,-4.719C-4.142,-4.638 -4.238,-4.549 -4.308,-4.452C-4.227,-4.247 -4.116,-4.014 -3.976,-3.753C-3.836,-3.491 -3.683,-3.22 -3.519,-2.94C-3.354,-2.659 -3.189,-2.388 -3.021,-2.127C-2.88,-1.906 -2.751,-1.708 -2.633,-1.531L-2.633,-0.505C-2.633,-0.262 -2.579,-0.092 -2.471,0.005C-2.363,0.102 -2.169,0.15 -1.889,0.15C-1.765,0.15 -1.642,0.142 -1.521,0.126C-1.399,0.11 -1.309,0.094 -1.25,0.078L-1.25,-1.513C-0.954,-1.99 -0.712,-2.388 -0.526,-2.705C-0.329,-3.039 -0.178,-3.308 -0.073,-3.51C0.032,-3.712 0.104,-3.869 0.142,-3.979C0.179,-4.09 0.198,-4.177 0.198,-4.242C0.198,-4.442 0.132,-4.591 0,-4.691" style="fill:white;fill-rule:nonzero;"></path>
                </g>
                <g transform="matrix(4.16667,0,0,4.16667,1624.77,269.443)">
                    <path d="M0,-28.33C0,-28.33 -0.447,-28.836 -1.091,-29.543C-0.716,-29.15 -0.353,-28.745 0,-28.33ZM-12.979,-4.944C-23.096,-5.728 -25.621,0.024 -25.621,0.024C-21.122,3.214 -11.474,3.187 -4.292,0.153C-6.717,1.846 -9.453,3.086 -12.337,3.722C-12.55,3.765 -12.888,3.834 -13.101,3.877C-13.315,3.912 -13.655,3.966 -13.869,4.001C-15.59,4.25 -17.354,4.294 -19.083,4.128C-27.915,3.326 -35.488,-3.19 -37.371,-11.886C-38.827,-18.379 -36.966,-25.334 -32.431,-30.207C-25.281,-37.945 -13.922,-38.811 -5.32,-33.106C-5.942,-31.345 -5.424,-28.505 -2.486,-26.997C1.119,-25.146 1.294,-22.517 1.294,-22.517C1.294,-22.517 3.385,-25.667 2.142,-29.468C0.488,-34.528 -3.622,-34.593 -3.622,-34.593C-3.622,-34.593 -0.728,-31.717 0,-28.33C-2.056,-32.153 -5.523,-35.163 -9.512,-36.856C-11.409,-37.662 -13.437,-38.168 -15.486,-38.382C-23.519,-39.23 -31.372,-35.604 -35.94,-28.942C-39.763,-23.424 -40.808,-16.256 -38.776,-9.864C-36.749,-3.325 -31.556,1.983 -25.178,4.242C-21.296,10.9 -9.918,10.112 -4.912,6.246C-0.758,3.039 2.537,-2.068 1.886,-7.611C0.579,-3.689 -6.442,-4.437 -12.979,-4.944" style="fill:white;fill-rule:nonzero;"></path>
                </g>
            </g>
        </g>
    </g>
</svg>
