<?xml version="1.0" encoding="UTF-8" standalone="no"?>
<svg xmlns="http://www.w3.org/2000/svg" xmlns:xlink="http://www.w3.org/1999/xlink" xmlns:serif="http://www.serif.com/" width="100%" height="100%" viewBox="0 0 214 214" version="1.1" xml:space="preserve" style="fill-rule:evenodd;clip-rule:evenodd;stroke-linejoin:round;stroke-miterlimit:2;">
    <g transform="matrix(1,0,0,1,-11369,-2448.05)">
        <g id="Artboard3" transform="matrix(1,0,0,1,283.511,295.444)">
            <rect x="11085.5" y="2152.6" width="213.064" height="213.064" style="fill:none;"></rect>
            <g transform="matrix(0.9237,0,0,0.9237,1726.89,268.09)">
                <g transform="matrix(0.30508,0,0,0.30508,10177.5,2075.67)">
                    <rect x="218.999" y="227.329" width="30" height="46.331" style="fill:rgb(236,34,39);fill-rule:nonzero;"></rect>
                </g>
                <g transform="matrix(0.30508,0,0,0.30508,10177.5,2075.67)">
                    <rect x="218.999" y="295.993" width="30" height="30.002" style="fill:rgb(236,34,39);fill-rule:nonzero;"></rect>
                </g>
                <g transform="matrix(0.30508,0,0,0.30508,10177.5,2075.67)">
                    <path d="M358.546,481.999L358.546,421.995L328.544,421.995L328.544,229.024L359.623,229.024C373.063,229.024 383.998,239.959 383.998,253.399L383.998,296.179L470.002,296.179L470.002,248.591C470.002,190.379 422.643,143.02 364.431,143.02L328.33,143.02C325.371,98.875 291.973,62.931 248.999,56.052L248.999,30.001L279.001,30.001L279.001,0.001L147.013,0.001C109.789,0.001 79.505,30.285 79.505,67.509L79.505,201.519C79.505,222.201 62.679,239.027 41.997,239.027L41.997,269.027C79.221,269.027 109.505,238.743 109.505,201.519L109.505,67.509C109.505,46.827 126.331,30.001 147.013,30.001L218.999,30.001L218.999,56.053C173.969,63.261 139.453,102.38 139.453,149.409L139.453,421.995L109.451,421.995L109.451,481.999L0,481.999L0,511.999L512,511.999L512,481.999L358.546,481.999ZM440.002,248.592L440.002,266.18L413.998,266.18L413.998,253.4C413.998,223.418 389.605,199.025 359.623,199.025L328.544,199.025L328.544,173.021L364.431,173.021C406.101,173.021 440.002,206.922 440.002,248.592ZM233.999,84.864C269.589,84.864 298.544,113.819 298.544,149.409L298.544,210.743L233.999,146.198L169.453,210.744L169.453,149.409C169.453,113.818 198.408,84.864 233.999,84.864ZM279.639,325.545C267.449,337.736 251.24,344.45 233.999,344.45C216.758,344.45 200.55,337.736 188.358,325.545C176.168,313.354 169.453,297.145 169.453,279.904C169.453,262.663 176.168,246.455 188.358,234.264L233.999,188.624L279.64,234.264C304.805,259.43 304.805,300.378 279.639,325.545ZM169.453,348.99C187.023,365.433 209.818,374.45 233.999,374.45C258.179,374.45 280.974,365.433 298.544,348.991L298.544,421.995L169.453,421.995L169.453,348.99ZM139.451,451.995L328.546,451.995L328.546,481.999L139.451,481.999L139.451,451.995Z" style="fill:rgb(236,34,39);fill-rule:nonzero;"></path>
                </g>
            </g>
        </g>
    </g>
</svg>
