<?xml version="1.0" encoding="UTF-8" standalone="no"?>
<svg xmlns="http://www.w3.org/2000/svg" xmlns:xlink="http://www.w3.org/1999/xlink" xmlns:serif="http://www.serif.com/" width="100%" height="100%" viewBox="0 0 214 214" version="1.1" xml:space="preserve" style="fill-rule:evenodd;clip-rule:evenodd;">
    <g transform="matrix(1,0,0,1,-11085.8,-2448.05)">
        <g id="Artboard3" transform="matrix(1,0,0,1,0.366246,295.444)">
            <rect x="11085.5" y="2152.6" width="213.064" height="213.064" style="fill:none;"></rect>
            <g transform="matrix(0.274492,0,0,0.274492,11065.6,2146.58)">
                <path d="M606.93,293.52C617.023,293.687 627.397,293.737 638.05,293.67C643.243,293.637 647.563,292.32 651.01,289.72C656.11,285.873 660.287,280.41 663.54,273.33C667.073,265.637 669.527,257.407 670.9,248.64C673.253,233.553 672.967,218.58 670.04,203.72C668.08,193.787 664.897,185.233 660.49,178.06C656.03,170.8 648.84,163.5 639.72,163.5C507.887,163.533 369.493,163.543 224.54,163.53C208.24,163.53 198.55,185.78 195.5,198.79C189.89,222.77 190.57,249.39 200.38,272.17C204.23,281.09 210.28,289.41 219.43,292.66C221.463,293.38 224.177,293.75 227.57,293.77C239.063,293.823 249.783,293.777 259.73,293.63C259.737,293.63 259.744,293.63 259.752,293.63C260.388,293.63 260.912,294.153 260.912,294.79C260.912,294.81 260.911,294.83 260.91,294.85C255.837,402.497 250.713,510.38 245.54,618.5C245.487,619.66 245.377,620.797 245.21,621.91C245.163,622.206 244.915,622.429 244.62,622.44C234.44,622.72 224.17,620.58 218.99,632.1C218.34,633.55 218.18,635.46 218.14,637.04C217.987,643.853 217.953,651.09 218.04,658.75C218.08,662.417 219.07,665.403 221.01,667.71C224.403,671.737 228.99,673.75 234.77,673.75C373.41,673.79 504.393,673.787 627.72,673.74C631.567,673.74 634.47,673.397 636.43,672.71C640.99,671.11 646.43,665.96 646.48,660.52C646.54,652.587 646.533,644.853 646.46,637.32C646.38,628.83 640.29,623.37 632.12,622.62C628.813,622.313 625.697,622.3 622.77,622.58C622.736,622.583 622.703,622.585 622.669,622.585C622.137,622.585 621.694,622.161 621.67,621.63C619.71,580.883 617.7,538.757 615.64,495.25C612.593,430.99 609.587,366.903 606.62,302.99C606.487,300.03 606.4,297.063 606.36,294.09C606.353,293.703 606.543,293.513 606.93,293.52" style="fill:none;fill-rule:nonzero;stroke:rgb(236,34,39);stroke-width:9.47px;"></path>
            </g>
            <g transform="matrix(0.274492,0,0,0.274492,11065.6,2146.58)">
                <path d="M706.54,373.09C706.953,372.757 707.257,372.837 707.45,373.33C709.21,377.91 711.137,382.177 713.23,386.13C713.403,386.45 713.667,386.633 714.02,386.68C715.707,386.893 717.343,386.693 718.93,386.08C721.88,384.93 720.63,380.35 719.62,378.32C717.24,373.5 715.037,368.643 713.01,363.75C712.1,361.55 710.59,358.53 708,357.9C705.287,357.247 703.31,358.143 702.07,360.59C699.01,366.657 696.133,372.943 693.44,379.45C692.46,381.81 692.31,386.27 695.6,386.71C697.76,387 699.83,387.12 700.94,384.73C702.473,381.423 703.963,378.09 705.41,374.73C705.737,373.977 706.113,373.43 706.54,373.09" style="fill:rgb(236,34,39);fill-rule:nonzero;stroke:rgb(236,34,39);stroke-width:9.47px;"></path>
            </g>
            <g transform="matrix(0.274492,0,0,0.274492,11065.6,2146.58)">
                <path d="M760.44,397.65C759.06,400.91 757.62,404.14 756.12,407.34C755.407,408.867 755.07,410.507 755.11,412.26C755.117,412.573 755.223,412.85 755.43,413.09C757.27,415.257 759.303,415.773 761.53,414.64C762.71,414.04 763.543,413.14 764.03,411.94C766.497,405.867 769.037,400.157 771.65,394.81C772.69,392.683 772.99,390.543 772.55,388.39C772.492,388.086 772.329,387.811 772.09,387.61L769.42,385.35C769.171,385.14 768.848,385.042 768.53,385.08C766.563,385.34 764.637,385.797 762.75,386.45C757.83,388.157 752.887,389.777 747.92,391.31C743.87,392.56 740.29,394.37 743.09,399.12C743.463,399.753 743.927,400.253 744.48,400.62C744.787,400.827 745.127,400.907 745.5,400.86C750.5,400.22 755.01,398.31 759.83,396.95C759.887,396.933 759.946,396.927 760.004,396.931C760.283,396.949 760.498,397.199 760.479,397.483C760.475,397.541 760.462,397.597 760.44,397.65" style="fill:rgb(236,34,39);fill-rule:nonzero;stroke:rgb(236,34,39);stroke-width:9.47px;"></path>
            </g>
            <g transform="matrix(0.274492,0,0,0.274492,11065.6,2146.58)">
                <path d="M653.4,397.08C654.28,397.04 655.16,397.16 656.04,397.44C659.36,398.5 662.637,399.573 665.87,400.66C666.147,400.75 666.449,400.736 666.72,400.62C669.6,399.36 670.95,395.95 669.46,393.3C668.913,392.333 668.123,391.73 667.09,391.49C664.137,390.797 661.117,389.847 658.03,388.64C655.19,387.52 652.05,386.78 649.09,385.88C647.06,385.26 642.92,385.12 641.84,387.63C640.967,389.677 641.037,391.84 642.05,394.12C645.057,400.84 647.817,406.903 650.33,412.31C652.67,417.32 660.41,415.36 658.52,409.54C657.193,405.46 655.4,401.46 653.14,397.54C653.115,397.494 653.101,397.442 653.101,397.39C653.101,397.224 653.234,397.086 653.4,397.08" style="fill:rgb(236,34,39);fill-rule:nonzero;stroke:rgb(236,34,39);stroke-width:9.47px;"></path>
            </g>
            <g transform="matrix(0.274492,0,0,0.274492,11065.6,2146.58)">
                <path d="M753.65,442.03C753.65,416.51 732.65,395.51 707.13,395.51C681.61,395.51 660.61,416.51 660.61,442.03C660.61,467.55 681.61,488.55 707.13,488.55C732.65,488.55 753.65,467.55 753.65,442.03" style="fill:rgb(236,34,39);fill-rule:nonzero;stroke:rgb(236,34,39);stroke-width:9.47px;"></path>
            </g>
            <g transform="matrix(0.274492,0,0,0.274492,11065.6,2146.58)">
                <path d="M639.36,443.27C638.06,442.77 638.043,442.237 639.31,441.67C642.23,440.35 645.243,439.11 648.35,437.95C651.59,436.743 652.987,434.643 652.54,431.65C652.52,431.537 652.487,431.433 652.44,431.34C651.16,428.747 649.223,427.943 646.63,428.93C640.01,431.45 633.393,434.37 626.78,437.69C624.387,438.89 623.347,440.73 623.66,443.21C623.93,445.38 625.76,446.79 627.57,447.69C632.79,450.283 639.153,453.133 646.66,456.24C649.187,457.287 651.047,456.58 652.24,454.12C652.267,454.053 652.29,454.003 652.31,453.97C653.51,451.49 652.813,449.573 650.22,448.22C646.58,446.313 642.96,444.663 639.36,443.27" style="fill:rgb(236,34,39);fill-rule:nonzero;stroke:rgb(236,34,39);stroke-width:9.47px;"></path>
            </g>
            <g transform="matrix(0.274492,0,0,0.274492,11065.6,2146.58)">
                <path d="M771.58,443.75C768.553,445.05 765.047,446.683 761.06,448.65C758.52,449.91 757.93,451.91 759.11,454.49C760.27,457.023 762.187,457.733 764.86,456.62C771.547,453.827 778.08,450.873 784.46,447.76C785.533,447.233 786.243,446.4 786.59,445.26C787.53,442.14 786.667,439.943 784,438.67C777.473,435.557 771.38,432.773 765.72,430.32C764.393,429.74 763.01,429.643 761.57,430.03C756.89,431.3 758.07,436.79 761.71,438.35C764.857,439.69 768.153,441.173 771.6,442.8C771.782,442.886 771.899,443.069 771.899,443.271C771.899,443.48 771.773,443.669 771.58,443.75" style="fill:rgb(236,34,39);fill-rule:nonzero;stroke:rgb(236,34,39);stroke-width:9.47px;"></path>
            </g>
            <g transform="matrix(0.274492,0,0,0.274492,11065.6,2146.58)">
                <path d="M653.52,487.12C653.507,487.013 653.497,486.903 653.49,486.79C653.463,486.45 653.52,486.157 653.66,485.91C655.293,482.857 656.79,479.68 658.15,476.38C659.463,473.2 658.83,470.933 656.25,469.58C656.197,469.553 656.147,469.53 656.1,469.51C653.573,468.277 651.683,469.02 650.43,471.74C648.163,476.653 645.727,481.913 643.12,487.52C641.44,491.16 639.3,496.79 644.56,498.59C646.033,499.09 647.52,499.083 649.02,498.57C654.047,496.863 659.153,495.26 664.34,493.76C667.97,492.72 674.85,490.23 670.82,485.35C669.34,483.563 667.48,483.037 665.24,483.77C661.833,484.883 658.167,486.147 654.24,487.56C654.181,487.581 654.119,487.592 654.056,487.592C653.785,487.592 653.554,487.389 653.52,487.12" style="fill:rgb(236,34,39);fill-rule:nonzero;stroke:rgb(236,34,39);stroke-width:9.47px;"></path>
            </g>
            <g transform="matrix(0.274492,0,0,0.274492,11065.6,2146.58)">
                <path d="M759.01,487.3C756.39,486.41 743.36,480.52 742.65,485.8C742.33,488.17 741.67,491.08 744.74,492.05C751.78,494.263 758.783,496.493 765.75,498.74C767.43,499.28 770.34,499.13 771.41,497.38C772.843,495.02 773.127,492.89 772.26,490.99C769.453,484.817 766.81,478.803 764.33,472.95C761.39,465.99 752.75,469.49 755.65,476.04C757.07,479.26 758.61,482.533 760.27,485.86C761.017,487.36 760.597,487.84 759.01,487.3" style="fill:rgb(236,34,39);fill-rule:nonzero;stroke:rgb(236,34,39);stroke-width:9.47px;"></path>
            </g>
            <g transform="matrix(0.274492,0,0,0.274492,11065.6,2146.58)">
                <path d="M705.7,510.46C704.507,507.093 702.95,503.447 701.03,499.52C699.937,497.293 698.003,496.45 695.23,496.99C691.97,497.62 692.84,503.14 693.74,505.06C696.413,510.787 698.927,516.44 701.28,522.02C702.753,525.493 705.237,526.667 708.73,525.54C709.983,525.133 710.893,524.313 711.46,523.08C714.313,516.847 717.163,510.637 720.01,504.45C721.53,501.16 720.7,497.1 716.4,496.86C714.57,496.75 712.59,498.34 711.91,499.95C710.457,503.41 708.903,506.937 707.25,510.53C706.677,511.783 706.16,511.76 705.7,510.46" style="fill:rgb(236,34,39);fill-rule:nonzero;stroke:rgb(236,34,39);stroke-width:9.47px;"></path>
            </g>
            <g transform="matrix(0.274492,0,0,0.274492,11065.6,2146.58)">
                <path d="M218.73,244.65C215.97,220.64 218.71,192.48 233.11,172.94C233.147,172.89 233.166,172.83 233.166,172.768C233.166,172.622 233.055,172.497 232.91,172.48C229.43,172.2 226.197,172.29 223.21,172.75C218.63,173.47 214.17,178.57 211.82,182.3C207.527,189.113 204.493,197.8 202.72,208.36C199.42,228 200.6,246.133 206.26,262.76C207.607,266.727 209.607,270.94 212.26,275.4C214.947,279.907 218.243,282.77 222.15,283.99C225.65,285.09 229.49,284.91 233.08,285.11C233.126,285.112 233.173,285.106 233.217,285.092C233.421,285.029 233.538,284.813 233.476,284.614C233.462,284.569 233.44,284.527 233.41,284.49C224.81,273.56 220.33,258.48 218.73,244.65" style="fill:none;fill-rule:nonzero;stroke:rgb(236,34,39);stroke-width:9.47px;"></path>
            </g>
            <g transform="matrix(0.274492,0,0,0.274492,11065.6,2146.58)">
                <path d="M638.36,272C636.3,276.693 633.853,280.77 631.02,284.23C630.951,284.311 630.913,284.414 630.913,284.521C630.913,284.768 631.117,284.971 631.363,284.971C631.372,284.971 631.381,284.971 631.39,284.97C633.357,284.857 635.247,284.82 637.06,284.86C650.51,285.18 657.39,267.43 660.19,256.34C664.743,238.28 664.753,219.807 660.22,200.92C659.007,195.873 657.103,190.817 654.51,185.75C652.22,181.29 647.17,174.02 642.15,172.87C639.357,172.23 635.85,172.06 631.63,172.36C631.157,172.393 631.057,172.603 631.33,172.99C635.463,178.823 638.407,184.203 640.16,189.13C641.7,193.48 643.16,197.96 644.05,202.65C645.21,208.783 645.897,213.527 646.11,216.88C646.523,223.447 646.563,230.26 646.23,237.32C645.637,249.873 643.013,261.433 638.36,272" style="fill:none;fill-rule:nonzero;stroke:rgb(236,34,39);stroke-width:9.47px;"></path>
            </g>
            <g transform="matrix(0.274492,0,0,0.274492,11065.6,2146.58)">
                <path d="M296.72,284.79L322.97,284.74C323.384,284.741 323.734,284.417 323.77,284C324.07,280.373 324.263,276.603 324.35,272.69C324.437,268.697 324.82,266 325.5,264.6C328.72,258.02 333.617,254.517 340.19,254.09C344.677,253.803 348.487,254.74 351.62,256.9C361.31,263.59 358.41,273.43 358.73,283.28C358.757,284.181 359.509,284.906 360.41,284.9L384.16,284.79C384.713,284.783 385.02,284.507 385.08,283.96C385.493,279.993 385.71,275.9 385.73,271.68C385.75,264.84 388.39,259.75 393.99,256.32C399,253.24 406.55,253.1 411.5,256.08C417.333,259.587 420.25,264.87 420.25,271.93C420.257,275.977 420.24,280.047 420.2,284.14C420.2,284.52 420.387,284.71 420.76,284.71L446,284.87C446.367,284.87 446.56,284.69 446.58,284.33C447.07,274.42 444.72,263.48 454.23,256.75C456.37,255.237 459.173,254.333 462.64,254.04C470.253,253.4 475.857,256.367 479.45,262.94C480.603,265.053 481.253,267.61 481.4,270.61C481.633,275.317 481.743,279.747 481.73,283.9C481.73,284.465 482.195,284.93 482.76,284.93L508.79,285C509.217,285 509.41,284.787 509.37,284.36C508.923,279.62 508.863,274.913 509.19,270.24C509.417,266.907 510.2,264.187 511.54,262.08C519.3,249.85 537.95,251.86 542.78,265.33C543.433,267.163 543.79,270.297 543.85,274.73C543.89,277.87 543.967,281.053 544.08,284.28C544.087,284.573 544.24,284.727 544.54,284.74C551.48,285.053 558.467,285.06 565.5,284.76C566.993,284.693 568.487,284.76 569.98,284.96C570.527,285.033 570.783,284.793 570.75,284.24C570.51,279.713 570.39,275.297 570.39,270.99C570.397,264.59 573.047,259.79 578.34,256.59C582.64,253.997 586.94,253.243 591.24,254.33C600.02,256.537 604.64,262.253 605.1,271.48C605.3,275.48 605.473,279.517 605.62,283.59C605.645,284.4 606.319,285.053 607.129,285.053C607.16,285.053 607.19,285.052 607.22,285.05C611.57,284.78 616.71,285.11 620.19,282.21C623.537,279.423 626.233,276.057 628.28,272.11C633.86,261.36 636.7,249.12 637.34,237.03C638.37,217.39 636.53,196.14 625.03,179.91C622.03,175.68 618.35,172.46 613.16,172.46C495.027,172.427 374.153,172.417 250.54,172.43C245.71,172.43 240.48,177.75 238.11,181.54C231.87,191.5 229.43,201.92 227.68,213.87C226.833,219.65 226.66,227.537 227.16,237.53C227.647,247.33 229.833,257.177 233.72,267.07C236.033,272.97 239.537,277.95 244.23,282.01C245.697,283.277 247.23,284.053 248.83,284.34C252.817,285.053 256.767,285.197 260.68,284.77C261.01,284.729 261.27,284.461 261.3,284.13C261.667,279.89 261.95,275.593 262.15,271.24C262.31,267.62 262.93,264.87 264.01,262.99C267.377,257.123 272.49,254.16 279.35,254.1C286.29,254.04 291.383,256.923 294.63,262.75C296.29,265.74 297.2,269.73 296.8,273.07C296.367,276.71 296.237,280.517 296.41,284.49C296.415,284.656 296.554,284.79 296.72,284.79" style="fill:none;fill-rule:nonzero;stroke:rgb(236,34,39);stroke-width:9.47px;"></path>
            </g>
            <g transform="matrix(0.274492,0,0,0.274492,11065.6,2146.58)">
                <path d="M271.55,273.02L287.23,273.04C287.671,273.04 288.035,272.681 288.04,272.24C288.04,272.24 288.04,272.087 288.04,272.085C288.049,267.029 284.167,262.861 279.44,262.85L279.38,262.85C274.651,262.839 270.751,266.992 270.74,272.05L270.74,272.2C270.74,272.203 270.74,272.207 270.74,272.21C270.74,272.654 271.106,273.02 271.55,273.02C271.55,273.02 271.55,273.02 271.55,273.02" style="fill:none;fill-rule:nonzero;stroke:rgb(236,34,39);stroke-width:9.47px;"></path>
            </g>
            <g transform="matrix(0.274492,0,0,0.274492,11065.6,2146.58)">
                <path d="M518.22,273L534.6,272.94C534.737,272.94 534.85,272.827 534.85,272.69L534.84,272.12C534.822,267.031 531.062,262.856 526.51,262.87L526.23,262.87C526.229,262.87 526.228,262.87 526.228,262.87C521.674,262.886 517.942,267.088 517.96,272.179C517.96,272.179 517.96,272.18 517.96,272.18L517.97,272.75C517.97,272.887 518.083,273 518.22,273" style="fill:none;fill-rule:nonzero;stroke:rgb(236,34,39);stroke-width:9.47px;"></path>
            </g>
            <g transform="matrix(0.274492,0,0,0.274492,11065.6,2146.58)">
                <path d="M333.44,273.21L349.9,272.95C350.044,272.945 350.16,272.824 350.16,272.68L350.15,271.6C350.15,271.599 350.15,271.599 350.15,271.598C350.074,266.755 346.251,262.828 341.682,262.9C341.682,262.9 341.681,262.9 341.68,262.9L341.34,262.9C336.771,262.972 333.074,267.017 333.15,271.86L333.17,272.94C333.17,273.088 333.292,273.21 333.44,273.21" style="fill:none;fill-rule:nonzero;stroke:rgb(236,34,39);stroke-width:9.47px;"></path>
            </g>
            <g transform="matrix(0.274492,0,0,0.274492,11065.6,2146.58)">
                <path d="M395.8,273.6L410.31,273.14C410.953,273.119 411.471,272.584 411.471,271.941C411.471,271.927 411.47,271.914 411.47,271.9L411.45,271.12C411.301,266.506 407.465,262.828 402.95,262.97L402.51,262.98C397.994,263.123 394.397,267.035 394.54,271.65L394.56,272.43C394.576,273.077 395.112,273.601 395.76,273.601C395.773,273.601 395.787,273.6 395.8,273.6" style="fill:none;fill-rule:nonzero;stroke:rgb(236,34,39);stroke-width:9.47px;"></path>
            </g>
            <g transform="matrix(0.274492,0,0,0.274492,11065.6,2146.58)">
                <path d="M456.53,273.18L471.88,272.86C472.361,272.849 472.75,272.451 472.75,271.97C472.75,271.963 472.75,271.957 472.75,271.95L472.74,271.45C472.64,266.706 468.758,262.883 464.14,262.98L463.84,262.98C459.223,263.081 455.508,267.066 455.61,271.81L455.62,272.31C455.631,272.791 456.029,273.18 456.51,273.18C456.517,273.18 456.523,273.18 456.53,273.18" style="fill:none;fill-rule:nonzero;stroke:rgb(236,34,39);stroke-width:9.47px;"></path>
            </g>
            <g transform="matrix(0.274492,0,0,0.274492,11065.6,2146.58)">
                <path d="M579.86,273.22L595.44,272.76C595.84,272.744 596.161,272.411 596.161,272.011C596.161,272 596.16,271.99 596.16,271.98L596.15,271.51C596.003,266.664 592.081,262.792 587.46,262.93L587.24,262.94C582.621,263.08 578.939,267.177 579.08,272.02L579.09,272.49C579.101,272.894 579.436,273.22 579.84,273.22C579.846,273.22 579.853,273.22 579.86,273.22" style="fill:none;fill-rule:nonzero;stroke:rgb(236,34,39);stroke-width:9.47px;"></path>
            </g>
            <g transform="matrix(0.274492,0,0,0.274492,11065.6,2146.58)">
                <path d="M472.75,281.97C472.75,281.97 472.75,281.97 472.75,281.97C472.75,281.789 472.601,281.64 472.42,281.64C472.417,281.64 472.413,281.64 472.41,281.64L456.08,282.16C455.903,282.165 455.76,282.313 455.76,282.49L459.39,622.2C459.39,622.381 459.539,622.53 459.72,622.53L475.98,622.36C476.161,622.36 476.31,622.211 476.31,622.03L472.75,281.97" style="fill:none;fill-rule:nonzero;stroke:rgb(236,34,39);stroke-width:9.47px;"></path>
            </g>
            <g transform="matrix(0.274492,0,0,0.274492,11065.6,2146.58)">
                <path d="M596.58,282.22C596.569,282.041 596.419,281.9 596.24,281.9L580.01,281.92C580.01,281.92 580.01,281.92 580.009,281.92C579.823,281.92 579.669,282.073 579.669,282.26C579.669,282.267 579.67,282.273 579.67,282.28L595.78,621.95C595.791,622.129 595.941,622.27 596.12,622.27L612.41,622.5C612.41,622.5 612.41,622.5 612.41,622.5C612.597,622.5 612.75,622.347 612.75,622.16C612.75,622.157 612.75,622.153 612.75,622.15L596.58,282.22" style="fill:none;fill-rule:nonzero;stroke:rgb(236,34,39);stroke-width:9.47px;"></path>
            </g>
            <g transform="matrix(0.274492,0,0,0.274492,11065.6,2146.58)">
                <path d="M349.78,282.17C349.78,282.167 349.78,282.163 349.78,282.16C349.78,281.968 349.622,281.81 349.43,281.81C349.427,281.81 349.423,281.81 349.42,281.81L333.15,282.04C332.969,282.045 332.82,282.189 332.81,282.37L322.18,621.91C322.18,621.913 322.18,621.917 322.18,621.92C322.18,622.112 322.338,622.27 322.53,622.27C322.53,622.27 322.53,622.27 322.53,622.27L338.69,622.3C338.878,622.3 339.035,622.148 339.04,621.96L349.78,282.17" style="fill:none;fill-rule:nonzero;stroke:rgb(236,34,39);stroke-width:9.47px;"></path>
            </g>
            <g transform="matrix(0.274492,0,0,0.274492,11065.6,2146.58)">
                <path d="M411.38,282.52C411.38,282.516 411.38,282.513 411.38,282.509C411.38,282.158 411.091,281.869 410.74,281.869C410.73,281.869 410.72,281.87 410.71,281.87L394.84,282.79C394.504,282.806 394.235,283.084 394.23,283.42L390.79,621.65C390.79,621.997 391.073,622.285 391.42,622.29L406.94,622.4C406.943,622.4 406.947,622.4 406.95,622.4C407.301,622.4 407.59,622.111 407.59,621.76C407.59,621.76 407.59,621.76 407.59,621.76L411.38,282.52" style="fill:none;fill-rule:nonzero;stroke:rgb(236,34,39);stroke-width:9.47px;"></path>
            </g>
            <g transform="matrix(0.274492,0,0,0.274492,11065.6,2146.58)">
                <path d="M527.16,621.85C527.171,622.241 527.499,622.556 527.89,622.55L543.38,622.32C543.771,622.315 544.09,621.991 544.09,621.6C544.09,621.593 544.09,621.587 544.09,621.58L535.16,282.22C535.149,281.833 534.828,281.52 534.44,281.52C534.434,281.52 534.427,281.52 534.42,281.52L518.92,282.01C518.533,282.021 518.22,282.342 518.22,282.73C518.22,282.736 518.22,282.743 518.22,282.75L527.16,621.85" style="fill:none;fill-rule:nonzero;stroke:rgb(236,34,39);stroke-width:9.47px;"></path>
            </g>
            <g transform="matrix(0.274492,0,0,0.274492,11065.6,2146.58)">
                <path d="M287.276,282.766C287.277,282.758 287.277,282.75 287.277,282.742C287.277,282.466 287.057,282.235 286.781,282.222L270.959,281.476C270.674,281.463 270.429,281.686 270.415,281.971L254.404,621.494C254.403,621.502 254.403,621.51 254.403,621.518C254.403,621.794 254.623,622.025 254.899,622.038L270.721,622.784C271.006,622.797 271.251,622.574 271.265,622.289L287.276,282.766" style="fill:none;fill-rule:nonzero;stroke:rgb(236,34,39);stroke-width:9.47px;"></path>
            </g>
            <g transform="matrix(0.274492,0,0,0.274492,11065.6,2146.58)">
                <path d="M323.57,294.06C323.57,294.057 323.57,294.053 323.57,294.05C323.57,293.869 323.421,293.72 323.24,293.72C323.24,293.72 323.24,293.72 323.24,293.72L296.08,293.7C295.91,293.705 295.77,293.84 295.76,294.01L280.21,621.93C280.21,621.933 280.21,621.937 280.21,621.94C280.21,622.121 280.359,622.27 280.54,622.27C280.54,622.27 280.54,622.27 280.54,622.27L312.87,622.36C313.047,622.36 313.195,622.217 313.2,622.04L323.57,294.06" style="fill:none;fill-rule:nonzero;stroke:rgb(236,34,39);stroke-width:9.47px;"></path>
            </g>
            <g transform="matrix(0.274492,0,0,0.274492,11065.6,2146.58)">
                <path d="M347.94,621.95C347.94,621.953 347.94,621.957 347.94,621.96C347.94,622.136 348.084,622.28 348.26,622.28C348.26,622.28 348.26,622.28 348.26,622.28L381.6,622.3C381.776,622.3 381.92,622.156 381.92,621.98L385.33,293.99C385.33,293.814 385.186,293.67 385.01,293.67L358.66,293.6C358.488,293.6 358.345,293.738 358.34,293.91L347.94,621.95" style="fill:none;fill-rule:nonzero;stroke:rgb(236,34,39);stroke-width:9.47px;"></path>
            </g>
            <g transform="matrix(0.274492,0,0,0.274492,11065.6,2146.58)">
                <path d="M416.64,622.06C416.64,622.236 416.784,622.38 416.96,622.38L450.17,622.44C450.346,622.44 450.49,622.296 450.49,622.12L447.11,294.05C447.11,293.874 446.966,293.73 446.79,293.73L420.31,293.72C420.134,293.72 419.99,293.864 419.99,294.04L416.64,622.06" style="fill:none;fill-rule:nonzero;stroke:rgb(236,34,39);stroke-width:9.47px;"></path>
            </g>
            <g transform="matrix(0.274492,0,0,0.274492,11065.6,2146.58)">
                <path d="M485.2,621.95C485.2,622.126 485.344,622.27 485.52,622.27C485.52,622.27 517.92,622.29 517.92,622.29C518.096,622.29 518.24,622.146 518.24,621.97C518.24,621.967 518.24,621.963 518.24,621.96L509.68,294.02C509.675,293.848 509.532,293.71 509.36,293.71L482,293.69C481.824,293.69 481.68,293.834 481.68,294.01L485.2,621.95" style="fill:none;fill-rule:nonzero;stroke:rgb(236,34,39);stroke-width:9.47px;"></path>
            </g>
            <g transform="matrix(0.274492,0,0,0.274492,11065.6,2146.58)">
                <path d="M553.01,621.92C553.015,622.141 553.199,622.32 553.42,622.32L586.43,622.4C586.43,622.4 586.43,622.4 586.43,622.4C586.655,622.4 586.84,622.215 586.84,621.99C586.84,621.983 586.84,621.977 586.84,621.97L571.34,294.16C571.329,293.943 571.148,293.77 570.93,293.77L544.75,293.65C544.75,293.65 544.75,293.65 544.75,293.65C544.525,293.65 544.34,293.835 544.34,294.06C544.34,294.063 544.34,294.067 544.34,294.07L553.01,621.92" style="fill:none;fill-rule:nonzero;stroke:rgb(236,34,39);stroke-width:9.47px;"></path>
            </g>
            <g transform="matrix(0.274492,0,0,0.274492,11065.6,2146.58)">
                <path d="M637.54,637.9C637.54,634.246 634.534,631.24 630.88,631.24L233.64,631.24C229.986,631.24 226.98,634.246 226.98,637.9L226.98,658.34C226.98,661.994 229.986,665 233.64,665L630.88,665C634.534,665 637.54,661.994 637.54,658.34L637.54,637.9" style="fill:none;fill-rule:nonzero;stroke:rgb(236,34,39);stroke-width:9.47px;"></path>
            </g>
            <g transform="matrix(0.274492,0,0,0.274492,11065.6,2146.58)">
                <path d="M450.4,243.4C465.02,241.78 472.91,227.74 468.56,213.85C465.07,202.68 458.94,192.93 452.13,182.59C449.88,179.17 445.67,178.86 443.38,182.55C437.18,192.5 430.5,203.29 426.86,214.55C421.76,230.28 433.99,245.23 450.4,243.4" style="fill:none;fill-rule:nonzero;stroke:rgb(236,34,39);stroke-width:9.47px;"></path>
            </g>
            <g transform="matrix(0.274492,0,0,0.274492,11065.6,2146.58)">
                <path d="M438.39,209.71C436.28,214.08 433.46,220.24 435.14,225.07C436.81,229.88 439.64,233.6 445.03,234.41C451.843,235.43 456.703,232.97 459.61,227.03C461.8,222.55 460.68,217.43 458.77,213.15C456.61,208.31 454.253,203.57 451.7,198.93C450.647,197.003 449.48,195.213 448.2,193.56C448.083,193.411 447.903,193.323 447.713,193.323C447.501,193.323 447.304,193.432 447.19,193.61C444.07,198.637 441.137,204.003 438.39,209.71" style="fill:none;fill-rule:nonzero;stroke:rgb(236,34,39);stroke-width:9.47px;"></path>
            </g>
            <g transform="matrix(0.274492,0,0,0.274492,11065.6,2146.58)">
                <path d="M744.65,442.05C744.65,421.467 727.713,404.53 707.13,404.53C686.547,404.53 669.61,421.467 669.61,442.05C669.61,462.633 686.547,479.57 707.13,479.57C727.713,479.57 744.65,462.633 744.65,442.05" style="fill:white;fill-rule:nonzero;stroke:rgb(236,34,39);stroke-width:9.47px;"></path>
            </g>
            <g transform="matrix(0.274492,0,0,0.274492,11065.6,2146.58)">
                <path d="M606.36,294.09C606.4,297.063 606.487,300.03 606.62,302.99C609.587,366.903 612.593,430.99 615.64,495.25C617.7,538.757 619.71,580.883 621.67,621.63C621.694,622.161 622.137,622.585 622.669,622.585C622.703,622.585 622.736,622.583 622.77,622.58C625.697,622.3 628.813,622.313 632.12,622.62C640.29,623.37 646.38,628.83 646.46,637.32C646.533,644.853 646.54,652.587 646.48,660.52C646.43,665.96 640.99,671.11 636.43,672.71C634.47,673.397 631.567,673.74 627.72,673.74C504.393,673.787 373.41,673.79 234.77,673.75C228.99,673.75 224.403,671.737 221.01,667.71C219.07,665.403 218.08,662.417 218.04,658.75C217.953,651.09 217.987,643.853 218.14,637.04C218.18,635.46 218.34,633.55 218.99,632.1C224.17,620.58 234.44,622.72 244.62,622.44C244.915,622.429 245.163,622.206 245.21,621.91C245.377,620.797 245.487,619.66 245.54,618.5C250.713,510.38 255.837,402.497 260.91,294.85C260.911,294.83 260.912,294.81 260.912,294.79C260.912,294.153 260.388,293.63 259.752,293.63C259.744,293.63 259.737,293.63 259.73,293.63C249.783,293.777 239.063,293.823 227.57,293.77C224.177,293.75 221.463,293.38 219.43,292.66C210.28,289.41 204.23,281.09 200.38,272.17C190.57,249.39 189.89,222.77 195.5,198.79C198.55,185.78 208.24,163.53 224.54,163.53C369.493,163.543 507.887,163.533 639.72,163.5C648.84,163.5 656.03,170.8 660.49,178.06C664.897,185.233 668.08,193.787 670.04,203.72C672.967,218.58 673.253,233.553 670.9,248.64C669.527,257.407 667.073,265.637 663.54,273.33C660.287,280.41 656.11,285.873 651.01,289.72C647.563,292.32 643.243,293.637 638.05,293.67C627.397,293.737 617.023,293.687 606.93,293.52C606.543,293.513 606.353,293.703 606.36,294.09ZM218.73,244.65C215.97,220.64 218.71,192.48 233.11,172.94C233.147,172.89 233.166,172.83 233.166,172.768C233.166,172.622 233.055,172.497 232.91,172.48C229.43,172.2 226.197,172.29 223.21,172.75C218.63,173.47 214.17,178.57 211.82,182.3C207.527,189.113 204.493,197.8 202.72,208.36C199.42,228 200.6,246.133 206.26,262.76C207.607,266.727 209.607,270.94 212.26,275.4C214.947,279.907 218.243,282.77 222.15,283.99C225.65,285.09 229.49,284.91 233.08,285.11C233.126,285.112 233.173,285.106 233.217,285.092C233.421,285.029 233.538,284.813 233.476,284.614C233.462,284.569 233.44,284.527 233.41,284.49C224.81,273.56 220.33,258.48 218.73,244.65ZM638.36,272C636.3,276.693 633.853,280.77 631.02,284.23C630.951,284.311 630.913,284.414 630.913,284.521C630.913,284.768 631.117,284.971 631.363,284.971C631.372,284.971 631.381,284.971 631.39,284.97C633.357,284.857 635.247,284.82 637.06,284.86C650.51,285.18 657.39,267.43 660.19,256.34C664.743,238.28 664.753,219.807 660.22,200.92C659.007,195.873 657.103,190.817 654.51,185.75C652.22,181.29 647.17,174.02 642.15,172.87C639.357,172.23 635.85,172.06 631.63,172.36C631.157,172.393 631.057,172.603 631.33,172.99C635.463,178.823 638.407,184.203 640.16,189.13C641.7,193.48 643.16,197.96 644.05,202.65C645.21,208.783 645.897,213.527 646.11,216.88C646.523,223.447 646.563,230.26 646.23,237.32C645.637,249.873 643.013,261.433 638.36,272ZM296.72,284.79L322.97,284.74C323.384,284.741 323.734,284.417 323.77,284C324.07,280.373 324.263,276.603 324.35,272.69C324.437,268.697 324.82,266 325.5,264.6C328.72,258.02 333.617,254.517 340.19,254.09C344.677,253.803 348.487,254.74 351.62,256.9C361.31,263.59 358.41,273.43 358.73,283.28C358.757,284.181 359.509,284.906 360.41,284.9L384.16,284.79C384.713,284.783 385.02,284.507 385.08,283.96C385.493,279.993 385.71,275.9 385.73,271.68C385.75,264.84 388.39,259.75 393.99,256.32C399,253.24 406.55,253.1 411.5,256.08C417.333,259.587 420.25,264.87 420.25,271.93C420.257,275.977 420.24,280.047 420.2,284.14C420.2,284.52 420.387,284.71 420.76,284.71L446,284.87C446.367,284.87 446.56,284.69 446.58,284.33C447.07,274.42 444.72,263.48 454.23,256.75C456.37,255.237 459.173,254.333 462.64,254.04C470.253,253.4 475.857,256.367 479.45,262.94C480.603,265.053 481.253,267.61 481.4,270.61C481.633,275.317 481.743,279.747 481.73,283.9C481.73,284.465 482.195,284.93 482.76,284.93L508.79,285C509.217,285 509.41,284.787 509.37,284.36C508.923,279.62 508.863,274.913 509.19,270.24C509.417,266.907 510.2,264.187 511.54,262.08C519.3,249.85 537.95,251.86 542.78,265.33C543.433,267.163 543.79,270.297 543.85,274.73C543.89,277.87 543.967,281.053 544.08,284.28C544.087,284.573 544.24,284.727 544.54,284.74C551.48,285.053 558.467,285.06 565.5,284.76C566.993,284.693 568.487,284.76 569.98,284.96C570.527,285.033 570.783,284.793 570.75,284.24C570.51,279.713 570.39,275.297 570.39,270.99C570.397,264.59 573.047,259.79 578.34,256.59C582.64,253.997 586.94,253.243 591.24,254.33C600.02,256.537 604.64,262.253 605.1,271.48C605.3,275.48 605.473,279.517 605.62,283.59C605.645,284.4 606.319,285.053 607.129,285.053C607.16,285.053 607.19,285.052 607.22,285.05C611.57,284.78 616.71,285.11 620.19,282.21C623.537,279.423 626.233,276.057 628.28,272.11C633.86,261.36 636.7,249.12 637.34,237.03C638.37,217.39 636.53,196.14 625.03,179.91C622.03,175.68 618.35,172.46 613.16,172.46C495.027,172.427 374.153,172.417 250.54,172.43C245.71,172.43 240.48,177.75 238.11,181.54C231.87,191.5 229.43,201.92 227.68,213.87C226.833,219.65 226.66,227.537 227.16,237.53C227.647,247.33 229.833,257.177 233.72,267.07C236.033,272.97 239.537,277.95 244.23,282.01C245.697,283.277 247.23,284.053 248.83,284.34C252.817,285.053 256.767,285.197 260.68,284.77C261.01,284.729 261.27,284.461 261.3,284.13C261.667,279.89 261.95,275.593 262.15,271.24C262.31,267.62 262.93,264.87 264.01,262.99C267.377,257.123 272.49,254.16 279.35,254.1C286.29,254.04 291.383,256.923 294.63,262.75C296.29,265.74 297.2,269.73 296.8,273.07C296.367,276.71 296.237,280.517 296.41,284.49C296.415,284.656 296.554,284.79 296.72,284.79ZM271.55,273.02C271.55,273.02 287.23,273.04 287.23,273.04C287.671,273.04 288.035,272.681 288.04,272.24C288.04,272.24 288.04,272.087 288.04,272.085C288.049,267.029 284.167,262.861 279.44,262.85L279.38,262.85C274.651,262.839 270.751,266.992 270.74,272.05L270.74,272.2C270.74,272.203 270.74,272.207 270.74,272.21C270.74,272.654 271.106,273.02 271.55,273.02ZM518.22,273L534.6,272.94C534.737,272.94 534.85,272.827 534.85,272.69L534.84,272.12C534.822,267.031 531.062,262.856 526.51,262.87L526.23,262.87C526.229,262.87 526.228,262.87 526.228,262.87C521.674,262.886 517.942,267.088 517.96,272.179C517.96,272.179 517.96,272.18 517.96,272.18L517.97,272.75C517.97,272.887 518.083,273 518.22,273ZM333.44,273.21L349.9,272.95C350.044,272.945 350.16,272.824 350.16,272.68L350.15,271.6C350.15,271.599 350.15,271.599 350.15,271.598C350.074,266.755 346.251,262.828 341.682,262.9C341.682,262.9 341.681,262.9 341.68,262.9L341.34,262.9C336.771,262.972 333.074,267.017 333.15,271.86L333.17,272.94C333.17,273.088 333.292,273.21 333.44,273.21ZM395.8,273.6L410.31,273.14C410.953,273.119 411.471,272.584 411.471,271.941C411.471,271.927 411.47,271.914 411.47,271.9L411.45,271.12C411.301,266.506 407.465,262.828 402.95,262.97L402.51,262.98C397.994,263.123 394.397,267.035 394.54,271.65L394.56,272.43C394.576,273.077 395.112,273.601 395.76,273.601C395.773,273.601 395.787,273.6 395.8,273.6ZM456.53,273.18L471.88,272.86C472.361,272.849 472.75,272.451 472.75,271.97C472.75,271.963 472.75,271.957 472.75,271.95L472.74,271.45C472.64,266.706 468.758,262.883 464.14,262.98L463.84,262.98C459.223,263.081 455.508,267.066 455.61,271.81L455.62,272.31C455.631,272.791 456.029,273.18 456.51,273.18C456.517,273.18 456.523,273.18 456.53,273.18ZM579.86,273.22L595.44,272.76C595.84,272.744 596.161,272.411 596.161,272.011C596.161,272 596.16,271.99 596.16,271.98L596.15,271.51C596.003,266.664 592.081,262.792 587.46,262.93L587.24,262.94C582.621,263.08 578.939,267.177 579.08,272.02L579.09,272.49C579.101,272.894 579.436,273.22 579.84,273.22C579.846,273.22 579.853,273.22 579.86,273.22ZM472.75,281.97C472.75,281.97 472.75,281.97 472.75,281.97C472.75,281.789 472.601,281.64 472.42,281.64C472.417,281.64 472.413,281.64 472.41,281.64L456.08,282.16C455.903,282.165 455.76,282.313 455.76,282.49L459.39,622.2C459.39,622.381 459.539,622.53 459.72,622.53L475.98,622.36C476.161,622.36 476.31,622.211 476.31,622.03L472.75,281.97ZM596.58,282.22C596.569,282.041 596.419,281.9 596.24,281.9L580.01,281.92C580.01,281.92 580.01,281.92 580.009,281.92C579.823,281.92 579.669,282.073 579.669,282.26C579.669,282.267 579.67,282.273 579.67,282.28L595.78,621.95C595.791,622.129 595.941,622.27 596.12,622.27L612.41,622.5C612.41,622.5 612.41,622.5 612.41,622.5C612.597,622.5 612.75,622.347 612.75,622.16C612.75,622.157 612.75,622.153 612.75,622.15L596.58,282.22ZM349.78,282.17C349.78,282.167 349.78,282.163 349.78,282.16C349.78,281.968 349.622,281.81 349.43,281.81C349.427,281.81 349.423,281.81 349.42,281.81L333.15,282.04C332.969,282.045 332.82,282.189 332.81,282.37L322.18,621.91C322.18,621.913 322.18,621.917 322.18,621.92C322.18,622.112 322.338,622.27 322.53,622.27C322.53,622.27 322.53,622.27 322.53,622.27L338.69,622.3C338.878,622.3 339.035,622.148 339.04,621.96L349.78,282.17ZM411.38,282.52C411.38,282.516 411.38,282.513 411.38,282.509C411.38,282.158 411.091,281.869 410.74,281.869C410.73,281.869 410.72,281.87 410.71,281.87L394.84,282.79C394.504,282.806 394.235,283.084 394.23,283.42L390.79,621.65C390.79,621.997 391.073,622.285 391.42,622.29L406.94,622.4C406.943,622.4 406.947,622.4 406.95,622.4C407.301,622.4 407.59,622.111 407.59,621.76C407.59,621.76 407.59,621.76 407.59,621.76L411.38,282.52ZM527.16,621.85C527.171,622.241 527.499,622.556 527.89,622.55L543.38,622.32C543.771,622.315 544.09,621.991 544.09,621.6C544.09,621.593 544.09,621.587 544.09,621.58L535.16,282.22C535.149,281.833 534.828,281.52 534.44,281.52C534.434,281.52 534.427,281.52 534.42,281.52L518.92,282.01C518.533,282.021 518.22,282.342 518.22,282.73C518.22,282.736 518.22,282.743 518.22,282.75L527.16,621.85ZM287.276,282.766C287.277,282.758 287.277,282.75 287.277,282.742C287.277,282.466 287.057,282.235 286.781,282.222L270.959,281.476C270.674,281.463 270.429,281.686 270.415,281.971L254.404,621.494C254.403,621.502 254.403,621.51 254.403,621.518C254.403,621.794 254.623,622.025 254.899,622.038L270.721,622.784C271.006,622.797 271.251,622.574 271.265,622.289L287.276,282.766ZM323.57,294.06C323.57,294.057 323.57,294.053 323.57,294.05C323.57,293.869 323.421,293.72 323.24,293.72C323.24,293.72 323.24,293.72 323.24,293.72L296.08,293.7C295.91,293.705 295.77,293.84 295.76,294.01L280.21,621.93C280.21,621.933 280.21,621.937 280.21,621.94C280.21,622.121 280.359,622.27 280.54,622.27C280.54,622.27 280.54,622.27 280.54,622.27L312.87,622.36C313.047,622.36 313.195,622.217 313.2,622.04L323.57,294.06ZM347.94,621.95C347.94,621.953 347.94,621.957 347.94,621.96C347.94,622.136 348.084,622.28 348.26,622.28C348.26,622.28 348.26,622.28 348.26,622.28L381.6,622.3C381.776,622.3 381.92,622.156 381.92,621.98L385.33,293.99C385.33,293.814 385.186,293.67 385.01,293.67L358.66,293.6C358.488,293.6 358.345,293.738 358.34,293.91L347.94,621.95ZM416.64,622.06C416.64,622.236 416.784,622.38 416.96,622.38L450.17,622.44C450.346,622.44 450.49,622.296 450.49,622.12L447.11,294.05C447.11,293.874 446.966,293.73 446.79,293.73L420.31,293.72C420.134,293.72 419.99,293.864 419.99,294.04L416.64,622.06ZM485.2,621.95C485.2,622.126 485.344,622.27 485.52,622.27C485.52,622.27 517.92,622.29 517.92,622.29C518.096,622.29 518.24,622.146 518.24,621.97C518.24,621.967 518.24,621.963 518.24,621.96L509.68,294.02C509.675,293.848 509.532,293.71 509.36,293.71L482,293.69C481.824,293.69 481.68,293.834 481.68,294.01L485.2,621.95ZM553.01,621.92C553.015,622.141 553.199,622.32 553.42,622.32L586.43,622.4C586.43,622.4 586.43,622.4 586.43,622.4C586.655,622.4 586.84,622.215 586.84,621.99C586.84,621.983 586.84,621.977 586.84,621.97L571.34,294.16C571.329,293.943 571.148,293.77 570.93,293.77L544.75,293.65C544.75,293.65 544.75,293.65 544.75,293.65C544.525,293.65 544.34,293.835 544.34,294.06C544.34,294.063 544.34,294.067 544.34,294.07L553.01,621.92ZM637.54,637.9C637.54,634.246 634.534,631.24 630.88,631.24L233.64,631.24C229.986,631.24 226.98,634.246 226.98,637.9L226.98,658.34C226.98,661.994 229.986,665 233.64,665L630.88,665C634.534,665 637.54,661.994 637.54,658.34L637.54,637.9Z" style="fill:rgb(236,34,39);fill-rule:nonzero;stroke:rgb(236,34,39);stroke-width:9.87px;stroke-linejoin:round;stroke-miterlimit:2;"></path>
            </g>
            <g transform="matrix(0.274492,0,0,0.274492,11065.6,2146.58)">
                <path d="M468.56,213.85C472.91,227.74 465.02,241.78 450.4,243.4C433.99,245.23 421.76,230.28 426.86,214.55C430.5,203.29 437.18,192.5 443.38,182.55C445.67,178.86 449.88,179.17 452.13,182.59C458.94,192.93 465.07,202.68 468.56,213.85ZM438.39,209.71C436.28,214.08 433.46,220.24 435.14,225.07C436.81,229.88 439.64,233.6 445.03,234.41C451.843,235.43 456.703,232.97 459.61,227.03C461.8,222.55 460.68,217.43 458.77,213.15C456.61,208.31 454.253,203.57 451.7,198.93C450.647,197.003 449.48,195.213 448.2,193.56C448.083,193.411 447.903,193.323 447.713,193.323C447.501,193.323 447.304,193.432 447.19,193.61C444.07,198.637 441.137,204.003 438.39,209.71Z" style="fill:rgb(236,34,39);fill-rule:nonzero;stroke:rgb(236,34,39);stroke-width:9.87px;stroke-linejoin:round;stroke-miterlimit:2;"></path>
            </g>
            <g transform="matrix(0.274492,0,0,0.274492,11065.6,2146.58)">
                <path d="M472.75,281.97L476.31,622.03C476.31,622.211 476.161,622.36 475.98,622.36L459.72,622.53C459.539,622.53 459.39,622.381 459.39,622.2L455.76,282.49C455.76,282.313 455.903,282.165 456.08,282.16L472.41,281.64C472.413,281.64 472.417,281.64 472.42,281.64C472.601,281.64 472.75,281.789 472.75,281.97C472.75,281.97 472.75,281.97 472.75,281.97Z" style="fill:white;fill-rule:nonzero;stroke:rgb(236,34,39);stroke-width:9.87px;stroke-linejoin:round;stroke-miterlimit:2;"></path>
            </g>
            <g transform="matrix(0.274492,0,0,0.274492,11065.6,2146.58)">
                <path d="M596.58,282.22L612.75,622.15C612.75,622.153 612.75,622.157 612.75,622.16C612.75,622.347 612.597,622.5 612.41,622.5C612.41,622.5 612.41,622.5 612.41,622.5L596.12,622.27C595.941,622.27 595.791,622.129 595.78,621.95L579.67,282.28C579.67,282.273 579.669,282.267 579.669,282.26C579.669,282.073 579.823,281.92 580.009,281.92C580.01,281.92 580.01,281.92 580.01,281.92L596.24,281.9C596.419,281.9 596.569,282.041 596.58,282.22Z" style="fill:white;fill-rule:nonzero;stroke:rgb(236,34,39);stroke-width:9.87px;stroke-linejoin:round;stroke-miterlimit:2;"></path>
            </g>
            <g transform="matrix(0.274492,0,0,0.274492,11065.6,2146.58)">
                <path d="M349.78,282.17L339.04,621.96C339.035,622.148 338.878,622.3 338.69,622.3L322.53,622.27C322.53,622.27 322.53,622.27 322.53,622.27C322.338,622.27 322.18,622.112 322.18,621.92C322.18,621.917 322.18,621.913 322.18,621.91L332.81,282.37C332.82,282.189 332.969,282.045 333.15,282.04L349.42,281.81C349.423,281.81 349.427,281.81 349.43,281.81C349.622,281.81 349.78,281.968 349.78,282.16C349.78,282.163 349.78,282.167 349.78,282.17Z" style="fill:white;fill-rule:nonzero;stroke:rgb(236,34,39);stroke-width:9.87px;stroke-linejoin:round;stroke-miterlimit:2;"></path>
            </g>
            <g transform="matrix(0.274492,0,0,0.274492,11065.6,2146.58)">
                <path d="M411.38,282.52L407.59,621.76C407.59,621.76 407.59,621.76 407.59,621.76C407.59,622.111 407.301,622.4 406.95,622.4C406.947,622.4 406.943,622.4 406.94,622.4L391.42,622.29C391.073,622.285 390.79,621.997 390.79,621.65L394.23,283.42C394.235,283.084 394.504,282.806 394.84,282.79L410.71,281.87C410.72,281.87 410.73,281.869 410.74,281.869C411.091,281.869 411.38,282.158 411.38,282.509C411.38,282.513 411.38,282.516 411.38,282.52Z" style="fill:white;fill-rule:nonzero;stroke:rgb(236,34,39);stroke-width:9.87px;stroke-linejoin:round;stroke-miterlimit:2;"></path>
            </g>
            <g transform="matrix(0.274492,0,0,0.274492,11065.6,2146.58)">
                <path d="M527.16,621.85L518.22,282.75C518.22,282.743 518.22,282.736 518.22,282.73C518.22,282.342 518.533,282.021 518.92,282.01L534.42,281.52C534.427,281.52 534.434,281.52 534.44,281.52C534.828,281.52 535.149,281.833 535.16,282.22L544.09,621.58C544.09,621.587 544.09,621.593 544.09,621.6C544.09,621.991 543.771,622.315 543.38,622.32L527.89,622.55C527.499,622.556 527.171,622.241 527.16,621.85Z" style="fill:white;fill-rule:nonzero;stroke:rgb(236,34,39);stroke-width:9.87px;stroke-linejoin:round;stroke-miterlimit:2;"></path>
            </g>
            <g transform="matrix(0.274187,0.0129303,-0.0129303,0.274187,11140,2270.68)">
                <path d="M8.44,-168.576C8.44,-169.621 7.591,-170.47 6.546,-170.47L-6.546,-170.47C-7.591,-170.47 -8.44,-169.621 -8.44,-168.576L-8.44,168.576C-8.44,169.621 -7.591,170.47 -6.546,170.47L6.546,170.47C7.591,170.47 8.44,169.621 8.44,168.576L8.44,-168.576Z" style="fill:white;stroke:rgb(236,34,39);stroke-width:9.87px;stroke-linejoin:round;stroke-miterlimit:2;"></path>
            </g>
            <g transform="matrix(0.274492,0,0,0.274492,11065.6,2146.58)">
                <path d="M706.54,373.09C706.113,373.43 705.737,373.977 705.41,374.73C703.963,378.09 702.473,381.423 700.94,384.73C699.83,387.12 697.76,387 695.6,386.71C692.31,386.27 692.46,381.81 693.44,379.45C696.133,372.943 699.01,366.657 702.07,360.59C703.31,358.143 705.287,357.247 708,357.9C710.59,358.53 712.1,361.55 713.01,363.75C715.037,368.643 717.24,373.5 719.62,378.32C720.63,380.35 721.88,384.93 718.93,386.08C717.343,386.693 715.707,386.893 714.02,386.68C713.667,386.633 713.403,386.45 713.23,386.13C711.137,382.177 709.21,377.91 707.45,373.33C707.257,372.837 706.953,372.757 706.54,373.09Z" style="fill:rgb(236,34,39);fill-rule:nonzero;stroke:rgb(236,34,39);stroke-width:9.87px;stroke-linejoin:round;stroke-miterlimit:2;"></path>
            </g>
            <g transform="matrix(0.274492,0,0,0.274492,11065.6,2146.58)">
                <path d="M759.83,396.95C755.01,398.31 750.5,400.22 745.5,400.86C745.127,400.907 744.787,400.827 744.48,400.62C743.927,400.253 743.463,399.753 743.09,399.12C740.29,394.37 743.87,392.56 747.92,391.31C752.887,389.777 757.83,388.157 762.75,386.45C764.637,385.797 766.563,385.34 768.53,385.08C768.848,385.042 769.171,385.14 769.42,385.35L772.09,387.61C772.329,387.811 772.492,388.086 772.55,388.39C772.99,390.543 772.69,392.683 771.65,394.81C769.037,400.157 766.497,405.867 764.03,411.94C763.543,413.14 762.71,414.04 761.53,414.64C759.303,415.773 757.27,415.257 755.43,413.09C755.223,412.85 755.117,412.573 755.11,412.26C755.07,410.507 755.407,408.867 756.12,407.34C757.62,404.14 759.06,400.91 760.44,397.65C760.462,397.597 760.475,397.541 760.479,397.483C760.498,397.199 760.283,396.949 760.004,396.931C759.946,396.927 759.887,396.933 759.83,396.95Z" style="fill:rgb(236,34,39);fill-rule:nonzero;stroke:rgb(236,34,39);stroke-width:9.87px;stroke-linejoin:round;stroke-miterlimit:2;"></path>
            </g>
            <g transform="matrix(0.274492,0,0,0.274492,11065.6,2146.58)">
                <path d="M653.4,397.08C653.234,397.086 653.101,397.224 653.101,397.39C653.101,397.442 653.115,397.494 653.14,397.54C655.4,401.46 657.193,405.46 658.52,409.54C660.41,415.36 652.67,417.32 650.33,412.31C647.817,406.903 645.057,400.84 642.05,394.12C641.037,391.84 640.967,389.677 641.84,387.63C642.92,385.12 647.06,385.26 649.09,385.88C652.05,386.78 655.19,387.52 658.03,388.64C661.117,389.847 664.137,390.797 667.09,391.49C668.123,391.73 668.913,392.333 669.46,393.3C670.95,395.95 669.6,399.36 666.72,400.62C666.449,400.736 666.147,400.75 665.87,400.66C662.637,399.573 659.36,398.5 656.04,397.44C655.16,397.16 654.28,397.04 653.4,397.08Z" style="fill:rgb(236,34,39);fill-rule:nonzero;stroke:rgb(236,34,39);stroke-width:9.87px;stroke-linejoin:round;stroke-miterlimit:2;"></path>
            </g>
            <g transform="matrix(0.274492,0,0,0.274492,11065.6,2146.58)">
                <path d="M753.65,442.03C753.65,467.55 732.65,488.55 707.13,488.55C681.61,488.55 660.61,467.55 660.61,442.03C660.61,416.51 681.61,395.51 707.13,395.51C732.65,395.51 753.65,416.51 753.65,442.03ZM744.65,442.05C744.65,421.467 727.713,404.53 707.13,404.53C686.547,404.53 669.61,421.467 669.61,442.05C669.61,462.633 686.547,479.57 707.13,479.57C727.713,479.57 744.65,462.633 744.65,442.05Z" style="fill:rgb(236,34,39);fill-rule:nonzero;stroke:rgb(236,34,39);stroke-width:9.87px;stroke-linejoin:round;stroke-miterlimit:2;"></path>
            </g>
            <g transform="matrix(0.274492,0,0,0.274492,11065.6,2146.58)">
                <path d="M639.36,443.27C642.96,444.663 646.58,446.313 650.22,448.22C652.813,449.573 653.51,451.49 652.31,453.97C652.29,454.003 652.267,454.053 652.24,454.12C651.047,456.58 649.187,457.287 646.66,456.24C639.153,453.133 632.79,450.283 627.57,447.69C625.76,446.79 623.93,445.38 623.66,443.21C623.347,440.73 624.387,438.89 626.78,437.69C633.393,434.37 640.01,431.45 646.63,428.93C649.223,427.943 651.16,428.747 652.44,431.34C652.487,431.433 652.52,431.537 652.54,431.65C652.987,434.643 651.59,436.743 648.35,437.95C645.243,439.11 642.23,440.35 639.31,441.67C638.043,442.237 638.06,442.77 639.36,443.27Z" style="fill:rgb(236,34,39);fill-rule:nonzero;stroke:rgb(236,34,39);stroke-width:9.87px;stroke-linejoin:round;stroke-miterlimit:2;"></path>
            </g>
            <g transform="matrix(0.274492,0,0,0.274492,11065.6,2146.58)">
                <path d="M771.58,443.75C771.773,443.669 771.899,443.48 771.899,443.271C771.899,443.069 771.782,442.886 771.6,442.8C768.153,441.173 764.857,439.69 761.71,438.35C758.07,436.79 756.89,431.3 761.57,430.03C763.01,429.643 764.393,429.74 765.72,430.32C771.38,432.773 777.473,435.557 784,438.67C786.667,439.943 787.53,442.14 786.59,445.26C786.243,446.4 785.533,447.233 784.46,447.76C778.08,450.873 771.547,453.827 764.86,456.62C762.187,457.733 760.27,457.023 759.11,454.49C757.93,451.91 758.52,449.91 761.06,448.65C765.047,446.683 768.553,445.05 771.58,443.75Z" style="fill:rgb(236,34,39);fill-rule:nonzero;stroke:rgb(236,34,39);stroke-width:9.87px;stroke-linejoin:round;stroke-miterlimit:2;"></path>
            </g>
            <g transform="matrix(0.274492,0,0,0.274492,11065.6,2146.58)">
                <path d="M653.52,487.12C653.554,487.389 653.785,487.592 654.056,487.592C654.119,487.592 654.181,487.581 654.24,487.56C658.167,486.147 661.833,484.883 665.24,483.77C667.48,483.037 669.34,483.563 670.82,485.35C674.85,490.23 667.97,492.72 664.34,493.76C659.153,495.26 654.047,496.863 649.02,498.57C647.52,499.083 646.033,499.09 644.56,498.59C639.3,496.79 641.44,491.16 643.12,487.52C645.727,481.913 648.163,476.653 650.43,471.74C651.683,469.02 653.573,468.277 656.1,469.51C656.147,469.53 656.197,469.553 656.25,469.58C658.83,470.933 659.463,473.2 658.15,476.38C656.79,479.68 655.293,482.857 653.66,485.91C653.52,486.157 653.463,486.45 653.49,486.79C653.497,486.903 653.507,487.013 653.52,487.12Z" style="fill:rgb(236,34,39);fill-rule:nonzero;stroke:rgb(236,34,39);stroke-width:9.87px;stroke-linejoin:round;stroke-miterlimit:2;"></path>
            </g>
            <g transform="matrix(0.274492,0,0,0.274492,11065.6,2146.58)">
                <path d="M759.01,487.3C760.597,487.84 761.017,487.36 760.27,485.86C758.61,482.533 757.07,479.26 755.65,476.04C752.75,469.49 761.39,465.99 764.33,472.95C766.81,478.803 769.453,484.817 772.26,490.99C773.127,492.89 772.843,495.02 771.41,497.38C770.34,499.13 767.43,499.28 765.75,498.74C758.783,496.493 751.78,494.263 744.74,492.05C741.67,491.08 742.33,488.17 742.65,485.8C743.36,480.52 756.39,486.41 759.01,487.3Z" style="fill:rgb(236,34,39);fill-rule:nonzero;stroke:rgb(236,34,39);stroke-width:9.87px;stroke-linejoin:round;stroke-miterlimit:2;"></path>
            </g>
            <g transform="matrix(0.274492,0,0,0.274492,11065.6,2146.58)">
                <path d="M705.7,510.46C706.16,511.76 706.677,511.783 707.25,510.53C708.903,506.937 710.457,503.41 711.91,499.95C712.59,498.34 714.57,496.75 716.4,496.86C720.7,497.1 721.53,501.16 720.01,504.45C717.163,510.637 714.313,516.847 711.46,523.08C710.893,524.313 709.983,525.133 708.73,525.54C705.237,526.667 702.753,525.493 701.28,522.02C698.927,516.44 696.413,510.787 693.74,505.06C692.84,503.14 691.97,497.62 695.23,496.99C698.003,496.45 699.937,497.293 701.03,499.52C702.95,503.447 704.507,507.093 705.7,510.46Z" style="fill:rgb(236,34,39);fill-rule:nonzero;stroke:rgb(236,34,39);stroke-width:9.87px;stroke-linejoin:round;stroke-miterlimit:2;"></path>
            </g>
        </g>
    </g>
</svg>
