<?xml version="1.0" encoding="UTF-8" standalone="no"?>
<svg xmlns="http://www.w3.org/2000/svg" xmlns:xlink="http://www.w3.org/1999/xlink" xmlns:serif="http://www.serif.com/" width="100%" height="100%" viewBox="0 0 214 214" version="1.1" xml:space="preserve" style="fill-rule:evenodd;clip-rule:evenodd;stroke-linejoin:round;stroke-miterlimit:2;">
    <g transform="matrix(1,0,0,1,-11085,-2152)">
        <g id="Artboard3" transform="matrix(1,0,0,1,-0.451532,-0.603095)">
            <rect x="11085.5" y="2152.6" width="213.064" height="213.064" style="fill:none;"></rect>
            <g transform="matrix(1.22449,0,0,1.22449,11040.8,2207.38)">
                <g transform="matrix(1,0,0,1,59.443,-21.734)">
                    <path d="M121.693,25.052L102.762,25.052L102.762,21.582C102.76,19.523 101.066,17.829 99.007,17.827L97.153,17.827L97.153,11.307C97.149,7.606 94.104,4.561 90.403,4.557L37.6,4.557C33.899,4.561 30.854,7.606 30.85,11.307L30.85,17.827L28.989,17.827C26.932,17.83 25.24,19.522 25.238,21.579L25.238,25.052L6.307,25.052C5.347,25.052 4.557,25.842 4.557,26.802L4.557,43.071C4.557,44.031 5.347,44.821 6.307,44.821L13.751,44.821L13.751,49.621C13.754,51.636 15.188,53.387 17.163,53.786L18.615,117.825C18.703,120.922 21.265,123.427 24.364,123.444L47.54,123.444C50.639,123.427 53.201,120.922 53.289,117.825L54.74,53.785C56.716,53.386 58.15,51.636 58.153,49.62L58.153,44.82L69.847,44.82L69.847,49.62C69.85,51.636 71.284,53.386 73.26,53.785L74.711,117.824C74.799,120.921 77.361,123.426 80.46,123.443L103.636,123.443C106.735,123.426 109.297,120.921 109.385,117.824L110.837,53.785C112.812,53.386 114.246,51.635 114.249,49.62L114.249,44.82L121.693,44.82C122.653,44.82 123.443,44.03 123.443,43.07L123.443,26.8C123.442,25.841 122.652,25.052 121.693,25.052ZM99.262,21.582L99.262,25.052L84.834,25.052L84.834,21.582C84.834,21.442 84.949,21.327 85.089,21.327L99.007,21.327C99.147,21.327 99.262,21.442 99.262,21.582ZM46.662,25.052L46.662,21.579C46.659,19.522 44.967,17.83 42.91,17.827L41.057,17.827L41.057,14.768L86.943,14.768L86.943,17.827L85.089,17.827C83.03,17.83 81.337,19.523 81.334,21.582L81.334,25.052L46.662,25.052ZM34.347,11.307C34.349,9.525 35.815,8.059 37.597,8.057L90.4,8.057C92.182,8.059 93.648,9.525 93.65,11.307L93.65,17.827L90.44,17.827L90.44,13.018C90.44,12.058 89.65,11.268 88.69,11.268L39.307,11.268C38.347,11.268 37.557,12.058 37.557,13.018L37.557,17.827L34.347,17.827L34.347,11.307ZM28.738,21.579C28.738,21.441 28.851,21.328 28.989,21.327L42.914,21.327C43.052,21.327 43.166,21.441 43.166,21.579L43.166,25.052L28.738,25.052L28.738,21.579ZM47.54,119.943L24.364,119.943C23.151,119.936 22.148,118.955 22.114,117.743L20.666,53.87L51.238,53.87L49.79,117.744C49.755,118.956 48.753,119.936 47.54,119.943ZM54.653,49.62C54.652,50.031 54.314,50.369 53.903,50.37L18,50.37C17.589,50.369 17.251,50.031 17.25,49.62L17.25,44.82L54.65,44.82L54.653,49.62ZM103.636,119.943L80.46,119.943C79.247,119.936 78.244,118.955 78.21,117.743L76.762,53.87L107.334,53.87L105.886,117.744C105.851,118.956 104.849,119.936 103.636,119.943ZM110.749,49.62C110.748,50.031 110.41,50.369 109.999,50.37L74.1,50.37C73.689,50.369 73.351,50.031 73.35,49.62L73.35,44.82L110.75,44.82L110.749,49.62ZM119.943,41.32L8.057,41.32L8.057,28.552L119.943,28.552L119.943,41.32Z" style="fill:rgb(236,33,39);fill-rule:nonzero;stroke:rgb(236,33,39);stroke-width:2.38px;"></path>
                </g>
                <g transform="matrix(1,0,0,1,59.443,-21.734)">
                    <path d="M92.048,65.737C91.088,65.738 90.299,66.527 90.298,67.487L90.298,106.326C90.298,107.286 91.088,108.076 92.048,108.076C93.008,108.076 93.798,107.286 93.798,106.326L93.798,67.487C93.798,66.527 93.008,65.737 92.048,65.737Z" style="fill:rgb(236,33,39);fill-rule:nonzero;stroke:rgb(236,33,39);stroke-width:2.38px;"></path>
                </g>
                <g transform="matrix(1,0,0,1,59.443,-21.734)">
                    <path d="M35.952,65.737C34.992,65.737 34.202,66.527 34.202,67.487L34.202,106.326C34.202,107.286 34.992,108.076 35.952,108.076C36.912,108.076 37.702,107.286 37.702,106.326L37.702,67.487C37.701,66.527 36.912,65.738 35.952,65.737Z" style="fill:rgb(236,33,39);fill-rule:nonzero;stroke:rgb(236,33,39);stroke-width:2.38px;"></path>
                </g>
            </g>
        </g>
    </g>
</svg>
