<?xml version="1.0" encoding="UTF-8" standalone="no"?>
<svg xmlns="http://www.w3.org/2000/svg" xmlns:xlink="http://www.w3.org/1999/xlink" xmlns:serif="http://www.serif.com/" width="100%" height="100%" viewBox="0 0 214 214" version="1.1" xml:space="preserve" style="fill-rule:evenodd;clip-rule:evenodd;">
    <g transform="matrix(1,0,0,1,-11369,-2149.58)">
        <g id="Artboard3" transform="matrix(1,0,0,1,283.511,-3.02415)">
            <rect x="11085.5" y="2152.6" width="213.064" height="213.064" style="fill:none;"></rect>
            <g transform="matrix(0.265006,0,0,0.265006,11090.6,2147.53)">
                <path d="M490.06,279.38C489.933,282.167 489.863,284.967 489.85,287.78C489.777,300.427 489.773,313.14 489.84,325.92C489.86,329.04 487.87,330.75 485.79,332.57C484.32,333.84 482.21,333.85 480.36,333.88C474.573,333.993 468.917,334.003 463.39,333.91C463.388,333.91 463.386,333.91 463.384,333.91C462.924,333.908 462.542,334.28 462.54,334.736C462.54,334.737 462.54,334.739 462.54,334.74L462.52,456.47C462.52,456.47 462.52,456.471 462.52,456.471C462.52,456.91 462.881,457.271 463.32,457.271C463.333,457.271 463.347,457.271 463.36,457.27C468.487,456.977 473.967,456.95 479.8,457.19C482.573,457.303 484.883,458.027 486.73,459.36C488.83,460.873 489.877,463.12 489.87,466.1C489.837,489.54 489.847,512.623 489.9,535.35C489.91,538.76 488.66,543.72 485,544.86C482.68,545.573 480.41,545.94 478.19,545.96C471.45,546.02 464.917,546.027 458.59,545.98C458.254,545.98 457.975,546.254 457.97,546.59C457.837,556.997 457.807,567.443 457.88,577.93C457.91,583.46 455.48,587.66 449.32,587.7C445.08,587.727 440.897,587.763 436.77,587.81C435.977,587.817 435.58,588.22 435.58,589.02L435.59,622.05C435.59,622.95 436.04,623.403 436.94,623.41C459.607,623.45 482.063,623.483 504.31,623.51C508.577,623.517 511.487,623.913 513.04,624.7C516.093,626.247 517.63,629.183 517.65,633.51C517.703,647.243 517.693,660.823 517.62,674.25C517.6,677.08 517.51,680.8 515.41,682.88C513.497,684.78 511.287,685.73 508.78,685.73C423.613,685.69 336.057,685.697 246.11,685.75C240.03,685.75 234.65,684.3 234.61,677.15C234.537,662.97 234.477,649.103 234.43,635.55C234.42,632.63 234.67,627.5 237.19,625.65C239.143,624.217 241.45,623.503 244.11,623.51C268.87,623.523 292.427,623.5 314.78,623.44C315.767,623.44 316.257,622.947 316.25,621.96L316.23,589C316.23,588.34 315.7,587.791 315.04,587.77C311.707,587.643 308.273,587.62 304.74,587.7C298.45,587.84 294.13,585.25 294.07,578.5C293.99,568.553 293.913,558.06 293.84,547.02C293.835,546.437 293.353,545.96 292.77,545.96C292.767,545.96 292.763,545.96 292.76,545.96C286.527,546.04 280.197,546.023 273.77,545.91C271.34,545.86 268.46,545.53 266.16,544.66C263.06,543.48 261.94,537.74 261.94,535C261.967,513.08 262.003,491.163 262.05,469.25C262.05,467.717 262.143,466.093 262.33,464.38C262.86,459.57 267.51,457.27 271.99,457.19C277.21,457.103 282.753,457.08 288.62,457.12C288.622,457.12 288.624,457.12 288.626,457.12C288.971,457.122 289.258,456.836 289.26,456.484C289.26,456.483 289.26,456.481 289.26,456.48L289.24,335.13C289.24,334.54 288.76,334.051 288.17,334.04C281.67,333.92 274.78,334.11 268.19,333.5C266.863,333.373 265.423,332.343 263.87,330.41C262.63,328.863 262.01,327.1 262.01,325.12C262.017,310.253 262.027,294.99 262.04,279.33C262.04,277.557 261.87,275.79 261.53,274.03C261.52,273.972 261.469,273.929 261.41,273.93C236.903,273.963 212.947,273.983 189.54,273.99C188.34,273.99 187.1,274.093 185.82,274.3C185.573,274.347 185.45,274.493 185.45,274.74C185.517,405.58 185.49,536.163 185.37,666.49C185.363,668.77 185.35,671.12 185.33,673.54C185.317,675.7 184.817,677.37 183.83,678.55C179.48,683.73 171.61,683.18 168.21,677.25C167.437,675.903 167.05,673.99 167.05,671.51C167.05,537.49 166.79,405.96 167.15,276.47C167.163,272.25 167.593,269.16 168.44,267.2C170.64,262.107 174.053,258.647 178.68,256.82C180.753,256 184.877,255.6 191.05,255.62C213.17,255.7 235.31,255.717 257.47,255.67C258.68,255.66 260.13,256.1 261.32,255.99C261.638,255.96 261.887,255.694 261.9,255.37C262.093,249.803 262.043,244.207 261.75,238.58C261.729,238.134 261.356,237.779 260.91,237.78C235.777,237.733 210.98,237.773 186.52,237.9C173.767,237.967 163.727,242.98 156.4,252.94C150.59,260.83 149.41,268.39 149.42,278.81C149.52,408.677 149.52,540.85 149.42,675.33C149.42,676.177 149.15,676.93 148.61,677.59C145.157,681.863 141.027,683.017 136.22,681.05C131.92,679.3 131.45,675.92 131.45,671.81C131.357,535.17 131.37,401.403 131.49,270.51C131.5,257.4 138.77,243.37 147.75,234.9C155.117,227.94 163.4,223.373 172.6,221.2C177.127,220.127 183.57,219.593 191.93,219.6C214.957,219.613 237.97,219.613 260.97,219.6C260.976,219.6 260.983,219.6 260.989,219.6C261.576,219.59 262.051,219.103 262.041,218.521C262.04,218.514 262.04,218.507 262.04,218.5C261.887,213.993 261.987,209.363 262.34,204.61C264.32,178.52 285.39,158.2 311,155.6C314.413,155.253 320.877,155.127 330.39,155.22C362.543,155.527 395.907,155.547 430.48,155.28C437.593,155.227 443.187,155.67 447.26,156.61C457.053,158.863 465.213,162.973 471.74,168.94C480.987,177.393 486.753,187.627 489.04,199.64C490.07,205.08 489.64,210.49 489.92,215.94C489.941,216.391 490.323,216.751 490.78,216.75C490.78,216.75 530.99,216.74 530.99,216.74C531.626,216.74 532.15,216.216 532.15,215.58C532.15,215.577 532.15,215.573 532.15,215.57C532.117,208.47 532.1,201.15 532.1,193.61C532.093,187.437 535.06,184.27 541,184.11C549.113,183.89 562.237,183.883 580.37,184.09C587.3,184.17 588.5,190.29 588.52,195.77C588.64,227.297 588.65,262.483 588.55,301.33C588.54,306.75 586.27,311.62 580.19,311.97C569.59,312.59 557.58,312.22 543.13,312.07C540.137,312.037 537.98,311.687 536.66,311.02C533.56,309.46 532.2,305.98 532.17,302.63C532.103,295.203 532.093,287.81 532.14,280.45C532.14,279.53 531.68,279.07 530.76,279.07L490.47,278.98C490.203,278.98 490.067,279.113 490.06,279.38ZM281.7,315.67L470.12,315.67C470.992,315.67 471.71,314.952 471.71,314.08L471.71,211.28C471.71,190.472 454.556,173.35 433.71,173.35L318.11,173.35C297.264,173.35 280.11,190.472 280.11,211.28L280.11,314.08C280.11,314.952 280.828,315.67 281.7,315.67ZM570.23,203.27C570.23,202.705 569.765,202.24 569.2,202.24L551.5,202.24C550.935,202.24 550.47,202.705 550.47,203.27L550.47,292.75C550.47,293.315 550.935,293.78 551.5,293.78L569.2,293.78C569.765,293.78 570.23,293.315 570.23,292.75L570.23,203.27ZM532.099,236.043C532.098,235.386 531.557,234.845 530.899,234.845C530.899,234.845 530.898,234.845 530.897,234.845L490.997,234.915C490.34,234.916 489.799,235.457 489.799,236.115C489.799,236.115 489.799,236.116 489.799,236.117L489.841,259.757C489.842,260.414 490.383,260.955 491.041,260.955C491.041,260.955 491.042,260.955 491.043,260.955L530.943,260.885C531.6,260.884 532.141,260.343 532.141,259.685C532.141,259.685 532.141,259.684 532.141,259.683L532.099,236.043ZM336.73,334.87C336.73,334.327 336.283,333.88 335.74,333.88L308.48,333.88C307.937,333.88 307.49,334.327 307.49,334.87L307.49,456.09C307.49,456.633 307.937,457.08 308.48,457.08L335.74,457.08C336.283,457.08 336.73,456.633 336.73,456.09L336.73,334.87ZM397.24,334.92C397.24,334.339 396.761,333.86 396.18,333.86L355.74,333.86C355.159,333.86 354.68,334.339 354.68,334.92L354.68,456.12C354.68,456.701 355.159,457.18 355.74,457.18L396.18,457.18C396.761,457.18 397.24,456.701 397.24,456.12L397.24,334.92ZM444.27,334.6C444.27,334.205 443.945,333.88 443.55,333.88L416.19,333.88C415.795,333.88 415.47,334.205 415.47,334.6L415.47,456.38C415.47,456.775 415.795,457.1 416.19,457.1L443.55,457.1C443.945,457.1 444.27,456.775 444.27,456.38L444.27,334.6ZM471.54,476.66C471.54,475.985 470.985,475.43 470.31,475.43L281.39,475.43C280.715,475.43 280.16,475.985 280.16,476.66L280.16,526.52C280.16,527.195 280.715,527.75 281.39,527.75L470.31,527.75C470.985,527.75 471.54,527.195 471.54,526.52L471.54,476.66ZM440,546.27C440,546.122 439.878,546 439.73,546L312.47,546C312.322,546 312.2,546.122 312.2,546.27L312.2,569.19C312.2,569.338 312.322,569.46 312.47,569.46L439.73,569.46C439.878,569.46 440,569.338 440,569.19L440,546.27ZM417.27,588.64C417.27,588.135 416.855,587.72 416.35,587.72L335.35,587.72C334.845,587.72 334.43,588.135 334.43,588.64L334.43,622.56C334.43,623.065 334.845,623.48 335.35,623.48L416.35,623.48C416.855,623.48 417.27,623.065 417.27,622.56L417.27,588.64ZM499.36,642.54C499.36,642.079 498.981,641.7 498.52,641.7L253.52,641.7C253.059,641.7 252.68,642.079 252.68,642.54L252.68,666.74C252.68,667.201 253.059,667.58 253.52,667.58L498.52,667.58C498.981,667.58 499.36,667.201 499.36,666.74L499.36,642.54Z" style="fill:rgb(236,34,39);fill-rule:nonzero;stroke:rgb(236,34,39);stroke-width:5.5px;"></path>
            </g>
            <g transform="matrix(0.265006,0,0,0.265006,11090.6,2147.53)">
                <path d="M573.1,597.68C556.073,590.28 543.01,579.26 533.91,564.62C530.883,559.753 528.23,553.92 525.95,547.12C521.11,532.7 520.55,518.543 524.27,504.65C526.44,496.54 530.16,487.7 534.29,480.05C541.33,467.017 549.12,453.477 557.66,439.43C573.7,413.05 587.89,384.27 594.56,355.66C597.13,344.66 610.5,345.09 612.87,355.42C613.91,359.933 615.03,364.187 616.23,368.18C620.163,381.22 625.723,394.793 632.91,408.9C643.37,429.42 655.5,449.16 667.13,468.78C673.457,479.453 678.413,489.97 682,500.33C685.313,509.897 686.433,519.613 685.36,529.48C683.687,544.847 678.513,558.403 669.84,570.15C652.32,593.89 623.02,606.83 593.49,602.85C586.46,601.9 579.68,600.54 573.1,597.68ZM556.29,477.82C550.5,487.62 545.01,498.44 541.9,509.45C540.22,515.403 539.723,521.49 540.41,527.71C543.72,557.89 566.27,580.93 596.31,584.86C612.07,586.92 629.6,581.88 642.01,572.35C657.297,560.623 665.783,544.937 667.47,525.29C667.81,521.377 667.547,517.583 666.68,513.91C664.64,505.277 661.593,497.15 657.54,489.53C653.67,482.24 649.87,475.23 645.66,468.3C630.67,443.61 615.86,418.84 605.34,392.48C604.947,391.5 604.403,390.573 603.71,389.7C603.47,389.393 603.283,389.423 603.15,389.79C596.02,408.95 585.83,427.85 575.77,444.87C569.35,455.73 562.857,466.713 556.29,477.82Z" style="fill:rgb(236,34,39);fill-rule:nonzero;stroke:rgb(236,34,39);stroke-width:5.5px;"></path>
            </g>
            <g transform="matrix(0.265006,0,0,0.265006,11090.6,2147.53)">
                <path d="M572.73,504.53C565.36,518.48 564.19,533.94 577.51,545.13C579.8,547.05 582.75,548.21 584.68,550.51C587.133,553.437 587.333,556.793 585.28,560.58C582.34,565.98 576.27,566.26 571.45,563.31C555.66,553.66 547.28,537.12 549.32,518.66C550.287,509.933 553.163,501.68 557.95,493.9C559.87,490.78 562.773,489.593 566.66,490.34C574.1,491.78 576.05,498.24 572.73,504.53Z" style="fill:rgb(236,34,39);fill-rule:nonzero;stroke:rgb(236,34,39);stroke-width:5.5px;"></path>
            </g>
        </g>
    </g>
</svg>
